<ttFont>
<head>
    <!-- Most of this table will be recalculated by the compiler -->
    <tableVersion value="1.0"/>
    <fontRevision value="2.004"/>
    <checkSumAdjustment value="0xb2ffd3da"/>
    <magicNumber value="0x5f0f3cf5"/>
    <flags value="00000000 00000011"/>
    <unitsPerEm value="1000"/>
    <created value="Thu Oct  8 09:58:00 2009"/>
    <modified value="Thu Oct  8 09:58:00 2009"/>
    <xMin value="-501"/>
    <yMin value="-299"/>
    <xMax value="1649"/>
    <yMax value="1136"/>
    <macStyle value="00000000 00000001"/>
    <lowestRecPPEM value="3"/>
    <fontDirectionHint value="2"/>
    <indexToLocFormat value="0"/>
    <glyphDataFormat value="0"/>
  </head>
          <CharString index="0">
            hintmask 10010000
            849 hmoveto
            49 -97 vlineto
            -262 624 rlineto
            27 -11 -15 0 -18 hhcurveto
            -18 -15 0 -27 -11 hvcurveto
            -253 -601 rlineto
            hintmask 01000000
            -7 -16 0 -1 -25 -3 rrcurveto
            hintmask 10000000
            103 callgsubr
            hintmask 01000000
            2 56 13 1 53 hhcurveto
            hintmask 10100000
            39 32 0 -3 62 hvcurveto
            49 vlineto
            -27 -34 0 11 -28 hvcurveto
            55 132 rlineto
            277 hlineto
            60 -143 rlineto
            -94 -49 hlineto
            50 callgsubr
            101 0 41 hhcurveto
            hintmask 10100000
            42 85 0 -3 38 hvcurveto
            -329 241 rmoveto
            -235 hlineto
            118 280 rlineto
            return
          </CharString>
          <CharString index="1">
            569 25 rmoveto
            24 -16 0 -10 vhcurveto
            -64 1 0 10 24 vvcurveto
            214 vlineto
            88 -72 67 -154 -57 -128 -2 -92 -45 34 -21 31 34 31 24 41 29 -17 17 -3 3 vhcurveto
            2 10 24 4 37 hhcurveto
            72 41 -36 -79 hvcurveto
            -32 vlineto
            -166 -168 -43 -111 -99 125 -19 72 76 52 33 47 27 hvcurveto
            return
          </CharString>
          <CharString index="2">
            -20 -106 callgsubr
            return
          </CharString>
          <CharString index="3">
            63 callsubr
            164 117 hintmask 10100110
            -106 callsubr
            hintmask 01000010
            -26 0 -48 107 vhcurveto
            49 hlineto
            19 14 0 25 hvcurveto
            -207 114 rmoveto
            -105 -116 0 -4 -51 -42 33 45 33 18 78 195 9 vhcurveto
            return
          </CharString>
          <CharString index="4">
            -20 -104 callsubr
            return
          </CharString>
          <CharString index="5">
            42 -34 29 -36 -38 -33 -31 -39 -42 35 -29 36 37 33 30 40 vhcurveto
            return
          </CharString>
          <CharString index="6">
            rmoveto
            81 callsubr
          </CharString>
          <CharString index="7">
            108 -81 83 -95 20 vhcurveto
            -145 31 rlineto
            -101 22 -3 67 14 vvcurveto
            47 31 58 101 158 39 -108 -66 11 vhcurveto
            -16 3 0 -5 23 hhcurveto
            25 1 5 24 hvcurveto
            182 vlineto
            18 0 11 -20 -9 -1 -1 -11 -12 vhcurveto
            -44 -43 rlineto
            44 -56 -65 11 -54 hhcurveto
            -160 -70 -101 -100 -72 41 -46 9 -10 hvcurveto
            55 -55 33 -7 104 -22 16 -3 16 -3 15 -4 59 -12 17 -3 33 -34 rrcurveto
            1 -2 26 -27 -44 vvcurveto
            -20 -6 -96 -129 -60 -171 11 156 -8 vhcurveto
            18 -1 0 6 -24 hhcurveto
            -26 0 -6 -24 hvcurveto
            -181 vlineto
            -18 0 -11 20 vhcurveto
            return
          </CharString>
          <CharString index="8">
            hstemhm
            127 callsubr
            hintmask 11001100
            -105 callgsubr
            return
          </CharString>
          <CharString index="9">
            -103 callsubr
            hintmask 00011000
            return
          </CharString>
          <CharString index="10">
            26 callgsubr
            131 -92 104 -170 -176 -87 63 callgsubr
            -124 90 -100 172 179 84 105 119 vhcurveto
            -133 11 rmoveto
            -86 0 -106 -129 -130 0 105 87 84 0 100 129 130 0 -100 -84 vhcurveto
            return
          </CharString>
          <CharString index="11">
            -37 callgsubr
            166 51 147 51 -18 51 hintmask 1110011010000000
            743 276 rmoveto
            -51 hlineto
            -128 -22 -22 -99 -194 hhcurveto
            -159 279 58 hlineto
            98 10 -44 -73 hvcurveto
            51 283 -51 hlineto
            -73 -9 -44 -99 vhcurveto
            -58 254 158 hlineto
            hintmask 1010010100000000
            159 31 -69 -125 16 hvcurveto
            51 hlineto
            -31 243 rlineto
            -637 -36 callsubr
            654 hlineto
            hintmask 0000000010000000
            return
          </CharString>
          <CharString index="12">
            870 228 60 callgsubr
            -39 -87 0 -43 hhcurveto
            -50 -112 0 3 -44 hvcurveto
            -49 148 -100 vlineto
            -21 0 -29 -43 -22 vhcurveto
            -13 -26 -34 -6 -33 hhcurveto
            -54 -100 10 77 -70 hvcurveto
            -59 66 -1 111 43 vvcurveto
            75 9 94 60 61 vhcurveto
            68 68 96 7 43 hhcurveto
            88 116 -53 -159 26 hvcurveto
            -13 2 12 0 15 hhcurveto
            27 3 2 27 hvcurveto
            216 vlineto
            18 0 11 -20 -10 -2 -2 -8 -9 vhcurveto
            -66 -58 rlineto
            46 -57 -73 22 -73 hhcurveto
            -258 -154 -152 -203 -194 144 -161 270 hvcurveto
            return
          </CharString>
          <CharString index="13">
            rmoveto
            -175 141 -175 -141 14 -24 160 58 160 -58 rlineto
            return
          </CharString>
          <CharString index="14">
            596 395 60 callgsubr
            -28 -25 0 -28 hhcurveto
            -30 -31 1 2 -29 hvcurveto
            -49 vlineto
            0 44 0 -12 vvcurveto
            0 0 -2 -5 -10 vhcurveto
            -119 -244 -130 268 rlineto
            51 49 hlineto
            -123 -3 rlineto
            -36 -20 0 3 -59 hvcurveto
            -49 63 vlineto
            192 -395 rlineto
            -82 -35 -38 -78 -77 hhcurveto
            -6 -6 0 3 -7 hvcurveto
            17 9 12 18 25 vvcurveto
            38 -28 22 -32 -32 -28 -22 -38 -54 50 -41 59 78 62 58 65 31 vhcurveto
            219 450 rlineto
            15 7 4 7 63 hhcurveto
            return
          </CharString>
          <CharString index="15">
            -24 callsubr
            hintmask 0100100010000000
            630 68 callsubr
            362 vlineto
            hintmask 1011000110000000
            -79 callgsubr
            hintmask 0000100100000000
            341 vlineto
            hintmask 1011000100000000
            -76 callgsubr
            return
          </CharString>
          <CharString index="16">
            rmoveto
            34 -31 30 -30 -24 -10 -11 -31 -28 vhcurveto
            -103 -114 31 -41 157 80 rlineto
            14 7 24 13 33 vvcurveto
            endchar
          </CharString>
          <CharString index="17">
            -8 rlineto
            -49 vlineto
            60 8 0 -39 hvcurveto
            return
          </CharString>
          <CharString index="18">
            881 100 callsubr
            vlineto
            -3 -35 -104 0 -41 hhcurveto
            -41 -105 0 3 -35 hvcurveto
            -49 108 -256 -333 256 108 78 callsubr
            -104 0 -41 hhcurveto
            -41 -105 0 3 -35 hvcurveto
            -49 108 -588 -56 callsubr
            283 333 -283 -64 callsubr
            return
          </CharString>
          <CharString index="19">
            828 395 60 callgsubr
            -28 -25 0 -27 hhcurveto
            -32 -31 1 2 -32 hvcurveto
            -49 vlineto
            13 23 0 -9 20 hvcurveto
            -2 -8 0 -1 -3 -7 -106 -254 rcurveline
            -116 279 rlineto
            54 49 hlineto
            -112 -3 rlineto
            -10 -49 0 3 -43 hvcurveto
            -49 58 vlineto
            13 -29 0 -2 6 -15 -87 -210 rcurveline
            -107 256 rlineto
            54 49 hlineto
            -122 -3 rlineto
            -23 -37 0 3 -51 hvcurveto
            -49 58 vlineto
            156 -374 rlineto
            -26 11 16 0 12 hhcurveto
            27 5 11 17 7 hvcurveto
            109 260 109 -262 rlineto
            -26 11 15 0 13 hhcurveto
            12 16 0 26 11 hvcurveto
            147 352 rlineto
            16 7 2 6 58 hhcurveto
            return
          </CharString>
          <CharString index="20">
            hstemhm
            49 117 -49 117 216 112 8 133 hintmask 0011000011000000
            703 494 rmoveto
            43 -26 41 -40 -45 -22 -34 -33 -33 22 -32 42 -2 vhcurveto
            -16 -18 -27 -12 -29 -7 rrcurveto
            44 vlineto
            -185 -9 rlineto
            -49 vlineto
            19 26 0 -5 11 hvcurveto
            9 -3 2 -10 -10 vvcurveto
            -210 vlineto
            -67 -54 -54 -67 vhcurveto
            hintmask 0101000100000000
            -41 -21 3 15 -16 hvcurveto
            -9 8 -2 20 37 vvcurveto
            334 vlineto
            hintmask 0001001000000000
            -185 -9 rlineto
            -49 vlineto
            19 26 0 -5 12 hvcurveto
            hintmask 0000000100000000
            8 -3 3 -10 -10 vvcurveto
            -248 vlineto
            hintmask 1000001011000000
            -39 17 -37 32 -20 vhcurveto
            -24 41 41 -3 66 hhcurveto
            57 51 30 45 28 hvcurveto
            -75 vlineto
            179 6 rlineto
            49 vlineto
            -19 -26 0 5 -11 hvcurveto
            -9 4 -2 10 9 vvcurveto
            280 vlineto
            77 15 64 48 74 vvcurveto
            return
          </CharString>
          <CharString index="21">
            788 228 rmoveto
            22 -10 0 -16 -11 -13 0 -16 -1 vhcurveto
            -145 -8 -133 -52 -95 hhcurveto
            -54 -97 11 74 -67 hvcurveto
            -53 60 -7 93 68 vvcurveto
            120 24 60 41 46 vhcurveto
            53 47 81 27 83 hhcurveto
            88 116 -53 -159 26 hvcurveto
            -13 2 12 0 15 hhcurveto
            27 3 2 27 hvcurveto
            216 vlineto
            18 0 11 -20 -10 -2 -2 -8 -9 vhcurveto
            -66 -58 rlineto
            46 -57 -73 22 -73 hhcurveto
            -258 -154 -152 -203 return
          </CharString>
          <CharString index="22">
            28 -3 1 -1 -22 vvcurveto
            -376 vlineto
            -137 -100 -58 -122 -180 -2 133 54 vhcurveto
            413 108 49 vlineto
            return
          </CharString>
          <CharString index="23">
            779 431 rmoveto
            -22 243 rlineto
            -692 hlineto
            -22 -243 rlineto
            51 hlineto
            111 10 9 83 147 hhcurveto
            79 -576 -153 -49 hlineto
            3 44 130 0 52 hhcurveto
            52 129 0 -3 44 hvcurveto
            49 -153 576 79 vlineto
            147 8 -85 -109 10 hvcurveto
            return
          </CharString>
          <CharString index="24">
            26 24 27 11 28 hhcurveto
            22 23 -6 -14 39 hvcurveto
            return
          </CharString>
          <CharString index="25">
            876 hmoveto
            49 -29 vlineto
            -53 -4 5 14 -11 hvcurveto
            -279 351 248 200 rlineto
            18 22 39 0 33 hhcurveto
            17 49 hlineto
            -3 -39 -56 0 -13 hhcurveto
            -40 -67 0 3 -37 hvcurveto
            -49 vlineto
            27 23 -4 -3 9 hvcurveto
            9 -2 -4 -1 3 -1 -379 -306 rcurveline
            317 108 78 callsubr
            -104 0 -41 hhcurveto
            -41 -105 0 3 -35 hvcurveto
            -49 108 -588 -56 callsubr
            205 vlineto
            105 85 214 -270 7 -9 rlineto
            -11 -45 0 -25 vhcurveto
            -49 vlineto
            3 37 95 0 42 hhcurveto
            15 73 0 -3 63 hvcurveto
            return
          </CharString>
          <CharString index="26">
            -176 -8 rlineto
            -49 vlineto
            58 7 0 -39 hvcurveto
            -305 -16 callsubr
            2 67 13 1 42 hhcurveto
            49 13 -1 -2 56 hvcurveto
            return
          </CharString>
          <CharString index="27">
            hstemhm
            150 -74 callgsubr
            return
          </CharString>
          <CharString index="28">
            hintmask 11000000
            663 286 114 callgsubr
            -9 -26 -107 -197 hhcurveto
            -142 hlineto
            409 580 rlineto
            9 13 0 6 8 vvcurveto
            26 -13 0 -21 vhcurveto
            -527 hlineto
            -13 -243 rlineto
            51 hlineto
            hintmask 10100000
            160 9 101 34 110 hhcurveto
            132 hlineto
            -411 -583 rlineto
            -8 -11 0 -6 -9 vvcurveto
            -28 12 0 22 vhcurveto
            544 hlineto
            return
          </CharString>
          <CharString index="29">
            rmoveto
            -102 callsubr
            306 hmoveto
            -102 callsubr
            endchar
          </CharString>
          <CharString index="30">
            187 rmoveto
            106 -82 47 -53 30 vhcurveto
            72 35 30 48 56 vvcurveto
            96 -84 51 -127 -144 -72 -79 -98 -54 29 -58 66 -37 vhcurveto
            hintmask 1001001001000000
            -53 -28 -75 -40 -101 vvcurveto
            -124 112 -49 133 162 86 85 114 vhcurveto
            -111 321 rmoveto
            -52 -32 -37 -41 -22 vhcurveto
            -155 83 rlineto
            hintmask 1010101010000000
            -5 3 -38 21 35 vvcurveto
            66 78 11 55 89 49 -42 -66 vhcurveto
            21 -376 rmoveto
            -93 -117 -6 -38 vhcurveto
            hintmask 0001000000000000
            -89 -69 41 88 hvcurveto
            hintmask 0000010100000000
            46 19 52 71 41 vhcurveto
            133 -72 rlineto
            54 -30 36 -19 -48 vvcurveto
            endchar
          </CharString>
          <CharString index="31">
            -103 callgsubr
            219 return
          </CharString>
          <CharString index="32">
            rmoveto
            33 -34 29 -33 -28 -17 -19 -25 -9 vhcurveto
            -44 -124 43 -29 97 88 rlineto
            7 6 18 16 25 vvcurveto
            197 hmoveto
            33 -34 29 -33 -28 -17 -19 -25 -9 vhcurveto
            -44 -124 43 -29 97 88 rlineto
            7 6 18 16 25 vvcurveto
            endchar
          </CharString>
          <CharString index="33">
            rmoveto
            -122 95 rlineto
            21 -28 -12 10 -17 hhcurveto
            -39 -29 -36 -38 8 hvcurveto
            6 -33 26 -8 15 -5 168 -51 rcurveline
            endchar
          </CharString>
          <CharString index="34">
            -94 callsubr
            -38 245 rmoveto
            -24 -45 -168 51 -15 5 -26 8 -6 33 rlinecurve
            38 -8 29 36 39 hhcurveto
            17 12 -10 -21 28 hvcurveto
            endchar
          </CharString>
          <CharString index="35">
            -96 callgsubr
            -45 return
          </CharString>
          <CharString index="36">
            10 callgsubr
            hintmask 11000100
            -81 callsubr
            return
          </CharString>
          <CharString index="37">
            -185 -90 callsubr
            return
          </CharString>
          <CharString index="38">
            -20 hstemhm
            39 74 240 74 hintmask 00110010
            427 140 rmoveto
            51 -29 32 -18 15 vhcurveto
            -45 38 -32 5 -79 13 rrcurveto
            -48 8 -63 10 45 vvcurveto
            60 93 0 22 112 4 -59 -27 2 vhcurveto
            hintmask 01010000
            -14 1 14 0 10 hhcurveto
            25 1 5 24 hvcurveto
            78 vlineto
            18 0 11 -20 -10 -16 -8 -10 -18 vhcurveto
            14 -32 -39 4 -33 hhcurveto
            hintmask 10100011
            -73 callgsubr
            hintmask 00001100
            return
          </CharString>
          <CharString index="39">
            -167 -90 callsubr
            -305 -16 callsubr
            128 3 rlineto
            25 58 0 -3 53 hvcurveto
            49 -85 169 vlineto
            73 27 116 97 3 vhcurveto
            return
          </CharString>
          <CharString index="40">
            -20 hstemhm
            118 117 -105 20 callgsubr
            -84 117 hintmask 0100100000010000
            630 68 callsubr
            362 vlineto
            hintmask 1011000010010000
            -79 callgsubr
            hintmask 0000100010000000
            341 vlineto
            hintmask 1011000010000000
            -76 callgsubr
            hintmask 0000011101100000
            -9 callgsubr
            return
          </CharString>
          <CharString index="41">
            111 -71 callsubr
            return
          </CharString>
          <CharString index="42">
            rmoveto
            29 -228 vlineto
            -21 -140 6 3 -11 hvcurveto
            -20 5 -1 7 -2 11 rrcurveto
            -51 hlineto
            -35 -257 rlineto
            51 hlineto
            11 85 16 6 0 vvcurveto
            6 15 76 0 20 hhcurveto
            166 hlineto
            -102 -117 0 -2 -21 -31 rrcurveto
            -82 -124 -18 -114 -68 vvcurveto
            -70 55 -2 10 27 18 16 5 5 vhcurveto
            15 21 0 5 57 vvcurveto
            129 12 121 65 73 vhcurveto
            160 180 rlineto
            9 11 1 6 3 vvcurveto
            endchar
          </CharString>
          <CharString index="43">
            -108 -49 vlineto
            -60 callsubr
            return
          </CharString>
          <CharString index="44">
            rmoveto
            -102 callsubr
            258 hmoveto
            -102 callsubr
            endchar
          </CharString>
          <CharString index="45">
            rmoveto
            -14 24 -160 -58 -160 58 -16 -24 175 -141 rlineto
            endchar
          </CharString>
          <CharString index="46">
            -6 34 16 0 21 hhcurveto
            28 64 0 50 75 hvcurveto
            22 14 58 49 26 vvcurveto
            4 0 16 -16 vhcurveto
            0 -4 0 -11 -5 vhcurveto
            -18 -51 -55 -9 -52 hhcurveto
            -62 -51 12 15 -43 hvcurveto
            -13 5 -4 0 0 vvcurveto
            -15 0 -13 -15 hvcurveto
            -295 vlineto
            -18 0 -14 24 13 2 1 13 11 vhcurveto
            47 41 55 8 39 hhcurveto
            93 0 -87 -79 -72 0 -99 -125 -55 -48 26 32 -25 hvcurveto
            return
          </CharString>
          <CharString index="47">
            3 35 104 54 callsubr
            105 21 callgsubr
            return
          </CharString>
          <CharString index="48">
            -44 callsubr
            126 3 127 -3 rlineto
            49 -68 205 vlineto
            112 92 44 60 38 20 -21 -75 vhcurveto
            -265 -17 callgsubr
            rlineto
            return
          </CharString>
          <CharString index="49">
            rmoveto
            -18 22 -158 -99 -158 99 -20 -22 177 -185 rlineto
            endchar
          </CharString>
          <CharString index="50">
            -94 callsubr
            endchar
          </CharString>
          <CharString index="51">
            -64 callsubr
            49 -108 return
          </CharString>
          <CharString index="52">
            893 0 -41 callsubr
            return
          </CharString>
          <CharString index="53">
            rmoveto
            117 -2 -91 71 -91 hhcurveto
            -95 -88 -74 -114 -2 hvcurveto
            40 hlineto
            89 4 83 33 57 hhcurveto
            61 80 -35 -87 4 hvcurveto
            endchar
          </CharString>
          <CharString index="54">
            893 0 49 -46 49 234 49 59 49 191 49 -46 49 hstemhm
            hintmask 10011000
            856 hmoveto
            49 -98 vlineto
            -259 345 173 222 10 13 1 2 36 3 rlinecurve
            hintmask 00000100
            3 24 6 0 28 hhcurveto
            28 49 hlineto
            hintmask 00001000
            -138 -3 rlineto
            hintmask 00010100
            -40 -75 0 3 -37 hvcurveto
            -49 vlineto
            16 40 0 -11 33 hvcurveto
            -2 -3 0 -2 -6 -6 -134 -172 rcurveline
            -145 194 rlineto
            81 49 hlineto
            hintmask 00001000
            -3 -35 -104 0 -41 hhcurveto
            hintmask 01100100
            -42 -86 0 3 -37 hvcurveto
            -49 98 vlineto
            226 -302 -207 -267 -10 -13 -9 0 -25 -3 rlinecurve
            hintmask 10000000
            -4 -34 -3 -22 hhcurveto
            -29 47 callsubr
            138 3 rlineto
            hintmask 10100000
            41 74 0 -3 38 hvcurveto
            49 vlineto
            -16 -41 0 11 -32 hvcurveto
            1 2 5 6 2 3 167 215 rcurveline
            177 -237 rlineto
            -81 47 callsubr
            3 36 102 0 42 hhcurveto
            hintmask 10000000
            41 88 0 -3 37 hvcurveto
            endchar
          </CharString>
          <CharString index="55">
            541 38 callsubr
            -41 -78 0 -44 hhcurveto
            -45 -114 0 3 -38 hvcurveto
            -49 140 -488 vlineto
            -83 -40 -38 -62 -20 -33 4 11 -28 vhcurveto
            33 17 10 31 23 vvcurveto
            49 -36 30 -43 -41 -38 -28 -52 -74 76 -51 124 143 94 60 102 vhcurveto
            487 vlineto
            return
          </CharString>
          <CharString index="56">
            28 -3 1 -1 -22 vvcurveto
            -402 vlineto
            -409 467 rlineto
            13 -11 -2 0 -21 hhcurveto
            -231 -49 108 -559 hlineto
            return
          </CharString>
          <CharString index="57">
            1202 -12 40 -28 49 282 49 257 49 -28 40 hstemhm
            85 151 248 126 0 126 216 51 81 51 -18 51 hintmask 0111000110100000
            1168 276 rmoveto
            -51 hlineto
            -130 -23 -20 -97 -188 hhcurveto
            -150 282 93 hlineto
            91 32 -25 -92 hvcurveto
            51 283 -51 hlineto
            -92 -33 -25 -90 vhcurveto
            -93 257 149 hlineto
            hintmask 0001000001000000
            162 22 -77 -117 15 hvcurveto
            51 hlineto
            -31 243 rlineto
            -437 hlineto
            -11 -14 0 6 -66 hvcurveto
            hintmask 1000110000000000
            3 -39 -27 3 -32 hhcurveto
            -255 -138 -158 -201 -198 140 -153 253 31 20 2 4 46 hvcurveto
            hintmask 0100000000100000
            2 21 45 4 26 hhcurveto
            454 hlineto
            -511 197 rmoveto
            hintmask 1000111000000000
            -147 -36 -22 -90 -151 -97 126 201 198 105 105 142 90 37 -20 -149 vhcurveto
            endchar
          </CharString>
          <CharString index="58">
            -4 -75 -36 -59 -55 -42 rrcurveto
            -5 -4 -5 -3 -8 vvcurveto
            -10 12 -12 10 return
          </CharString>
          <CharString index="59">
            920 -6 40 -40 43 178 71 callgsubr
            hstemhm
            33 121 280 117 237 98 hintmask 01111110
            886 -47 callgsubr
            -85 -66 -31 -42 -38 hvcurveto
            23 -24 -57 50 -118 hhcurveto
            -172 -88 -105 -124 -126 91 -104 169 117 61 52 23 22 hvcurveto
            -19 21 60 -56 122 53 callsubr
            -354 -22 rmoveto
            -46 -2 -54 -26 -39 vhcurveto
            hintmask 10011100
            -41 -27 -47 -15 -39 hhcurveto
            -139 0 138 57 57 0 127 139 141 0 -129 -55 hvcurveto
            endchar
          </CharString>
          <CharString index="60">
            -55 callsubr
            -20 return
          </CharString>
          <CharString index="61">
            1071 0 49 -46 70 callgsubr
            282 49 hstemhm
            495 136 174 51 97 51 -18 51 hintmask 10111101
            1037 276 114 callgsubr
            -22 -18 -101 -183 hhcurveto
            -132 257 64 hlineto
            97 13 -40 -77 hvcurveto
            51 283 -51 hlineto
            -77 -12 -40 -98 vhcurveto
            -64 282 128 hlineto
            hintmask 01010010
            163 16 -81 -113 15 hvcurveto
            51 hlineto
            -31 243 rlineto
            -652 -49 75 hlineto
            -246 -566 -6 -14 -1 -2 -26 -3 rlinecurve
            hintmask 10000000
            -3 -24 -1 0 -28 hhcurveto
            -21 47 callsubr
            2 56 13 1 53 hhcurveto
            hintmask 10111001
            134 -3 rlineto
            49 vlineto
            -28 -33 0 11 -28 hvcurveto
            106 246 rlineto
            179 -257 -81 -49 576 hlineto
            -495 355 rmoveto
            -157 hlineto
            122 282 rlineto
            35 hlineto
            endchar
          </CharString>
          <CharString index="62">
            238 -43 callgsubr
            return
          </CharString>
          <CharString index="63">
            -179 -90 callsubr
            -549 -16 callsubr
            return
          </CharString>
          <CharString index="64">
            rmoveto
            52 -3 104 -51 78 vhcurveto
            49 -34 -58 44 -99 hhcurveto
            -144 -104 -80 -136 -125 85 -90 149 44 43 22 54 31 hvcurveto
            -18 vlineto
            -66 -7 -63 -19 -42 vhcurveto
            -26 -13 -40 -53 -78 hhcurveto
            -8 -43 0 21 -31 hvcurveto
            return
          </CharString>
          <CharString index="65">
            -27 -2 0 3 -24 hvcurveto
            -28 3 -1 1 22 vvcurveto
            515 vlineto
            508 -580 rlineto
            return
          </CharString>
          <CharString index="66">
            49 -46 49 140 49 459 return
          </CharString>
          <CharString index="67">
            22 callsubr
            -72 573 rmoveto
            19 -15 13 -17 -9 -10 -5 -7 -6 vhcurveto
            -25 -22 -60 -70 -126 hhcurveto
            -54 -83 14 63 -91 hvcurveto
            13 -17 -25 17 -44 hhcurveto
            -89 -87 -65 -136 -142 91 -60 85 80 72 64 137 14 0 43 -15 40 hvcurveto
            -18 38 64 -23 76 hhcurveto
            30 34 2 17 50 hvcurveto
            -494 -619 rlineto
            -7 -9 -6 -8 -11 vvcurveto
            -18 15 -14 17 10 10 5 12 10 vhcurveto
            583 731 rlineto
            9 11 3 4 11 vvcurveto
            return
          </CharString>
          <CharString index="68">
            75 callsubr
            -188 121 -143 210 -18 vhcurveto
            -24 -28 -19 -33 -29 -13 callgsubr
            11 hvcurveto
            5 15 8 13 11 11 rrcurveto
            221 12 127 144 194 vvcurveto
            -157 15 rmoveto
            -89 -9 -64 -31 -61 vhcurveto
            -69 -37 -71 -37 -73 hhcurveto
            -62 -71 27 71 -43 hvcurveto
            -41 68 -4 88 66 vvcurveto
            89 9 75 49 64 vhcurveto
            33 26 57 40 80 hhcurveto
            66 63 -27 -53 39 hvcurveto
            49 -65 4 -86 -70 vvcurveto
            return
          </CharString>
          <CharString index="69">
            455 366 rmoveto
            51 -52 33 -59 -70 -43 -51 -58 -22 vhcurveto
            -1 109 hlineto
            return
          </CharString>
          <CharString index="70">
            205 rmoveto
            54 -10 55 -59 52 vhcurveto
            44 -51 -52 10 -62 hhcurveto
            -64 -38 -46 -30 -16 hvcurveto
            17 vlineto
            hintmask 0001011000000000
            125 25 40 10 17 vhcurveto
            46 29 53 27 54 hhcurveto
            18 32 -2 -23 24 hvcurveto
            hintmask 0010100100000000
            -40 -9 -13 -30 -25 vvcurveto
            -42 32 -23 33 27 38 17 50 62 -41 65 -112 -145 -165 -91 -248 vhcurveto
            hintmask 1000010010000000
            -49 3 -97 43 -72 vhcurveto
            -76 44 70 -35 91 hhcurveto
            142 100 82 135 hvcurveto
            -141 2 rmoveto
            -101 0 -73 -103 -59 -27 45 17 -7 vhcurveto
            -13 32 0 80 3 vvcurveto
            hintmask 0100001000000000
            104 43 65 70 vhcurveto
            hintmask 0000000010000000
            96 0 -72 -100 hvcurveto
            endchar
          </CharString>
          <CharString index="71">
            -49 108 25 callgsubr
            return
          </CharString>
          <CharString index="72">
            4 -2 4 -3 3 vhcurveto
            -68 58 -53 73 -33 83 rrcurveto
            5 -2 -5 4 -7 hhcurveto
            -9 hlineto
            -8 -7 -7 -11 1 hvcurveto
            15 -75 26 -73 35 -68 -35 -69 -26 -73 -15 -75 rrcurveto
            -11 -1 7 -7 8 hhcurveto
            9 hlineto
            7 5 4 5 2 hvcurveto
            33 83 53 74 68 57 rrcurveto
            3 3 2 4 5 vvcurveto
            return
          </CharString>
          <CharString index="73">
            rmoveto
            102 -197 7 -52 -7 -7 0 -1 -7 vhcurveto
            -60 -9 -62 1 -51 -40 rrcurveto
            -19 -14 -15 -22 -24 vvcurveto
            -13 7 -5 17 vhcurveto
            6 hlineto
            13 6 4 16 3 hvcurveto
            49 12 156 1 21 hhcurveto
            50 116 -3 -45 17 hvcurveto
            -12 6 -1 -10 16 hhcurveto
            9 hlineto
            16 7 6 12 hvcurveto
            endchar
          </CharString>
          <CharString index="74">
            135 -43 callsubr
            hintmask 0000010000000000
            34 11 13 26 26 vvcurveto
            hintmask 0100001000000000
            42 -32 23 -33 vhcurveto
            hintmask 1000010101000000
            -27 -38 -17 -50 -68 51 -59 116 139 157 89 252 hvcurveto
            -142 100 rmoveto
            hintmask 0010001000000000
            -46 -18 -117 -96 vhcurveto
            hintmask 0001100110000000
            -96 0 73 99 97 0 81 109 63 23 -56 -9 3 hvcurveto
            12 -33 0 -55 -34 vvcurveto
            endchar
          </CharString>
          <CharString index="75">
            180 rmoveto
            79 -60 69 -113 24 vhcurveto
            101 35 39 69 61 vvcurveto
            75 -75 64 -149 vhcurveto
            hintmask 0001111000000000
            -123 -80 -66 -81 -45 32 -28 40 43 29 31 41 33 -19 29 -40 9 hvcurveto
            7 8 41 30 64 hhcurveto
            87 0 -65 -32 -56 -21 -87 -86 -5 hvcurveto
            hintmask 1010001010000000
            -47 -3 rlineto
            -16 -2 0 -11 -7 vvcurveto
            -20 11 0 18 vhcurveto
            47 hlineto
            112 0 -98 -50 -45 0 -102 -107 -12 -69 2 33 -46 hvcurveto
            46 13 10 39 23 vvcurveto
            hintmask 1100000110000000
            47 -33 32 -46 -43 -36 -29 -51 -94 100 -60 134 183 76 100 92 vhcurveto
            endchar
          </CharString>
          <CharString index="76">
            71 -38 55 -57 -50 -28 -39 -39 -40 27 -39 52 return
          </CharString>
          <CharString index="77">
            -20 -96 callsubr
            hintmask 0001100000000000
            -133 80 callgsubr
            return
          </CharString>
          <CharString index="78">
            -44 callsubr
            120 3 rlineto
            43 11 0 -3 67 hvcurveto
            49 -68 121 vlineto
            61 45 rlineto
            3 -4 128 -148 -5 vvcurveto
            -9 -16 0 -11 vhcurveto
            123 callsubr
            39 27 0 -3 40 hvcurveto
            return
          </CharString>
          <CharString index="79">
            143 -75 59 -77 -89 -87 -65 -136 -142 91 -60 85 80 72 64 137 vhcurveto
            return
          </CharString>
          <CharString index="80">
            777 0 -2 callsubr
            return
          </CharString>
          <CharString index="81">
            -20 hstemhm
            73 38 callgsubr
            hintmask 10011000
            -10 callsubr
            hintmask 01100000
            return
          </CharString>
          <CharString index="82">
            4 75 36 59 55 42 rrcurveto
            5 4 5 3 8 vvcurveto
            10 -12 12 -10 return
          </CharString>
          <CharString index="83">
            hstemhm
            -36 callgsubr
            return
          </CharString>
          <CharString index="84">
            0 11 callsubr
            return
          </CharString>
          <CharString index="85">
            543 -6 40 162 36 178 43 hstem
            33 98 245 133 vstem
            509 222 rmoveto
            131 -99 100 -170 -165 -42 -106 -16 -20 20 0 6 18 2 6 14 6 vhcurveto
            52 23 61 27 63 hhcurveto
            142 2 -129 -49 hvcurveto
            -310 hlineto
            -21 -12 0 -28 -22 2 -88 65 -54 hvcurveto
            -37 45 60 -9 49 hhcurveto
            171 84 108 120 hvcurveto
            -133 -26 rmoveto
            -46 -2 -5 -116 -115 hhcurveto
            -117 -4 122 40 -2 hvcurveto
            endchar
          </CharString>
          <CharString index="86">
            rmoveto
            29 -72 64 72 29 -72 252 vlineto
            18 -2 3 -21 -18 -1 -1 -8 -7 vhcurveto
            -257 -264 rlineto
            -29 214 -64 -83 -29 vlineto
            2 26 72 0 29 hhcurveto
            30 64 0 -2 26 hvcurveto
            -122 -12 callsubr
            5 vhcurveto
            474 57 callgsubr
            -33 -544 rmoveto
            -182 hlineto
            182 187 rlineto
            endchar
          </CharString>
          <CharString index="87">
            7 callsubr
            -95 -53 -54 -41 -26 vhcurveto
            return
          </CharString>
          <CharString index="88">
            625 8 callgsubr
            335 57 -46 49 193 69 callgsubr
            159 111 hintmask 0010100010000000
            605 5 callsubr
            113 callgsubr
            hintmask 0001000000000000
            -3 -32 -29 0 -21 hhcurveto
            hintmask 0000100000000000
            -112 74 callgsubr
            hintmask 0001001100000000
            19 3 -3 -8 6 hvcurveto
            -192 -146 rlineto
            456 vlineto
            return
          </CharString>
          <CharString index="89">
            889 -12 46 621 43 return
          </CharString>
          <CharString index="90">
            -27 callsubr
            -37 callgsubr
            166 51 147 51 -18 51 hintmask 11111010
            743 276 rmoveto
            -51 hlineto
            -128 -22 -22 -99 -194 hhcurveto
            -159 279 58 hlineto
            98 10 -44 -73 hvcurveto
            51 283 -51 hlineto
            -73 -9 -44 -99 vhcurveto
            -58 254 158 hlineto
            hintmask 10110100
            159 31 -69 -125 16 hvcurveto
            51 hlineto
            -31 243 rlineto
            -637 -36 callsubr
            654 hlineto
            hintmask 00000010
            endchar
          </CharString>
          <CharString index="91">
            -68 -49 vlineto
            return
          </CharString>
          <CharString index="92">
            -278 -21 145 118 return
          </CharString>
          <CharString index="93">
            808 0 49 250 44 294 89 callgsubr
            295 157 vstem
            741 490 rmoveto
            110 -101 86 -171 vhcurveto
            -427 -49 108 -588 -108 -49 hlineto
            56 callsubr
            250 184 vlineto
            143 119 73 118 hvcurveto
            -157 hmoveto
            -70 0 -77 -154 vhcurveto
            -141 294 142 hlineto
            153 0 -76 -71 hvcurveto
            endchar
          </CharString>
          <CharString index="94">
            738 -28 rmoveto
            23 22 -22 22 -9 9 -225 225 rcurveline
            224 225 9 9 22 22 -22 22 rlinecurve
            -23 23 -22 -22 -9 -9 -224 -224 rcurveline
            -225 224 -9 10 -22 22 -23 -23 rlinecurve
            -22 -23 22 -22 9 -9 225 -225 rcurveline
            -225 -225 -9 -9 -22 -22 22 -22 rlinecurve
            23 -23 22 22 9 9 225 225 rcurveline
            225 -225 9 -9 22 -22 22 23 rlinecurve
            return
          </CharString>
          <CharString index="95">
            666 rmoveto
            18 -14 14 -18 -11 -9 -5 -8 -6 vhcurveto
            -473 -646 rlineto
            -4 -5 -2 -7 -7 vvcurveto
            -18 14 -14 18 10 10 5 8 return
          </CharString>
          <CharString index="96">
            185 rmoveto
            -51 hlineto
            -12 -44 rlineto
            -15 -4 -12 -6 -15 hhcurveto
            -185 hlineto
            158 72 rlineto
            61 28 60 28 73 vvcurveto
            131 -177 11 -88 -73 -128 -7 -96 -34 25 -24 32 30 27 21 36 19 -7 9 -10 15 vhcurveto
            6 26 24 4 26 hhcurveto
            55 95 -15 -83 hvcurveto
            -8 -65 -61 -39 -51 -32 -189 -117 rcurveline
            -14 -9 -13 -3 -22 vvcurveto
            -27 448 vlineto
            endchar
          </CharString>
          <CharString index="97">
            214 558 rmoveto
            -102 callsubr
            306 hmoveto
            -102 callsubr
            return
          </CharString>
          <CharString index="98">
            256 vlineto
            119 -72 26 -87 return
          </CharString>
          <CharString index="99">
            -9 4 8 -17 22 hhcurveto
            23 7 16 10 5 hvcurveto
            283 610 rlineto
            1 -587 -108 -49 hlineto
            50 callgsubr
            96 0 40 hhcurveto
            hintmask 10000000
            40 97 21 callgsubr
            return
          </CharString>
          <CharString index="100">
            8 2 0 9 9 hvcurveto
            6 4 22 25 19 16 return
          </CharString>
          <CharString index="101">
            592 -201 40 147 99 68 40 217 40 return
          </CharString>
          <CharString index="102">
            -44 61 89 -10 55 hhcurveto
            169 64 112 103 hvcurveto
            return
          </CharString>
          <CharString index="103">
            -194 rmoveto
            49 -100 145 100 49 -100 407 vlineto
            29 -3 5 -30 -24 0 -1 -14 -12 vhcurveto
            -356 -426 rlineto
            -49 297 -145 -115 vlineto
            hintmask 10000000
            -49 vlineto
            50 callgsubr
            70 callsubr
            hintmask 10100100
            41 89 0 -3 37 hvcurveto
            -216 243 rmoveto
            -252 hlineto
            252 298 rlineto
            endchar
          </CharString>
          <CharString index="104">
            -4 callgsubr
            40 return
          </CharString>
          <CharString index="105">
            49 279 70 callgsubr
            return
          </CharString>
          <CharString index="106">
            329 343 54 callgsubr
            37 -20 hstemhm
            70 173 hintmask 01110000
            46 callsubr
            -15 -109 -85 -140 vhcurveto
            hintmask 10010000
            -71 38 -55 57 50 28 39 39 vhcurveto
            endchar
          </CharString>
          <CharString index="107">
            32 callgsubr
            -499 403 rmoveto
            hintmask 00101111
            -38 callgsubr
            endchar
          </CharString>
          <CharString index="108">
            84 -272 hlineto
            -114 99 -15 62 78 48 56 73 vhcurveto
            return
          </CharString>
          <CharString index="109">
            329 364 103 callsubr
            75 callgsubr
            32 19 17 2 2 vhcurveto
            hintmask 11010000
            -49 callsubr
            15 109 85 140 vhcurveto
            endchar
          </CharString>
          <CharString index="110">
            959 hmoveto
            49 -68 256 vlineto
            118 -71 27 -88 -104 -51 -63 -31 -19 vhcurveto
            90 -22 -88 4 -44 hhcurveto
            -124 115 callsubr
            hvcurveto
            -1 105 hlineto
            -173 -90 callsubr
            -305 117 callgsubr
            205 vlineto
            111 92 45 60 return
          </CharString>
          <CharString index="111">
            228 407 -101 callgsubr
            return
          </CharString>
          <CharString index="112">
            hmoveto
            49 vlineto
            -16 -20 0 1 -11 hvcurveto
            -15 3 -4 4 -9 11 -176 208 rcurveline
            136 102 rlineto
            return
          </CharString>
          <CharString index="113">
            15 callgsubr
            -35 -29 37 41 return
          </CharString>
          <CharString index="114">
            630 hmoveto
            49 -68 -9 callsubr
            return
          </CharString>
          <CharString index="115">
            526 -200 52 60 52 hstemhm
            157 132 -78 104 -26 132 hintmask 01010000
            421 -118 rmoveto
            50 -51 32 -55 vhcurveto
            41 -104 -93 vlineto
            hintmask 10001000
            27 callsubr
            hlineto
            hintmask 10100000
            52 hlineto
            hintmask 00001000
            119 145 0 82 hvcurveto
            endchar
          </CharString>
          <CharString index="116">
            158 hlineto
            159 31 -69 -125 16 hvcurveto
            51 hlineto
            -31 243 rlineto
            -637 -36 callsubr
            462 hlineto
            -34 -27 -21 -34 60 callsubr
            return
          </CharString>
          <CharString index="117">
            -51 hlineto
            -1 -94 -47 -103 -102 -3 rrcurveto
            -40 vlineto
            return
          </CharString>
          <CharString index="118">
            49 344 49 -49 57 return
          </CharString>
          <CharString index="119">
            139 hintmask 00100000
            41 callgsubr
            hintmask 01000000
            -2 -49 -19 -1 -51 hhcurveto
            hintmask 00100000
            -133 74 callgsubr
            24 24 0 -10 26 hvcurveto
            -7 -13 -190 -267 -205 290 rlineto
            83 49 hlineto
            hintmask 01000000
            -3 -36 -105 0 -42 hhcurveto
            return
          </CharString>
          <CharString index="120">
            hmoveto
            49 -145 574 vlineto
            22 0 11 -29 -12 -2 0 -7 -9 vhcurveto
            -57 -77 -107 0 -20 hhcurveto
            -20 -49 20 hlineto
            24 54 3 17 56 hvcurveto
            -514 -143 -49 vlineto
            3 38 121 0 45 hhcurveto
            47 118 0 -3 41 hvcurveto
            endchar
          </CharString>
          <CharString index="121">
            275 -39 rmoveto
            489 vlineto
            -186 -8 rlineto
            -49 vlineto
            return
          </CharString>
          <CharString index="122">
            25 1 3 137 126 hhcurveto
            101 4 -120 -42 2 hvcurveto
            return
          </CharString>
          <CharString index="123">
            7 vlineto
            30 -4 -33 24 -31 hhcurveto
            -49 -7 -52 -35 -13 hvcurveto
            -10 -27 -10 -27 -8 -28 29 -19 rcurveline
            -3 4 4 -4 5 hhcurveto
            5 4 5 3 3 hvcurveto
            25 22 16 14 15 15 16 13 rlinecurve
            19 17 20 18 27 vvcurveto
            return
          </CharString>
          <CharString index="124">
            rmoveto
            -8 28 -10 27 -10 27 rrcurveto
            35 -13 -7 52 -49 hhcurveto
            -31 -33 -24 -30 -4 hvcurveto
            -7 vlineto
            -27 20 -18 19 -17 vhcurveto
            16 -13 15 -15 16 -14 25 -22 rcurveline
            -3 3 4 -5 5 hhcurveto
            5 4 4 3 4 hvcurveto
            return
          </CharString>
          <CharString index="125">
            -24 callgsubr
            endchar
          </CharString>
          <CharString index="126">
            49 597 49 -46 49 return
          </CharString>
          <CharString index="127">
            446 106 callsubr
            return
          </CharString>
          <CharString index="128">
            10 -31 -32 6 -33 hhcurveto
            -88 -95 -17 -75 -60 65 -33 65 106 118 3 66 33 hvcurveto
            -42 80 80 -47 90 hhcurveto
            83 47 89 91 hvcurveto
            -488 -43 rmoveto
            -49 -14 -69 -16 -66 hhcurveto
            -37 -41 8 33 return
          </CharString>
          <CharString index="129">
            -28 callsubr
            -378 hmoveto
            -28 callsubr
            return
          </CharString>
          <CharString index="130">
            912 vlineto
            14 0 30 -30 -31 0 -29 -15 vhcurveto
            -912 35 callgsubr
            return
          </CharString>
          <CharString index="131">
            893 0 49 585 49 -46 49 return
          </CharString>
          <CharString index="132">
            822 339 rmoveto
            return
          </CharString>
          <CharString index="133">
            -20 hstemhm
            43 255 hintmask 01001000
            849 hmoveto
            49 -97 vlineto
            -262 624 rlineto
            27 -11 -15 0 -18 hhcurveto
            -18 -15 0 -27 -11 hvcurveto
            -253 -601 rlineto
            hintmask 00100000
            -7 -16 0 -1 -25 -3 rrcurveto
            return
          </CharString>
          <CharString index="134">
            36 42 0 -30 -30 -90 0 -68 hvcurveto
            -26 -52 return
          </CharString>
          <CharString index="135">
            467 -6 40 283 40 -36 36 60 36 return
          </CharString>
          <CharString index="136">
            305 40 -40 49 -40 40 return
          </CharString>
          <CharString index="137">
            -7 callgsubr
            endchar
          </CharString>
          <CharString index="138">
            -16 callsubr
            123 3 return
          </CharString>
          <CharString index="139">
            -20 -10 -20 -11 -17 -14 -54 -44 rcurveline
            hintmask 10010000
            14 -17 rlineto
            41 49 53 30 51 hhcurveto
            40 29 -17 -20 35 hvcurveto
            -17 29 31 -17 40 hhcurveto
            hintmask 01000000
            25 26 8 10 22 hvcurveto
            return
          </CharString>
          <CharString index="140">
            6 callgsubr
            hstemhm
            150 139 return
          </CharString>
          <CharString index="141">
            362 -200 40 513 40 0 57 return
          </CharString>
          <CharString index="142">
            625 -200 40 555 49 return
          </CharString>
          <CharString index="143">
            49 -49 57 hstemhm
            39 133 125 133 0 117 return
          </CharString>
          <CharString index="144">
            127 -111 111 return
          </CharString>
          <CharString index="145">
            -40 callgsubr
            -3 return
          </CharString>
          <CharString index="146">
            -21 197 -20 return
          </CharString>
          <CharString index="147">
            43 358 49 191 -20 hstemhm
            106 117 return
          </CharString>
          <CharString index="148">
            -87 81 -83 126 171 95 95 118 vhcurveto
            endchar
          </CharString>
          <CharString index="149">
            -25 callsubr
            vhcurveto
            return
          </CharString>
          <CharString index="150">
            -20 141 callsubr
            418 89 callsubr
            return
          </CharString>
          <CharString index="151">
            889 -12 46 566 46 9 43 return
          </CharString>
          <CharString index="152">
            723 0 53 580 53 -49 49 return
          </CharString>
          <CharString index="153">
            243 421 rmoveto
            40 -27 39 -52 -32 -19 -17 -2 -2 vhcurveto
            -25 callsubr
            return
          </CharString>
          <CharString index="154">
            -49 hlineto
            hintmask 01000000
            return
          </CharString>
          <CharString index="155">
            686 130 callgsubr
            hstem
            0 64 return
          </CharString>
          <CharString index="156">
            526 -6 43 373 43 return
          </CharString>
          <CharString index="157">
            329 -23 callsubr
            77 157 hstemhm
            86 156 -122 111 10 callgsubr
            return
          </CharString>
          <CharString index="158">
            8 callgsubr
            588 49 return
          </CharString>
          <CharString index="159">
            78 34 callgsubr
            return
          </CharString>
          <CharString index="160">
            hhcurveto
            145 45 102 20 131 callgsubr
            -237 hlineto
            15 callsubr
            return
          </CharString>
          <CharString index="161">
            0 41 hhcurveto
            41 return
          </CharString>
          <CharString index="162">
            0 49 346 49 167 49 return
          </CharString>
          <CharString index="163">
            -60 callsubr
            49 -108 return
          </CharString>
          <CharString index="164">
            329 106 callsubr
            -49 57 return
          </CharString>
          <CharString index="165">
            924 0 49 283 49 return
          </CharString>
          <CharString index="166">
            -36 callsubr
            hlineto
            3 35 109 0 42 hhcurveto
            47 114 0 -3 41 hvcurveto
            49 -135 return
          </CharString>
          <CharString index="167">
            -39 vvcurveto
            -54 46 -52 72 49 39 29 37 26 vhcurveto
            6 9 -4 13 -8 6 -12 10 -10 5 -6 -8 rrcurveto
            return
          </CharString>
          <CharString index="168">
            hlineto
            -78 -245 rlineto
            -2 -8 -2 -8 -3 vvcurveto
            -19 15 -13 17 23 5 17 12 4 vhcurveto
            85 267 rlineto
            return
          </CharString>
          <CharString index="169">
            855 -6 40 -40 43 174 40 -36 71 callgsubr
            return
          </CharString>
          <CharString index="170">
            hstemhm
            68 130 return
          </CharString>
          <CharString index="171">
            hstemhm
            73 130 -65 117 0 130 -127 130 -19 117 -98 98 0 130 107 98 return
          </CharString>
          <CharString index="172">
            40 -34 127 -6 127 32 -20 hstemhm
            return
          </CharString>
          <CharString index="173">
            hstem
            322 58 132 58 vstem
            512 return
          </CharString>
          <CharString index="174">
            33 callsubr
            76 156 60 157 cntrmask 11100000
            return
          </CharString>
          <CharString index="175">
            hmoveto
            49 vlineto
            -60 -8 0 39 hvcurveto
            return
          </CharString>
          <CharString index="176">
            823 0 143 callsubr
            return
          </CharString>
          <CharString index="177">
            100 0 41 hhcurveto
            return
          </CharString>
          <CharString index="178">
            141 -111 130 -65 142 -40 142 12 142 -141 141 hintmask 1011100001000000
            return
          </CharString>
          <CharString index="179">
            rmoveto
            -28 callsubr
            return
          </CharString>
          <CharString index="180">
            394 172 100 hstem
            40 314 vstem
            354 172 rmoveto
            100 -314 -100 vlineto
            endchar
          </CharString>
          <CharString index="181">
            rmoveto
            47 -38 32 -40 vhcurveto
            hintmask 00001000
            -42 -36 -34 -44 -47 38 -32 40 42 36 34 44 hvcurveto
            return
          </CharString>
          <CharString index="182">
            25 callsubr
            209 -141 150 -237 -238 -140 -151 -208 return
          </CharString>
          <CharString index="183">
            65 callgsubr
            117 return
          </CharString>
          <CharString index="184">
            115 callgsubr
            hintmask 01000000
            return
          </CharString>
          <CharString index="185">
            49 vlineto
            -3 -35 return
          </CharString>
          <CharString index="186">
            329 538 78 -78 157 -78 78 hstemhm
            120 111 -69 111 cntrmask 11100000
            return
          </CharString>
          <CharString index="187">
            vmoveto
            81 callsubr
          </CharString>
          <CharString index="188">
            47 -38 32 -40 -42 -36 -34 -44 -47 38 -32 40 42 36 34 44 vhcurveto
            endchar
          </CharString>
          <CharString index="189">
            49 callsubr
            hstemhm
            39 133 return
          </CharString>
          <CharString index="190">
            855 16 -21 400 49 return
          </CharString>
          <CharString index="191">
            526 0 43 361 40 return
          </CharString>
          <CharString index="192">
            -33 -84 rlineto
            -96 hlineto
            -33 84 rlineto
            109 -134 rmoveto
            -28 -71 -28 71 rlineto
            return
          </CharString>
          <CharString index="193">
            -21 528 128 32 -20 hstem
            return
          </CharString>
          <CharString index="194">
            79 -42 79 -37 callgsubr
            return
          </CharString>
          <CharString index="195">
            -37 -41 -46 37 -33 41 return
          </CharString>
          <CharString index="196">
            133 -110 157 return
          </CharString>
          <CharString index="197">
            924 0 107 callsubr
            return
          </CharString>
          <CharString index="198">
            -37 callgsubr
            158 51 -43 51 86 145 -84 51 -18 51 return
          </CharString>
          <CharString index="199">
            49 hstem
            -26 callgsubr
            333 145 vstem
            881 hmoveto
            49 -108 return
          </CharString>
          <CharString index="200">
            152 hlineto
            79 74 -25 -55 44 hvcurveto
            44 -56 7 -71 -92 vvcurveto
            endchar
          </CharString>
          <CharString index="201">
            611 -12 40 15 150 444 49 return
          </CharString>
          <CharString index="202">
            hlineto
            -6 -6 -4 -6 -2 hvcurveto
            -7 -20 rlineto
            -10 -3 8 -10 10 hhcurveto
            return
          </CharString>
          <CharString index="203">
            hstemhm
            95 156 -142 111 108 37 callsubr
            return
          </CharString>
          <CharString index="204">
            vlineto
            23 5 0 -35 hvcurveto
            -311 31 callsubr
            rlineto
            return
          </CharString>
          <CharString index="205">
            568 27 callgsubr
            return
          </CharString>
          <CharString index="206">
            144 0 82 50 -51 32 -55 hvcurveto
            return
          </CharString>
          <CharString index="207">
            hmoveto
            49 -108 588 108 49 return
          </CharString>
          <CharString index="208">
            hstemhm
            33 133 27 156 62 98 return
          </CharString>
          <CharString index="209">
            -21 165 -20 -37 callgsubr
            return
          </CharString>
          <CharString index="210">
            -21 37 54 callgsubr
            hstemhm
            86 return
          </CharString>
          <CharString index="211">
            73 -21 207 -20 hstemhm
            return
          </CharString>
          <CharString index="212">
            158 140 139 return
          </CharString>
          <CharString index="213">
            0 49 588 49 return
          </CharString>
          <CharString index="214">
            87 callgsubr
            123 callgsubr
            return
          </CharString>
          <CharString index="215">
            1183 21 -21 22 -21 218 64 218 -20 hstemhm
            return
          </CharString>
          <CharString index="216">
            592 531 -21 194 -20 21 -20 hstemhm
            hintmask 00100000
            return
          </CharString>
          <CharString index="217">
            45 78 45 hstem
            -412 58 132 58 vstem
            -222 return
          </CharString>
          <CharString index="218">
            -56 40 323 40 0 40 217 39 67 40 hstemhm
            return
          </CharString>
          <CharString index="219">
            141 9 145 11 141 return
          </CharString>
          <CharString index="220">
            173 -41 114 callsubr
            return
          </CharString>
          <CharString index="221">
            173 -49 173 return
          </CharString>
          <CharString index="222">
            -49 -90 -15 -7 return
          </CharString>
          <CharString index="223">
            446 -206 78 0 78 50 49 588 49 return
          </CharString>
          <CharString index="224">
            -206 45 295 40 -40 43 245 40 hstemhm
            return
          </CharString>
          <CharString index="225">
            -35 -29 37 41 12 hvcurveto
            6 23 16 19 21 11 return
          </CharString>
          <CharString index="226">
            -33 vvcurveto
            -54 46 -52 72 49 39 29 37 26 vhcurveto
            return
          </CharString>
          <CharString index="227">
            141 callsubr
            143 156 143 157 return
          </CharString>
          <CharString index="228">
            -215 66 122 -20 return
          </CharString>
          <CharString index="229">
            77 131 callsubr
            return
          </CharString>
          <CharString index="230">
            -49 vlineto
            120 3 rlineto
            return
          </CharString>
          <CharString index="231">
            -12 45 346 41 42 return
          </CharString>
          <CharString index="232">
            rmoveto
            -223 96 hlineto
            19 0 42 48 31 vhcurveto
            return
          </CharString>
          <CharString index="233">
            hmoveto
            49 -68 405 vlineto
            -179 -5 rlineto
            -5 return
          </CharString>
          <CharString index="234">
            66 157 442 157 return
          </CharString>
          <CharString index="235">
            0 -32 -32 31 0 13 hvcurveto
            return
          </CharString>
          <CharString index="236">
            42 41 57 169 6 vhcurveto
            return
          </CharString>
          <CharString index="237">
            592 512 66 return
          </CharString>
          <CharString index="238">
            142 callgsubr
            hstemhm
            return
          </CharString>
          <CharString index="239">
            114 callsubr
            -41 173 hintmask 01101000
            return
          </CharString>
          <CharString index="240">
            hstemhm
            86 156 -122 111 hintmask 10100100
            return
          </CharString>
          <CharString index="241">
            hlineto
            13 0 31 -32 -32 0 -31 -13 vhcurveto
            return
          </CharString>
          <CharString index="242">
            -50 callgsubr
            vhcurveto
            return
          </CharString>
          <CharString index="243">
            592 -140 40 94 43 376 40 return
          </CharString>
          <CharString index="244">
            893 -12 52 17 52 -4 52 -36 52 return
          </CharString>
          <CharString index="245">
            894 -65 -21 673 -20 hstem
            797 return
          </CharString>
          <CharString index="246">
            0 765 -21 207 -20 hstem
            -110 return
          </CharString>
          <CharString index="247">
            0 128 301 146 32 49 hstemhm
            return
          </CharString>
          <CharString index="248">
            hstemhm
            66 157 return
          </CharString>
          <CharString index="249">
            -21 122 66 return
          </CharString>
          <CharString index="250">
            49 576 49 return
          </CharString>
        <CharString name=".notdef">
          280 endchar
        </CharString>
        <CharString name="A">
          893 0 49 -46 49 140 49 459 -105 callsubr
          endchar
        </CharString>
        <CharString name="AE">
          -46 callsubr
        </CharString>
        <CharString name="AE.dup">
          -46 callsubr
        </CharString>
        <CharString name="AEacute">
          1071 0 49 -46 70 callgsubr
          282 49 67 callgsubr
          495 136 174 51 97 51 -18 51 hintmask 1011001101000000
          1037 276 114 callgsubr
          -22 -18 -101 -183 hhcurveto
          -132 257 64 hlineto
          97 13 -40 -77 hvcurveto
          51 283 -51 hlineto
          -77 -12 -40 -98 vhcurveto
          -64 282 128 hlineto
          hintmask 0101000010000000
          163 16 -81 -113 15 hvcurveto
          51 hlineto
          -31 243 rlineto
          -652 -49 75 hlineto
          -246 -566 -6 -14 -1 -2 -26 -3 rlinecurve
          hintmask 1000000000000000
          -3 -24 -1 0 -28 hhcurveto
          -21 -49 hlineto
          hintmask 0100000000000000
          2 56 13 1 53 hhcurveto
          hintmask 1011001001000000
          134 -3 rlineto
          49 vlineto
          -28 -33 0 11 -28 hvcurveto
          106 246 rlineto
          179 -257 -81 -49 576 hlineto
          -495 355 rmoveto
          -157 hlineto
          122 282 rlineto
          35 hlineto
          hintmask 0000110000000000
          200 200 -102 callgsubr
        </CharString>
        <CharString name="Aacute">
          -47 callsubr
          81 -21 171 -103 callgsubr
          203 316 -102 callgsubr
        </CharString>
        <CharString name="Abreve">
          -47 callsubr
          60 66 122 -103 callgsubr
          4 callsubr
          endchar
        </CharString>
        <CharString name="Abreveacute">
          -47 callsubr
          60 66 328 -103 callgsubr
          4 callsubr
          -66 132 -102 callgsubr
        </CharString>
        <CharString name="Abrevedotbelow">
          -47 callsubr
          60 66 122 -20 hstemhm
          368 156 hintmask 10010000
          849 hmoveto
          49 -97 vlineto
          -262 624 rlineto
          27 -11 -15 0 -18 hhcurveto
          -18 -15 0 -27 -11 hvcurveto
          -253 -601 rlineto
          hintmask 01000000
          -7 -16 0 -1 -25 -3 rrcurveto
          hintmask 10000000
          103 callgsubr
          hintmask 01000000
          2 56 13 1 53 hhcurveto
          hintmask 10100000
          39 32 0 -3 62 hvcurveto
          49 vlineto
          -27 -34 0 11 -28 hvcurveto
          55 132 rlineto
          277 hlineto
          60 -143 rlineto
          -94 -49 hlineto
          50 callgsubr
          101 0 41 hhcurveto
          hintmask 10101100
          42 85 0 -3 38 hvcurveto
          -329 241 rmoveto
          -235 hlineto
          118 280 rlineto
          4 callsubr
          hintmask 00000010
          -107 -1050 -101 callsubr
        </CharString>
        <CharString name="Abrevegrave">
          -47 callsubr
          60 66 122 -103 callgsubr
          4 callsubr
          -64 80 rmoveto
          -24 -45 -168 51 -15 5 -26 8 -6 33 rlinecurve
          38 -8 29 36 39 hhcurveto
          17 12 -10 -21 28 hvcurveto
          endchar
        </CharString>
        <CharString name="Abrevehookabove">
          -47 callsubr
          60 66 330 -103 callgsubr
          4 callsubr
          -69 144 -107 callgsubr
        </CharString>
        <CharString name="Abrevetilde">
          -47 callsubr
          60 66 177 79 -42 79 -106 callgsubr
          hintmask 00001010
          4 callsubr
          12 143 rmoveto
          -29 28 rlineto
          hintmask 00000100
          -83 callgsubr
          hintmask 00000010
          -87 callgsubr
          hintmask 00000100
          29 -28 rlineto
          hintmask 00000010
          -83 callsubr
          hintmask 00000100
          -85 callgsubr
        </CharString>
        <CharString name="Acaron">
          -47 callsubr
          71 -21 165 -76 callsubr
          350 -62 callsubr
        </CharString>
        <CharString name="Acircumflex">
          -47 callsubr
          71 -21 165 -76 callsubr
          233 -57 callsubr
        </CharString>
        <CharString name="Acircumflexacute">
          -47 callsubr
          71 -21 371 -76 callsubr
          233 -68 callgsubr
        </CharString>
        <CharString name="Acircumflexdotbelow">
          -47 callsubr
          71 -21 165 -20 hstemhm
          368 156 hintmask 10010000
          849 hmoveto
          49 -97 vlineto
          -262 624 rlineto
          27 -11 -15 0 -18 hhcurveto
          -18 -15 0 -27 -11 hvcurveto
          -253 -601 rlineto
          hintmask 01000000
          -7 -16 0 -1 -25 -3 rrcurveto
          hintmask 10000000
          103 callgsubr
          hintmask 01000000
          2 56 13 1 53 hhcurveto
          hintmask 10100000
          39 32 0 -3 62 hvcurveto
          49 vlineto
          -27 -34 0 11 -28 hvcurveto
          55 132 rlineto
          277 hlineto
          60 -143 rlineto
          -94 -49 hlineto
          50 callgsubr
          101 0 41 hhcurveto
          hintmask 10101100
          42 85 0 -3 38 hvcurveto
          -329 241 rmoveto
          -235 hlineto
          118 280 rlineto
          219 233 -94 callsubr
          hintmask 00000010
          -82 -852 -101 callsubr
        </CharString>
        <CharString name="Acircumflexgrave">
          -47 callsubr
          71 -21 165 -76 callsubr
          233 -73 callsubr
        </CharString>
        <CharString name="Acircumflexhookabove">
          -47 callsubr
          71 -21 373 -76 callsubr
          233 -94 callsubr
          71 309 -107 callgsubr
        </CharString>
        <CharString name="Acircumflextilde">
          -47 callsubr
          71 -21 220 79 -42 79 -106 callgsubr
          hintmask 00001010
          219 233 -94 callsubr
          38 308 rmoveto
          -29 28 rlineto
          hintmask 00000100
          -83 callgsubr
          hintmask 00000010
          -87 callgsubr
          hintmask 00000100
          29 -28 rlineto
          hintmask 00000010
          -83 callsubr
          hintmask 00000100
          -85 callgsubr
        </CharString>
        <CharString name="Adblgrave">
          -47 callsubr
          81 -21 197 -103 callgsubr
          164 248 -93 callgsubr
        </CharString>
        <CharString name="Adieresis">
          -47 callsubr
          50 141 hstemhm
          224 38 callgsubr
          -107 callsubr
          hintmask 00001110
          -38 279 -78 callsubr
        </CharString>
        <CharString name="Adotbelow">
          -47 callsubr
          hstemhm
          368 156 -107 callsubr
          hintmask 00001000
          121 -643 -101 callsubr
        </CharString>
        <CharString name="Agrave">
          -47 callsubr
          81 -21 171 -103 callgsubr
          124 264 -74 callsubr
        </CharString>
        <CharString name="Ahookabove">
          -47 callsubr
          83 -21 193 -103 callgsubr
          159 350 -107 callgsubr
        </CharString>
        <CharString name="Alpha">
          893 0 49 -46 49 140 49 459 -105 callsubr
          endchar
        </CharString>
        <CharString name="Amacron">
          -47 callsubr
          70 55 -106 callgsubr
          hintmask 00001000
          257 229 -35 callgsubr
        </CharString>
        <CharString name="Aogonek">
          893 -206 78 128 -41 callsubr
          26 callsubr
          hintmask 01000100
          90 callgsubr
          hintmask 01010100
          39 32 0 -3 62 hvcurveto
          49 vlineto
          -27 -34 0 11 -28 hvcurveto
          55 132 rlineto
          277 hlineto
          60 -143 rlineto
          -94 -49 hlineto
          hintmask 10100000
          2 28 70 1 48 hhcurveto
          -36 -29 -18 -35 -39 -65 callgsubr
          -50 -46 78 53 76 hvcurveto
          hintmask 01010000
          42 52 -1 -2 27 hvcurveto
          -329 241 rmoveto
          -235 hlineto
          118 280 rlineto
          endchar
        </CharString>
        <CharString name="Aogonekacute">
          893 -206 78 128 -41 callsubr
          -20 81 -21 171 26 callsubr
          hintmask 01000001
          90 callgsubr
          hintmask 01010001
          39 32 0 -3 62 hvcurveto
          49 vlineto
          -27 -34 0 11 -28 hvcurveto
          55 132 rlineto
          277 hlineto
          60 -143 rlineto
          -94 -49 hlineto
          hintmask 10100000
          2 28 70 1 48 hhcurveto
          -36 -29 -18 -35 -39 -65 callgsubr
          -50 -46 78 53 76 hvcurveto
          hintmask 01010000
          42 52 -1 -2 27 hvcurveto
          -329 241 rmoveto
          -235 hlineto
          118 280 rlineto
          hintmask 00000110
          203 316 -102 callgsubr
        </CharString>
        <CharString name="Aring">
          -55 callsubr
          45 78 45 hstemhm
          322 58 132 58 -107 callsubr
          hintmask 00011110
          109 263 -58 callgsubr
        </CharString>
        <CharString name="Aringacute">
          -55 callsubr
          45 78 45 35 45 126 -20 hstemhm
          322 58 132 58 hintmask 1001000000000000
          849 hmoveto
          49 -97 vlineto
          -262 624 rlineto
          27 -11 -15 0 -18 hhcurveto
          -18 -15 0 -27 -11 hvcurveto
          -253 -601 rlineto
          hintmask 0100000000000000
          -7 -16 0 -1 -25 -3 rrcurveto
          hintmask 1000000000000000
          103 callgsubr
          hintmask 0100000000000000
          2 56 13 1 53 hhcurveto
          hintmask 1010000000000000
          39 32 0 -3 62 hvcurveto
          49 vlineto
          -27 -34 0 11 -28 hvcurveto
          55 132 rlineto
          277 hlineto
          60 -143 rlineto
          -94 -49 hlineto
          hintmask 0100000000000000
          3 35 101 0 41 hhcurveto
          hintmask 1010000000000000
          42 85 0 -3 38 hvcurveto
          -329 241 rmoveto
          -235 hlineto
          118 280 rlineto
          hintmask 0001111110000000
          109 263 -81 callgsubr
          -5 217 -102 callgsubr
        </CharString>
        <CharString name="Atilde">
          -47 callsubr
          50 79 -42 79 -106 callgsubr
          hintmask 00000100
          240 297 rmoveto
          -29 28 rlineto
          hintmask 00001000
          -83 callgsubr
          hintmask 00000100
          -87 callgsubr
          hintmask 00001000
          29 -28 rlineto
          hintmask 00000100
          -83 callsubr
          hintmask 00001000
          -85 callgsubr
        </CharString>
        <CharString name="B">
          -31 callgsubr
        </CharString>
        <CharString name="Beta">
          -31 callgsubr
        </CharString>
        <CharString name="C">
          58 callgsubr
          hstem
          66 157 515 50 vstem
          -86 callsubr
          -198 148 -157 265 188 121 120 120 hvcurveto
          endchar
        </CharString>
        <CharString name="Cacute">
          58 callgsubr
          63 -21 171 -20 141 callsubr
          515 50 hintmask 11001100
          -86 callsubr
          -198 148 -157 265 188 121 120 120 hvcurveto
          hintmask 00110000
          -159 609 -102 callgsubr
        </CharString>
        <CharString name="Ccaron">
          58 callgsubr
          53 -21 165 -20 141 callsubr
          515 50 hintmask 11001100
          -86 callsubr
          -198 148 -157 265 188 121 120 120 hvcurveto
          hintmask 00110000
          -143 643 -62 callsubr
        </CharString>
        <CharString name="Ccedilla">
          58 callgsubr
          hstem
          66 157 515 50 vstem
          -86 callsubr
          -182 125 -148 227 -22 hvcurveto
          -79 vlineto
          27 callsubr
          52 hlineto
          120 99 callsubr
          26 vlineto
          163 17 103 110 111 vvcurveto
          endchar
        </CharString>
        <CharString name="Ccircumflex">
          58 callgsubr
          53 -21 165 -20 141 callsubr
          515 50 hintmask 11001100
          -86 callsubr
          -198 148 -157 265 188 121 120 120 hvcurveto
          hintmask 00110000
          -143 526 -57 callsubr
        </CharString>
        <CharString name="Cdotaccent">
          58 callgsubr
          44 157 141 callsubr
          169 156 190 50 hintmask 11010100
          -86 callsubr
          -198 148 -157 265 188 121 120 120 hvcurveto
          hintmask 00101000
          -240 592 -101 callsubr
        </CharString>
        <CharString name="Chi">
          -53 callsubr
        </CharString>
        <CharString name="D">
          907 0 49 588 89 callgsubr
          400 151 vstem
          -52 callgsubr
          endchar
        </CharString>
        <CharString name="Dcaron">
          907 106 callsubr
          78 callgsubr
          150 139 400 151 hintmask 11001100
          -52 callgsubr
          hintmask 00110000
          -149 533 -62 callsubr
        </CharString>
        <CharString name="Dcroat">
          -18 callgsubr
        </CharString>
        <CharString name="Ddotbelow">
          907 106 callsubr
          hstemhm
          150 139 -2 156 246 151 hintmask 11101000
          -52 callgsubr
          hintmask 00010000
          -246 -460 -101 callsubr
        </CharString>
        <CharString name="Delta">
          986 0 124 576 -20 hstem
          925 13 rmoveto
          0 0 4 -7 12 vhcurveto
          -376 645 rlineto
          26 -15 -13 0 -22 hhcurveto
          -18 -16 0 -24 -14 hvcurveto
          -377 -647 rlineto
          -7 -12 0 -4 0 vvcurveto
          -13 12 0 15 vhcurveto
          811 hlineto
          15 12 0 13 hvcurveto
          -230 111 rmoveto
          -505 hlineto
          253 432 rlineto
          endchar
        </CharString>
        <CharString name="Dlinebelow">
          907 -148 55 93 49 588 49 hstemhm
          150 139 400 151 hintmask 01111000
          -52 callgsubr
          hintmask 10000000
          -111 -486 -35 callgsubr
        </CharString>
        <CharString name="E">
          -17 callsubr
        </CharString>
        <CharString name="Eacute">
          -27 callsubr
          81 -21 171 -20 -96 callsubr
          hintmask 0001100000000000
          -149 837 -102 callgsubr
        </CharString>
        <CharString name="Ebreve">
          -27 callsubr
          60 66 122 -20 -96 callsubr
          hintmask 0001100000000000
          -124 928 -101 callgsubr
          endchar
        </CharString>
        <CharString name="Ecaron">
          77 callgsubr
          165 -20 -96 callsubr
          hintmask 0001100000000000
          -133 871 -62 callsubr
        </CharString>
        <CharString name="Ecircumflex">
          77 callgsubr
          165 -30 callsubr
          endchar
        </CharString>
        <CharString name="Ecircumflexacute">
          77 callgsubr
          371 -30 callsubr
          -40 297 rmoveto
          38 8 -29 36 -39 hhcurveto
          -17 -13 -10 -21 -27 hvcurveto
          -122 -95 24 -45 168 51 15 5 26 8 6 33 rlinecurve
          endchar
        </CharString>
        <CharString name="Ecircumflexdotbelow">
          77 callgsubr
          165 -20 hstemhm
          150 145 15 156 -5 51 147 51 -18 51 hintmask 1110010101000000
          743 276 rmoveto
          -51 hlineto
          -128 -22 -22 -99 -194 hhcurveto
          -159 279 58 hlineto
          98 10 -44 -73 hvcurveto
          51 283 -51 hlineto
          -73 -9 -44 -99 vhcurveto
          -58 254 158 hlineto
          hintmask 1010010010000000
          159 31 -69 -125 16 hvcurveto
          51 hlineto
          -31 243 rlineto
          -637 -36 callsubr
          654 hlineto
          hintmask 0001100001000000
          -133 80 callgsubr
          hintmask 0000001000000000
          -81 -852 -101 callsubr
        </CharString>
        <CharString name="Ecircumflexgrave">
          77 callgsubr
          165 -30 callsubr
          -38 245 rmoveto
          -24 -45 -168 51 -15 5 -26 8 -6 33 rlinecurve
          38 -8 29 36 39 hhcurveto
          17 12 -10 -21 28 hvcurveto
          endchar
        </CharString>
        <CharString name="Ecircumflexhookabove">
          77 callgsubr
          373 -30 callsubr
          71 309 -107 callgsubr
        </CharString>
        <CharString name="Ecircumflextilde">
          77 callgsubr
          220 87 callsubr
          166 51 147 51 -18 51 hintmask 1110001101000000
          743 276 rmoveto
          -51 hlineto
          -128 -22 -22 -99 -194 hhcurveto
          -159 279 58 hlineto
          98 10 -44 -73 hvcurveto
          51 283 -51 hlineto
          -73 -9 -44 -99 vhcurveto
          -58 254 158 hlineto
          hintmask 1010001010000000
          159 31 -69 -125 16 hvcurveto
          51 hlineto
          -31 243 rlineto
          -637 -36 callsubr
          654 hlineto
          hintmask 0000000001000000
          hintmask 0001010000000000
          -133 80 callgsubr
          38 308 rmoveto
          -29 28 rlineto
          hintmask 0000100000000000
          -83 callgsubr
          hintmask 0000010000000000
          -87 callgsubr
          hintmask 0000100000000000
          29 -28 rlineto
          hintmask 0000010000000000
          -83 callsubr
          hintmask 0000100000000000
          -85 callgsubr
        </CharString>
        <CharString name="Edblgrave">
          -27 callsubr
          81 -21 197 -20 -96 callsubr
          hintmask 0001100000000000
          -155 769 -93 callgsubr
        </CharString>
        <CharString name="Edieresis">
          -27 callsubr
          50 141 -37 callgsubr
          -130 141 155 51 -41 141 47 51 -18 51 hintmask 1110101001000000
          743 276 rmoveto
          -51 hlineto
          -128 -22 -22 -99 -194 hhcurveto
          -159 279 58 hlineto
          98 10 -44 -73 hvcurveto
          51 283 -51 hlineto
          -73 -9 -44 -99 vhcurveto
          -58 254 158 hlineto
          hintmask 1010100010000000
          159 31 -69 -125 16 hvcurveto
          51 hlineto
          -31 243 rlineto
          -637 -36 callsubr
          654 hlineto
          hintmask 0000000001000000
          hintmask 0001010100000000
          -390 800 -78 callsubr
        </CharString>
        <CharString name="Edotaccent">
          -27 callsubr
          62 157 -37 callgsubr
          15 156 -5 51 147 51 -18 51 hintmask 1110101010000000
          743 276 rmoveto
          -51 hlineto
          -128 -22 -22 -99 -194 hhcurveto
          -159 279 58 hlineto
          98 10 -44 -73 hvcurveto
          51 283 -51 hlineto
          -73 -9 -44 -99 vhcurveto
          -58 254 158 hlineto
          hintmask 1010100100000000
          159 31 -69 -125 16 hvcurveto
          51 hlineto
          -31 243 rlineto
          -637 -36 callsubr
          654 hlineto
          hintmask 0000000010000000
          hintmask 0001010000000000
          -230 820 -101 callsubr
        </CharString>
        <CharString name="Edotbelow">
          -27 callsubr
          -37 callgsubr
          15 156 -5 51 147 51 -18 51 hintmask 11110101
          743 276 rmoveto
          -51 hlineto
          -128 -22 -22 -99 -194 hhcurveto
          -159 279 58 hlineto
          98 10 -44 -73 hvcurveto
          51 283 -51 hlineto
          -73 -9 -44 -99 vhcurveto
          -58 254 158 hlineto
          hintmask 10110010
          159 31 -69 -125 16 hvcurveto
          51 hlineto
          -31 243 rlineto
          -637 -36 callsubr
          654 hlineto
          hintmask 00000001
          hintmask 00001000
          -230 -122 -101 callsubr
        </CharString>
        <CharString name="Egrave">
          -27 callsubr
          81 -21 171 -20 -96 callsubr
          hintmask 0001100000000000
          -228 785 -74 callsubr
        </CharString>
        <CharString name="Ehookabove">
          -27 callsubr
          83 -21 193 -20 -96 callsubr
          hintmask 0001100000000000
          -193 871 -107 callgsubr
        </CharString>
        <CharString name="Emacron">
          -27 callsubr
          70 122 callgsubr
          166 51 147 51 -18 51 hintmask 11101101
          743 276 rmoveto
          -51 hlineto
          -128 -22 -22 -99 -194 hhcurveto
          -159 279 58 hlineto
          98 10 -44 -73 hvcurveto
          51 283 -51 hlineto
          -73 -9 -44 -99 vhcurveto
          -58 254 158 hlineto
          hintmask 10101010
          159 31 -69 -125 16 hvcurveto
          51 hlineto
          -31 243 rlineto
          -637 -36 callsubr
          654 hlineto
          hintmask 00000001
          hintmask 00010000
          -95 750 -35 callgsubr
        </CharString>
        <CharString name="Eng">
          924 -12 130 516 52 -40 52 -37 callgsubr
          404 158 hintmask 00100000
          857 343 rmoveto
          195 -155 160 -194 vhcurveto
          hintmask 01010000
          -79 -77 -23 -41 -57 hvcurveto
          52 vlineto
          -2 -24 -24 -1 -24 hhcurveto
          -42 -109 0 3 -35 hvcurveto
          -49 113 -588 -113 -49 vlineto
          -15 callgsubr
          -1 callgsubr
          49 -113 521 vlineto
          hintmask 10101000
          49 49 81 27 83 hhcurveto
          132 59 -153 -150 -92 0 -107 -26 -59 hvcurveto
          20 -11 -21 13 -25 hhcurveto
          -36 -29 -29 -36 -36 29 -29 36 159 82 177 178 hvcurveto
          endchar
        </CharString>
        <CharString name="Eogonek">
          777 -206 78 128 -2 callsubr
          91 callsubr
          hintmask 0111101001000000
          743 276 rmoveto
          -51 hlineto
          -128 -22 -22 -99 -194 hhcurveto
          -159 279 58 hlineto
          98 10 -44 -73 hvcurveto
          51 283 -51 hlineto
          -73 -9 -44 -99 vhcurveto
          -58 254 hlineto
          hintmask 1101110010000000
          9 callsubr
          hintmask 1100000100000000
          104 callgsubr
          -13 92 36 44 hvcurveto
          117 hlineto
          endchar
        </CharString>
        <CharString name="Eogonekacute">
          777 -206 78 128 -2 callsubr
          81 -21 171 -20 91 callsubr
          hintmask 0111001010010000
          743 276 rmoveto
          -51 hlineto
          -128 -22 -22 -99 -194 hhcurveto
          -159 279 58 hlineto
          98 10 -44 -73 hvcurveto
          51 283 -51 hlineto
          -73 -9 -44 -99 vhcurveto
          -58 254 hlineto
          hintmask 1101001100100000
          9 callsubr
          hintmask 1100000001000000
          104 callgsubr
          -13 92 36 44 hvcurveto
          117 hlineto
          hintmask 0000110000000000
          -149 837 -102 callgsubr
        </CharString>
        <CharString name="Epsilon">
          -17 callsubr
        </CharString>
        <CharString name="Ereversed">
          -27 callsubr
          hstemhm
          42 51 -18 51 147 51 166 145 hintmask 11101110
          743 hmoveto
          49 -108 582 108 49 -637 vlineto
          -31 -243 rlineto
          51 hlineto
          125 16 31 69 159 hhcurveto
          158 -254 -58 hlineto
          -99 -9 44 73 hvcurveto
          -51 -283 51 hlineto
          73 10 44 98 vhcurveto
          58 -279 -159 hlineto
          hintmask 10010000
          -194 -22 99 128 -22 hvcurveto
          -51 hlineto
          47 -276 rlineto
          endchar
        </CharString>
        <CharString name="Eta">
          924 0 49 283 49 256 49 hstem
          150 145 333 145 vstem
          -89 callsubr
          endchar
        </CharString>
        <CharString name="Eth">
          -18 callgsubr
        </CharString>
        <CharString name="Etilde">
          -27 callsubr
          50 79 -42 79 -96 callsubr
          hintmask 0000100000000000
          -112 818 rmoveto
          -29 28 rlineto
          hintmask 0001000000000000
          -83 callgsubr
          hintmask 0000100000000000
          -87 callgsubr
          hintmask 0001000000000000
          29 -28 rlineto
          hintmask 0000100000000000
          -83 callsubr
          hintmask 0001000000000000
          -85 callgsubr
        </CharString>
        <CharString name="Euro">
          741 -12 50 214 50 82 50 214 50 hstem
          132 158 vstem
          675 3 rmoveto
          136 vlineto
          8 -7 7 -8 vhcurveto
          -28 hlineto
          -8 -6 -6 -7 -1 hvcurveto
          -59 -8 -52 -44 -61 hhcurveto
          -63 -62 27 52 -36 hvcurveto
          -27 40 -11 47 -4 48 rrcurveto
          247 hlineto
          7 6 4 6 2 hvcurveto
          7 25 rlineto
          8 2 -8 7 -9 hhcurveto
          -257 41 hlineto
          41 293 vlineto
          7 6 4 6 1 hvcurveto
          8 25 rlineto
          8 2 -8 7 -9 hhcurveto
          -297 hlineto
          4 48 11 47 27 40 rrcurveto
          52 36 62 27 63 hhcurveto
          61 52 -43 -60 8 hvcurveto
          -7 1 6 -6 8 hhcurveto
          28 hlineto
          8 7 7 8 hvcurveto
          136 vlineto
          8 -7 7 -8 vhcurveto
          -8 hlineto
          -3 -3 -1 -1 -2 hvcurveto
          -49 -31 rlineto
          22 -35 -43 11 -44 hhcurveto
          -93 -91 -31 -66 -64 hvcurveto
          -44 -47 -27 -58 -13 -62 rrcurveto
          -57 95 callsubr
          56 hlineto
          -1 -14 -1 -13 -14 vvcurveto
          -14 1 -13 1 -14 vhcurveto
          -50 95 callsubr
          63 hlineto
          13 -62 27 -58 44 -47 rrcurveto
          -66 64 91 -31 93 hhcurveto
          44 43 12 21 35 hvcurveto
          49 -31 rlineto
          -1 2 3 -1 3 hhcurveto
          8 hlineto
          8 7 7 8 hvcurveto
          endchar
        </CharString>
        <CharString name="F">
          744 0 49 267 49 266 49 hstem
          -26 callgsubr
          160 51 137 51 vstem
          694 437 rmoveto
          -31 243 rlineto
          -621 59 callsubr
          267 54 vlineto
          97 9 -43 -74 hvcurveto
          51 283 -51 hlineto
          -74 -9 -43 -97 vhcurveto
          -54 266 147 hlineto
          161 25 -75 -119 15 hvcurveto
          endchar
        </CharString>
        <CharString name="G">
          930 -12 48 callgsubr
          hintmask 10111100
          -95 callsubr
          hintmask 01100100
          -42 callgsubr
          endchar
        </CharString>
        <CharString name="Gacute">
          19 callgsubr
          63 -21 171 -20 141 callsubr
          420 145 hintmask 10110011
          -95 callsubr
          hintmask 01100001
          -42 callgsubr
          hintmask 00001100
          -164 609 -102 callgsubr
        </CharString>
        <CharString name="Gamma">
          711 0 49 582 49 hstem
          -26 callgsubr
          vstem
          661 437 rmoveto
          -31 243 rlineto
          -588 59 callsubr
          582 121 vlineto
          163 16 -80 -114 15 hvcurveto
          endchar
        </CharString>
        <CharString name="Gbreve">
          19 callgsubr
          42 66 122 -20 141 callsubr
          420 145 hintmask 10110011
          -95 callsubr
          hintmask 01100001
          -42 callgsubr
          hintmask 00001100
          -139 700 -101 callgsubr
          endchar
        </CharString>
        <CharString name="Gcaron">
          19 callgsubr
          53 -21 165 -20 141 callsubr
          420 145 hintmask 10110011
          -95 callsubr
          hintmask 01100001
          -42 callgsubr
          hintmask 00001100
          -148 643 -62 callsubr
        </CharString>
        <CharString name="Gcedilla">
          930 -15 callsubr
          24 48 callgsubr
          hintmask 00101111
          -95 callsubr
          hintmask 11011001
          -42 callgsubr
          -259 -358 -98 callgsubr
        </CharString>
        <CharString name="Gcircumflex">
          19 callgsubr
          53 -21 165 -20 141 callsubr
          420 145 hintmask 10110011
          -95 callsubr
          hintmask 01100001
          -42 callgsubr
          hintmask 00001100
          -148 526 -57 callsubr
        </CharString>
        <CharString name="Gcommaaccent">
          930 -15 callsubr
          24 48 callgsubr
          hintmask 00101111
          -95 callsubr
          hintmask 00011001
          -42 callgsubr
          hintmask 11000000
          -259 -358 -98 callgsubr
        </CharString>
        <CharString name="Gdotaccent">
          19 callgsubr
          44 157 141 callsubr
          164 156 100 145 hintmask 10110101
          -95 callsubr
          hintmask 01100001
          -42 callgsubr
          hintmask 00001010
          -245 592 -101 callsubr
        </CharString>
        <CharString name="H">
          924 0 49 283 49 256 49 hstem
          150 145 333 145 vstem
          -89 callsubr
          endchar
        </CharString>
        <CharString name="H_uni0303">
          66 callgsubr
          44 87 callsubr
          333 145 hintmask 11100110
          -89 callsubr
          hintmask 00001000
          -223 818 -90 callgsubr
        </CharString>
        <CharString name="Hbar">
          58 callsubr
          109 50 97 92 callsubr
          441 108 50 -108 97 108 78 callsubr
          -104 0 -41 hhcurveto
          -41 -105 0 3 -35 hvcurveto
          -49 108 -97 -333 97 108 78 callsubr
          -104 0 -41 hhcurveto
          -41 -105 0 3 -35 hvcurveto
          -49 108 -97 -108 -50 108 -441 -56 callsubr
          283 333 -283 -64 callsubr
          -253 381 rmoveto
          -333 109 333 hlineto
          endchar
        </CharString>
        <CharString name="Hbrevebelow">
          924 121 callsubr
          47 49 283 49 256 49 -37 callgsubr
          333 145 hintmask 00111110
          -89 callsubr
          hintmask 11000000
          -235 -27 -101 callgsubr
          endchar
        </CharString>
        <CharString name="Hcircumflex">
          66 callgsubr
          49 callgsubr
          333 145 hintmask 11100110
          -89 callsubr
          hintmask 00011000
          -244 73 callgsubr
        </CharString>
        <CharString name="Hdieresis">
          66 callgsubr
          44 141 -37 callgsubr
          -56 38 callgsubr
          -58 145 hintmask 11101001
          -89 callsubr
          hintmask 00010110
          -501 800 -78 callsubr
        </CharString>
        <CharString name="Hdotbelow">
          66 callgsubr
          -37 callgsubr
          89 156 88 145 hintmask 11110100
          -89 callsubr
          hintmask 00001000
          -341 -122 -101 callsubr
        </CharString>
        <CharString name="I">
          20 callsubr
          hstem
          -26 callgsubr
          vstem
          -92 callgsubr
          endchar
        </CharString>
        <CharString name="I_J">
          1012 -12 40 -28 49 -49 150 -147 40 0 150 444 49 -37 callgsubr
          130 105 callsubr
          hintmask 0100011000000000
          408 hmoveto
          49 -113 588 113 78 callsubr
          -108 0 -42 hhcurveto
          -42 -109 0 3 -35 hvcurveto
          -49 113 -588 -113 -49 vlineto
          hintmask 0001000000000000
          -15 callgsubr
          hintmask 0100010110000000
          -1 callgsubr
          535 38 callsubr
          -41 -78 0 -44 hhcurveto
          -45 -114 0 3 -38 hvcurveto
          -49 140 -488 vlineto
          hintmask 1000100100000000
          -83 -40 -38 -62 -20 -33 4 11 -28 vhcurveto
          33 17 10 31 23 vvcurveto
          49 -36 30 -43 -41 -38 -28 -52 -74 76 -51 124 vhcurveto
          hintmask 0010010010000000
          143 94 60 102 hvcurveto
          487 vlineto
          endchar
        </CharString>
        <CharString name="Iacute">
          20 callsubr
          75 -21 171 -20 -80 callsubr
          hintmask 00110000
          -26 837 -102 callgsubr
        </CharString>
        <CharString name="Ibreve">
          20 callsubr
          54 66 122 -20 -80 callsubr
          hintmask 00110000
          -1 928 -101 callgsubr
          endchar
        </CharString>
        <CharString name="Icaron">
          20 callsubr
          65 -21 165 -20 -80 callsubr
          hintmask 00110000
          -10 871 -62 callsubr
        </CharString>
        <CharString name="Icircumflex">
          20 callsubr
          65 -21 165 -20 -80 callsubr
          hintmask 00110000
          -10 73 callgsubr
        </CharString>
        <CharString name="Idblgrave">
          20 callsubr
          75 -21 197 -20 -80 callsubr
          hintmask 00110000
          -32 769 -93 callgsubr
        </CharString>
        <CharString name="Idieresis">
          20 callsubr
          44 141 hstemhm
          0 112 callsubr
          hintmask 11001000
          -92 callgsubr
          hintmask 00110100
          -267 800 -78 callsubr
        </CharString>
        <CharString name="Idieresisacute">
          20 callsubr
          44 141 67 callgsubr
          0 112 callsubr
          hintmask 11000010
          -92 callgsubr
          hintmask 00111101
          -267 800 rmoveto
          -102 callsubr
          306 hmoveto
          -102 callsubr
          -65 222 -102 callgsubr
        </CharString>
        <CharString name="Idotaccent">
          20 callsubr
          56 157 hstemhm
          145 156 -151 -74 callgsubr
          hintmask 00110000
          -107 820 -101 callsubr
        </CharString>
        <CharString name="Idotbelow">
          20 callsubr
          hstemhm
          145 156 -151 145 hintmask 11010000
          -92 callgsubr
          hintmask 00100000
          -107 -122 -101 callsubr
        </CharString>
        <CharString name="Igrave">
          20 callsubr
          75 -21 171 -20 -80 callsubr
          hintmask 00110000
          -105 785 -74 callsubr
        </CharString>
        <CharString name="Ihookabove">
          20 callsubr
          77 -21 193 -20 -80 callsubr
          hintmask 00111000
          -70 871 -107 callgsubr
        </CharString>
        <CharString name="Imacron">
          20 callsubr
          64 122 callgsubr
          hintmask 11010000
          -92 callgsubr
          hintmask 00100000
          28 750 -35 callgsubr
        </CharString>
        <CharString name="Imacron.alt">
          20 callsubr
          64 122 callgsubr
          hintmask 11010000
          -92 callgsubr
          hintmask 00100000
          -71 750 36 callgsubr
        </CharString>
        <CharString name="Iogonek">
          116 callsubr
          -37 callgsubr
          hintmask 10111000
          408 hmoveto
          49 -113 588 113 78 callsubr
          -108 0 -42 hhcurveto
          -42 -109 0 3 -35 hvcurveto
          -49 113 -588 -113 -49 vlineto
          -15 callgsubr
          7 hlineto
          -30 -29 -26 -41 -33 -65 callgsubr
          hintmask 01100000
          118 callsubr
          38 -1 39 0 18 -2 rrcurveto
          endchar
        </CharString>
        <CharString name="Iogonekacute">
          116 callsubr
          140 callgsubr
          hintmask 10110010
          408 hmoveto
          49 -113 588 113 78 callsubr
          -108 0 -42 hhcurveto
          -42 -109 0 3 -35 hvcurveto
          -49 113 -588 -113 -49 vlineto
          -15 callgsubr
          7 hlineto
          -30 -29 -26 -41 -33 -65 callgsubr
          hintmask 01100000
          118 callsubr
          38 -1 39 0 18 -2 rrcurveto
          hintmask 00001100
          -26 837 -102 callgsubr
        </CharString>
        <CharString name="Iota">
          20 callsubr
          hstem
          -26 callgsubr
          vstem
          -92 callgsubr
          endchar
        </CharString>
        <CharString name="Itilde">
          20 callsubr
          44 79 -42 79 -80 callsubr
          hintmask 00010000
          11 818 rmoveto
          -29 28 rlineto
          hintmask 00100000
          -83 callgsubr
          hintmask 00010000
          -87 callgsubr
          hintmask 00100000
          29 -28 rlineto
          hintmask 00010000
          -83 callsubr
          hintmask 00100000
          -85 callgsubr
        </CharString>
        <CharString name="J">
          94 callsubr
          hstem
          23 105 callsubr
          vstem
          -52 callsubr
          endchar
        </CharString>
        <CharString name="J_uni030C.cap">
          610.8 -12 40 15 150 251 -21 145 118 -49 49 hstemhm
          23 105 callsubr
          hintmask 11001110
          -52 callsubr
          253 -45 135 callsubr
          hintmask 00110000
          -30 20 -30 39 16 14 6 7 8 vhcurveto
          -4 -60 -29 -42 -36 -28 rrcurveto
          -4 -3 -4 -3 -6 vvcurveto
          -7 9 -9 8 11 80 64 105 vhcurveto
          endchar
        </CharString>
        <CharString name="Jacute">
          94 callsubr
          67 callgsubr
          23 105 callsubr
          hintmask 11100110
          -52 callsubr
          hintmask 00011010
          60 200 -102 callgsubr
        </CharString>
        <CharString name="Jcircumflex">
          94 callsubr
          78 callgsubr
          23 105 callsubr
          hintmask 11100110
          -52 callsubr
          hintmask 00011000
          76 117 -57 callsubr
        </CharString>
        <CharString name="K">
          926 106 callsubr
          hstem
          -26 callgsubr
          vstem
          -82 callsubr
          endchar
        </CharString>
        <CharString name="Kappa">
          926 106 callsubr
          hstem
          -26 callgsubr
          vstem
          -82 callsubr
          endchar
        </CharString>
        <CharString name="Kcedilla">
          926 51 callsubr
          hstem
          -26 callgsubr
          vstem
          -82 callsubr
          -349 -130 -98 callgsubr
        </CharString>
        <CharString name="Kcommaaccent">
          926 51 callsubr
          -37 callgsubr
          hintmask 00111000
          -82 callsubr
          hintmask 11000000
          -349 -130 -98 callgsubr
        </CharString>
        <CharString name="L">
          85 callgsubr
          hstem
          -26 callgsubr
          vstem
          -75 callgsubr
          endchar
        </CharString>
        <CharString name="L_uni0303">
          85 callgsubr
          44 87 callsubr
          hintmask 11001000
          -75 callgsubr
          hintmask 00010000
          -205 818 rmoveto
          -29 28 rlineto
          hintmask 00100000
          -83 callgsubr
          hintmask 00010000
          -87 callgsubr
          hintmask 00100000
          29 -28 rlineto
          hintmask 00010000
          -83 callsubr
          hintmask 00100000
          -85 callgsubr
        </CharString>
        <CharString name="Lacute">
          85 callgsubr
          140 callgsubr
          hintmask 11001000
          -75 callgsubr
          hintmask 00110000
          -242 837 -102 callgsubr
        </CharString>
        <CharString name="Lambda">
          827 0 49 651 -20 hstem
          784 hmoveto
          49 -86 vlineto
          -243 623 rlineto
          20 -8 -3 8 -31 hhcurveto
          -25 -8 -4 -23 -9 hvcurveto
          -235 -601 -7 -16 -1 -1 -31 -4 rlinecurve
          -2 -18 -21 0 -16 hhcurveto
          -49 vlineto
          3 51 39 0 23 hhcurveto
          131 -3 rlineto
          49 vlineto
          -22 -39 0 10 -29 hvcurveto
          1 5 0 2 4 8 166 426 rcurveline
          176 -451 rlineto
          -95 -49 hlineto
          3 35 101 0 41 hhcurveto
          44 74 0 -3 41 hvcurveto
          endchar
        </CharString>
        <CharString name="Lcaron">
          711 0 49 395 -21 145 118 -49 49 -37 callgsubr
          hintmask 10011000
          -75 callgsubr
          -6 592 rmoveto
          22 callgsubr
        </CharString>
        <CharString name="Lcedilla">
          711 51 callsubr
          hstem
          -26 callgsubr
          vstem
          -75 callgsubr
          -210 -130 -98 callgsubr
        </CharString>
        <CharString name="Lcommaaccent">
          711 51 callsubr
          -37 callgsubr
          hintmask 00111000
          -75 callgsubr
          hintmask 11000000
          -210 -130 -98 callgsubr
        </CharString>
        <CharString name="Ldot">
          711 0 49 301 157 130 49 hstem
          -26 callgsubr
          205 156 vstem
          -75 callgsubr
          26 428 -101 callsubr
        </CharString>
        <CharString name="Ldotbelow">
          85 callgsubr
          -37 callgsubr
          -18 156 hintmask 11100000
          -75 callgsubr
          hintmask 00010000
          -197 -122 -101 callsubr
        </CharString>
        <CharString name="Ldotbelowmacron">
          85 callgsubr
          64 122 callgsubr
          -18 156 hintmask 11010000
          -75 callgsubr
          -197 -122 74 callsubr
          hintmask 00100000
          16 872 -35 callgsubr
        </CharString>
        <CharString name="Lslash">
          85 callgsubr
          hstem
          160 145 vstem
          671 276 rmoveto
          -51 hlineto
          -69 -8 -17 -158 -183 hhcurveto
          -107 328 hlineto
          198 140 -30 40 -168 -120 rlineto
          200 135 49 vlineto
          -3 -41 -113 0 -47 hhcurveto
          -42 -110 0 3 -35 hvcurveto
          -49 108 -303 vlineto
          -97 -69 29 -40 68 48 rlineto
          -224 -108 -49 588 vlineto
          endchar
        </CharString>
        <CharString name="M">
          56 callgsubr
          631 127 hintmask 10101100
          -56 callgsubr
          hintmask 10000100
          -8 callsubr
          endchar
        </CharString>
        <CharString name="Mdotbelow">
          56 callgsubr
          272 156 203 127 hintmask 10101010
          -56 callgsubr
          hintmask 10000010
          -8 callsubr
          hintmask 00000100
          -438 -122 -101 callsubr
        </CharString>
        <CharString name="Mu">
          56 callgsubr
          631 127 hintmask 10101100
          -56 callgsubr
          hintmask 10000100
          -8 callsubr
          endchar
        </CharString>
        <CharString name="N">
          82 callgsubr
          hstemhm
          687 57 -28 57 -28 57 cntrmask 00001110
          hintmask 00011110
          881 -40 callgsubr
          hintmask 00101110
          -3 -65 -28 0 -43 hhcurveto
          hintmask 00011110
          -44 -27 0 3 -66 hvcurveto
          -49 26 vlineto
          hintmask 00101110
          27 2 0 -3 24 hvcurveto
          28 -3 1 -1 -22 vvcurveto
          -402 vlineto
          -409 467 rlineto
          hintmask 01011110
          13 -11 -2 0 -21 hhcurveto
          -231 -49 108 -559 hlineto
          -22 -1 -1 -28 -3 vhcurveto
          hintmask 10001110
          -3 -24 -2 0 -27 hhcurveto
          -26 -49 hlineto
          hintmask 01001110
          3 65 28 0 43 hhcurveto
          hintmask 10001110
          44 27 0 -3 66 hvcurveto
          49 -26 vlineto
          hintmask 01001110
          -42 callsubr
          hintmask 10101110
          -13 11 4 0 14 hhcurveto
          29 0 11 22 hvcurveto
          575 vlineto
          22 1 1 28 3 vhcurveto
          hintmask 00011110
          3 24 2 0 27 hhcurveto
          endchar
        </CharString>
        <CharString name="Nacute">
          82 callgsubr
          75 -21 171 -20 -77 callgsubr
          hintmask 0000110000000000
          -234 200 -102 callgsubr
        </CharString>
        <CharString name="Ncaron">
          82 callgsubr
          65 -21 165 -20 -77 callgsubr
          hintmask 0000110000000000
          -218 234 -62 callsubr
        </CharString>
        <CharString name="Ncedilla">
          -53 callgsubr
          hintmask 1100010000000000
          3 24 2 0 27 hhcurveto
          -329 -767 -98 callgsubr
        </CharString>
        <CharString name="Ncommaaccent">
          -53 callgsubr
          hintmask 0000010000000000
          3 24 2 0 27 hhcurveto
          hintmask 1100000000000000
          -329 -767 -98 callgsubr
        </CharString>
        <CharString name="Ndotaccent">
          82 callgsubr
          44 157 123 callgsubr
          177 156 147 57 -28 57 -28 57 hintmask 0001000000000000
          881 -40 callgsubr
          hintmask 0010000000100000
          -3 -65 -28 0 -43 hhcurveto
          hintmask 0001000000000000
          -44 -27 0 3 -66 hvcurveto
          -49 26 vlineto
          hintmask 0010000010000000
          27 2 0 -3 24 hvcurveto
          hintmask 0001001001000000
          -51 callsubr
          hintmask 0100010000000000
          -22 -1 -1 -28 -3 vhcurveto
          hintmask 1000000000000000
          -3 -24 -2 0 -27 hhcurveto
          -26 -49 hlineto
          hintmask 0100010000000000
          3 65 28 0 43 hhcurveto
          hintmask 1000000000000000
          44 27 0 -3 66 hvcurveto
          49 -26 vlineto
          hintmask 0100001000000000
          -42 callsubr
          hintmask 1000000010000000
          -13 11 4 0 14 hhcurveto
          hintmask 0000000001000000
          29 0 11 22 hvcurveto
          575 vlineto
          hintmask 0010000000100000
          22 1 1 28 3 vhcurveto
          hintmask 0001000000000000
          3 24 2 0 27 hhcurveto
          hintmask 0000100100000000
          -315 171 -101 callsubr
        </CharString>
        <CharString name="Ndotbelow">
          90 callsubr
          177 156 147 57 -28 57 -28 57 hintmask 0001000000000000
          881 -40 callgsubr
          hintmask 0010000001000000
          -3 -65 -28 0 -43 hhcurveto
          hintmask 0001000000000000
          -44 -27 0 3 -66 hvcurveto
          -49 26 vlineto
          hintmask 0010000100000000
          27 2 0 -3 24 hvcurveto
          hintmask 0001010010000000
          -51 callsubr
          hintmask 0100100000000000
          -22 -1 -1 -28 -3 vhcurveto
          hintmask 1000000000000000
          -3 -24 -2 0 -27 hhcurveto
          -26 -49 hlineto
          hintmask 0100100000000000
          3 65 28 0 43 hhcurveto
          hintmask 1000000000000000
          44 27 0 -3 66 hvcurveto
          49 -26 vlineto
          hintmask 0100010000000000
          -42 callsubr
          hintmask 1000000100000000
          -13 11 4 0 14 hhcurveto
          hintmask 0000000010000000
          29 0 11 22 hvcurveto
          575 vlineto
          hintmask 0010000001000000
          22 1 1 28 3 vhcurveto
          hintmask 0001000000000000
          3 24 2 0 27 hhcurveto
          hintmask 0000001000000000
          -315 -759 -101 callsubr
        </CharString>
        <CharString name="Ntilde">
          82 callgsubr
          44 79 -42 79 -77 callgsubr
          hintmask 0000010000000000
          -197 181 rmoveto
          -29 28 rlineto
          hintmask 0000100000000000
          -83 callgsubr
          hintmask 0000010000000000
          -87 callgsubr
          hintmask 0000100000000000
          29 -28 rlineto
          hintmask 0000010000000000
          -83 callsubr
          hintmask 0000100000000000
          -85 callgsubr
        </CharString>
        <CharString name="Nu">
          90 callsubr
          480 57 -28 57 -28 57 hintmask 0001000000000000
          881 -40 callgsubr
          hintmask 0010000010000000
          -3 -65 -28 0 -43 hhcurveto
          hintmask 0001000000000000
          -44 -27 0 3 -66 hvcurveto
          -49 26 vlineto
          hintmask 0010001000000000
          27 2 0 -3 24 hvcurveto
          hintmask 0001010100000000
          -51 callsubr
          hintmask 0100100000000000
          -22 -1 -1 -28 -3 vhcurveto
          hintmask 1000000000000000
          -3 -24 -2 0 -27 hhcurveto
          -26 -49 hlineto
          hintmask 0100100000000000
          3 65 28 0 43 hhcurveto
          hintmask 1000000000000000
          44 27 0 -3 66 hvcurveto
          49 -26 vlineto
          hintmask 0100010000000000
          -42 callsubr
          hintmask 1000001000000000
          -13 11 4 0 14 hhcurveto
          hintmask 0000000100000000
          29 0 11 22 hvcurveto
          575 vlineto
          hintmask 0010000010000000
          22 1 1 28 3 vhcurveto
          hintmask 0001000000000000
          3 24 2 0 27 hhcurveto
          endchar
        </CharString>
        <CharString name="O">
          -18 callsubr
          hstem
          127 callsubr
          vstem
          -105 callgsubr
          endchar
        </CharString>
        <CharString name="OE">
          -50 callsubr
        </CharString>
        <CharString name="OE.dup">
          -50 callsubr
        </CharString>
        <CharString name="Oacute">
          102 callgsubr
          171 -96 callgsubr
          -61 483 -102 callgsubr
        </CharString>
        <CharString name="Obreve">
          -18 callsubr
          42 66 122 -96 callgsubr
          -36 574 -101 callgsubr
          endchar
        </CharString>
        <CharString name="Ocaron">
          100 callgsubr
          165 -72 callsubr
          517 -62 callsubr
        </CharString>
        <CharString name="Ocircumflex">
          100 callgsubr
          165 -72 callsubr
          400 -57 callsubr
        </CharString>
        <CharString name="Ocircumflexacute">
          100 callgsubr
          371 -72 callsubr
          400 -68 callgsubr
        </CharString>
        <CharString name="Ocircumflexdotbelow">
          100 callgsubr
          165 -20 120 callsubr
          hintmask 11111010
          -105 callgsubr
          -45 400 -94 callsubr
          hintmask 00000100
          -82 -852 -101 callsubr
        </CharString>
        <CharString name="Ocircumflexgrave">
          100 callgsubr
          165 -72 callsubr
          400 -73 callsubr
        </CharString>
        <CharString name="Ocircumflexhookabove">
          100 callgsubr
          373 -72 callsubr
          400 -94 callsubr
          71 309 -107 callgsubr
        </CharString>
        <CharString name="Ocircumflextilde">
          100 callgsubr
          220 79 -42 79 hstemhm
          127 callsubr
          hintmask 11000110
          -105 callgsubr
          hintmask 00101000
          -45 400 -94 callsubr
          38 308 -90 callgsubr
        </CharString>
        <CharString name="Odblgrave">
          102 callgsubr
          197 -96 callgsubr
          -67 415 -93 callgsubr
        </CharString>
        <CharString name="Odieresis">
          -18 callsubr
          32 141 141 callsubr
          -1 38 callgsubr
          -4 157 hintmask 11010010
          -105 callgsubr
          hintmask 00101100
          -302 446 -78 callsubr
        </CharString>
        <CharString name="Odotbelow">
          -18 callsubr
          120 callsubr
          hintmask 11101000
          -105 callgsubr
          hintmask 00010000
          -143 -476 -101 callsubr
        </CharString>
        <CharString name="Ograve">
          102 callgsubr
          171 -96 callgsubr
          -140 431 -74 callsubr
        </CharString>
        <CharString name="Ohookabove">
          -18 callsubr
          65 -21 193 -96 callgsubr
          -105 517 -107 callgsubr
        </CharString>
        <CharString name="Ohorn">
          44 callsubr
          121 43 callsubr
          hintmask 11111100
          -82 callgsubr
          hintmask 10101010
          -66 callgsubr
          endchar
        </CharString>
        <CharString name="Ohornacute">
          44 callsubr
          63 -21 79 -20 112 43 callsubr
          hintmask 1110101100000000
          -82 callgsubr
          hintmask 1010001010000000
          -66 callgsubr
          hintmask 0001010000000000
          -93 480 -102 callgsubr
        </CharString>
        <CharString name="Ohorndotbelow">
          44 callsubr
          121 -20 141 callsubr
          143 156 119 89 callsubr
          hintmask 11111010
          -82 callgsubr
          hintmask 10101001
          -66 callgsubr
          hintmask 00000100
          -142 -479 -101 callsubr
        </CharString>
        <CharString name="Ohorngrave">
          44 callsubr
          63 -21 79 -20 112 43 callsubr
          hintmask 1110101100000000
          -82 callgsubr
          hintmask 1010001010000000
          -66 callgsubr
          hintmask 0001010000000000
          -139 428 -74 callsubr
        </CharString>
        <CharString name="Ohornhookabove">
          44 callsubr
          65 -21 77 -20 136 43 callsubr
          hintmask 1110101100000000
          -82 callgsubr
          hintmask 1010001010000000
          -66 callgsubr
          hintmask 0001010000000000
          -104 514 -107 callgsubr
        </CharString>
        <CharString name="Ohorntilde">
          44 callsubr
          32 79 -42 79 141 callsubr
          418 89 callsubr
          hintmask 11100110
          -82 callgsubr
          hintmask 10100101
          -66 callgsubr
          hintmask 00001000
          -23 461 rmoveto
          -29 28 rlineto
          hintmask 00010000
          -83 callgsubr
          hintmask 00001000
          -87 callgsubr
          hintmask 00010000
          29 -28 rlineto
          hintmask 00001000
          -83 callsubr
          hintmask 00010010
          -85 callgsubr
        </CharString>
        <CharString name="Ohungarumlaut">
          102 callgsubr
          197 -96 callgsubr
          -208 521 -75 callsubr
        </CharString>
        <CharString name="Omacron">
          -18 callsubr
          52 55 hstemhm
          127 callsubr
          hintmask 11011000
          -105 callgsubr
          hintmask 00100000
          -7 396 -35 callgsubr
        </CharString>
        <CharString name="Omega">
          -48 callgsubr
        </CharString>
        <CharString name="Omicron">
          -18 callsubr
          hstem
          127 callsubr
          vstem
          -105 callgsubr
          endchar
        </CharString>
        <CharString name="Oogonek">
          -18 callsubr
          hstem
          127 callsubr
          vstem
          -39 callsubr
          endchar
        </CharString>
        <CharString name="Oogonekacute">
          102 callgsubr
          171 -20 hstemhm
          127 callsubr
          hintmask 11001100
          -39 callsubr
          hintmask 00110000
          -61 483 -102 callgsubr
        </CharString>
        <CharString name="Orogate">
          889 66 157 202 38 202 157 vstem
          25 callsubr
          203 -133 148 -226 8 vhcurveto
          183 -38 -183 vlineto
          -226 -8 -133 -149 -202 vvcurveto
          -197 132 -146 227 -8 vhcurveto
          -182 38 182 vlineto
          227 8 132 145 198 vvcurveto
          -157 15 rmoveto
          -89 -9 -64 -31 -61 vhcurveto
          -69 -37 -71 -37 -73 hhcurveto
          -62 -71 27 71 -43 hvcurveto
          -41 68 -4 88 66 vvcurveto
          89 9 75 49 64 vhcurveto
          33 26 57 40 80 hhcurveto
          66 63 -27 -53 39 hvcurveto
          49 -65 4 -86 -70 vvcurveto
          endchar
        </CharString>
        <CharString name="Oslash">
          83 callgsubr
          hstem
          66 145 497 145 vstem
          -67 callgsubr
          endchar
        </CharString>
        <CharString name="Oslash.dup">
          83 callgsubr
          hstem
          66 145 497 145 vstem
          -67 callgsubr
          endchar
        </CharString>
        <CharString name="Oslashacute">
          83 callgsubr
          34 -21 171 -20 hstemhm
          66 145 497 145 hintmask 11110011
          -67 callgsubr
          hintmask 00001100
          -89 497 -102 callgsubr
        </CharString>
        <CharString name="Otilde">
          -18 callsubr
          32 79 -42 79 -99 callsubr
          hintmask 00010000
          -24 464 rmoveto
          -29 28 rlineto
          hintmask 00100000
          -83 callgsubr
          hintmask 00010000
          -87 callgsubr
          hintmask 00100000
          29 -28 rlineto
          hintmask 00010000
          -83 callsubr
          hintmask 00100000
          -85 callgsubr
        </CharString>
        <CharString name="P">
          -14 callsubr
        </CharString>
        <CharString name="Phi">
          855 0 49 103 44 294 44 103 49 hstem
          66 151 138 133 149 151 vstem
          788 343 rmoveto
          86 -90 90 -210 13 vhcurveto
          105 76 callgsubr
          -106 vlineto
          -162 -9 -127 -74 -105 vvcurveto
          -106 128 -73 161 -9 vhcurveto
          72 callgsubr
          105 vlineto
          210 13 90 90 86 vvcurveto
          -433 -147 rmoveto
          -123 15 -15 69 63 vvcurveto
          63 15 69 123 15 vhcurveto
          282 -147 rmoveto
          -59 -11 -76 -138 -14 vhcurveto
          298 vlineto
          139 -14 10 -77 -58 vvcurveto
          endchar
        </CharString>
        <CharString name="Pi">
          924 0 49 582 92 callsubr
          582 108 49 -839 -49 108 -582 -56 callsubr
          582 333 -582 -64 callsubr
          endchar
        </CharString>
        <CharString name="Psi">
          920 0 49 429 49 -20 40 90 49 hstemhm
          131 133 123 133 135 133 hintmask 00111110
          853 527 rmoveto
          20 -19 0 -14 vhcurveto
          -71 hlineto
          -66 -27 -46 -99 -1 hvcurveto
          -1 -108 -41 -72 -93 -23 rrcurveto
          438 76 callgsubr
          -436 vlineto
          -119 32 -4 122 61 vvcurveto
          67 -1 -20 64 -73 hhcurveto
          -70 hlineto
          hintmask 01000000
          -14 -20 0 -20 hvcurveto
          hintmask 10101110
          -18 17 -2 4 vhcurveto
          43 -5 1 -74 -6 vvcurveto
          2 -119 43 -128 211 -20 rrcurveto
          72 callgsubr
          106 vlineto
          71 5 70 20 54 48 rrcurveto
          63 56 10 91 23 vvcurveto
          hintmask 01000000
          27 1 30 9 23 vhcurveto
          hintmask 00100000
          12 26 10 1 17 2 rrcurveto
          hintmask 01000000
          5 1 11 6 13 vvcurveto
          endchar
        </CharString>
        <CharString name="Q">
          889 -194 157 25 43 0 40 46 40 498 43 hstemhm
          66 151 125 40 289 151 -33 40 hintmask 1000000010000000
          829 -7 rmoveto
          7 0 20 -20 -17 -2 -16 -5 -1 vhcurveto
          -33 -4 -54 -3 -27 hhcurveto
          -31 -21 3 51 -40 hvcurveto
          hintmask 1100110100000000
          145 57 65 129 136 vvcurveto
          209 -141 150 -237 -238 -140 -151 -208 -202 139 -149 239 12 38 0 9 47 vhcurveto
          -111 30 21 -80 95 hhcurveto
          hintmask 0011111010000000
          102 40 114 73 hvcurveto
          -158 347 rmoveto
          -53 0 -150 -98 -66 vhcurveto
          30 -21 -40 56 -68 hhcurveto
          -51 -51 -31 -53 -11 1 -3 1 -5 hvcurveto
          -119 58 -8 139 89 vvcurveto
          99 13 76 48 63 vhcurveto
          44 34 61 33 71 hhcurveto
          69 69 -31 -61 39 hvcurveto
          hintmask 0011001100000000
          40 -61 10 -75 -87 vvcurveto
          -145 -294 rmoveto
          -15 -40 -30 0 -12 hhcurveto
          -52 -10 30 12 28 31 16 31 26 34 -9 -62 22 hvcurveto
          endchar
        </CharString>
        <CharString name="R">
          6 callgsubr
          hstem
          150 139 292 157 cntrmask 11100000
          -99 callgsubr
          endchar
        </CharString>
        <CharString name="Racute">
          33 callsubr
          292 157 cntrmask 11100000
          -99 callgsubr
          hintmask 11100000
          22 337 -102 callgsubr
        </CharString>
        <CharString name="Rcaron">
          33 callsubr
          292 157 cntrmask 11100000
          -99 callgsubr
          hintmask 11100000
          38 371 -62 callsubr
        </CharString>
        <CharString name="Rcedilla">
          6 callgsubr
          hstem
          150 139 292 157 cntrmask 11100000
          -99 callgsubr
          -73 -630 -98 callgsubr
        </CharString>
        <CharString name="Rcommaaccent">
          33 callsubr
          292 157 cntrmask 11100000
          -99 callgsubr
          hintmask 11100000
          -73 -630 -98 callgsubr
        </CharString>
        <CharString name="Rdblgrave">
          33 callsubr
          292 157 cntrmask 11100000
          -99 callgsubr
          hintmask 11100000
          -17 269 -93 callgsubr
        </CharString>
        <CharString name="Rdotaccent">
          67 callsubr
          hintmask 11110100
          -99 callgsubr
          hintmask 11101000
          -60 320 -101 callsubr
        </CharString>
        <CharString name="Rdotbelow">
          67 callsubr
          hintmask 11110100
          -99 callgsubr
          hintmask 11101000
          -60 -622 -101 callsubr
        </CharString>
        <CharString name="Rdotbelowmacron">
          67 callsubr
          -99 callgsubr
          -60 -622 rmoveto
          47 -38 32 -40 -42 -36 -34 -44 -47 38 -32 40 42 36 34 44 vhcurveto
          hintmask 11100000
          136 872 -35 callgsubr
        </CharString>
        <CharString name="Rho">
          -14 callsubr
        </CharString>
        <CharString name="S">
          657 -12 -5 callgsubr
          hstemhm
          66 99 326 99 hintmask 10111111
          590 203 rmoveto
          -100 callsubr
          hintmask 01000000
          -7 callsubr
          rrcurveto
          hintmask 10000001
          -5 callsubr
          endchar
        </CharString>
        <CharString name="S_S">
          1315 -12 -5 callgsubr
          hstemhm
          66 99 326 99 133 99 326 99 hintmask 1011111100000000
          590 203 rmoveto
          -100 callsubr
          hintmask 0100000000000000
          -7 callsubr
          rrcurveto
          hintmask 1011110111000000
          -5 callsubr
          657 hmoveto
          -100 callsubr
          hintmask 0100000000000000
          -7 callsubr
          rrcurveto
          hintmask 1000000001000000
          -5 callsubr
          endchar
        </CharString>
        <CharString name="Sacute">
          657 -12 -5 callgsubr
          63 -21 171 -20 hstemhm
          66 99 326 99 hintmask 1011110011000000
          590 203 rmoveto
          -100 callsubr
          hintmask 0100000000000000
          -7 callsubr
          rrcurveto
          hintmask 1000000001000000
          -5 callsubr
          hintmask 0000001100000000
          -102 634 -102 callgsubr
        </CharString>
        <CharString name="Scaron">
          657 -12 -5 callgsubr
          53 -21 165 -20 hstemhm
          66 99 326 99 hintmask 1011110011000000
          590 203 rmoveto
          -100 callsubr
          hintmask 0100000000000000
          -7 callsubr
          rrcurveto
          hintmask 1000000001000000
          -5 callsubr
          hintmask 0000001100000000
          -86 668 -62 callsubr
        </CharString>
        <CharString name="Scedilla">
          657 -12 -5 callgsubr
          hstemhm
          66 99 32 99 195 99 hintmask 1011111110000000
          590 203 rmoveto
          -100 callsubr
          hintmask 0100000110000000
          -7 callsubr
          36 -26 46 -14 43 -7 rrcurveto
          -83 vlineto
          27 callsubr
          52 hlineto
          119 145 0 82 50 -52 32 -54 hvcurveto
          25 vlineto
          151 10 58 106 98 vvcurveto
          endchar
        </CharString>
        <CharString name="Scircumflex">
          657 -12 -5 callgsubr
          53 -21 165 -20 hstemhm
          66 99 326 99 hintmask 1011110011000000
          590 203 rmoveto
          -100 callsubr
          hintmask 0100000000000000
          -7 callsubr
          rrcurveto
          hintmask 1000000001000000
          -5 callsubr
          hintmask 0000001100000000
          -86 551 -57 callsubr
        </CharString>
        <CharString name="Sdotbelow">
          657 -12 -5 callgsubr
          hstemhm
          66 99 85 156 85 99 hintmask 1011111010000000
          590 203 rmoveto
          -100 callsubr
          hintmask 0100000000000000
          -7 callsubr
          rrcurveto
          hintmask 1000000010000000
          -5 callsubr
          hintmask 0000000100000000
          -184 -325 -101 callsubr
        </CharString>
        <CharString name="Sigma">
          855 0 68 569 49 hstem
          788 262 rmoveto
          -51 hlineto
          -176 -21 -106 -18 -138 hhcurveto
          -271 hlineto
          292 254 rlineto
          12 10 0 8 3 vvcurveto
          8 -4 4 -6 8 vhcurveto
          -229 274 rlineto
          207 hlineto
          156 84 -28 -166 24 hvcurveto
          51 hlineto
          -31 243 rlineto
          -657 hlineto
          -19 -15 0 -25 -11 1 -1 9 -11 hvcurveto
          290 -347 -286 -250 rlineto
          -9 -8 -5 -4 -9 vvcurveto
          -20 20 0 14 vhcurveto
          657 hlineto
          endchar
        </CharString>
        <CharString name="T">
          69 callsubr
          hstem
          339 145 vstem
          -84 callsubr
          endchar
        </CharString>
        <CharString name="T_uni0303">
          69 callsubr
          56 115 callgsubr
          339 145 hintmask 11001000
          -84 callsubr
          hintmask 00010000
          -120 387 rmoveto
          -29 28 rlineto
          hintmask 00100000
          -83 callgsubr
          hintmask 00010000
          -87 callgsubr
          hintmask 00100000
          29 -28 rlineto
          hintmask 00010000
          -83 callsubr
          hintmask 00100000
          -85 callgsubr
        </CharString>
        <CharString name="T_uni0308">
          69 callsubr
          56 141 hstemhm
          189 112 callsubr
          hintmask 11001000
          -84 callsubr
          hintmask 00110100
          -398 369 -78 callsubr
        </CharString>
        <CharString name="Tau">
          69 callsubr
          hstem
          339 145 vstem
          -84 callsubr
          endchar
        </CharString>
        <CharString name="Tcaron">
          69 callsubr
          77 -21 165 -20 hstemhm
          339 145 hintmask 11001000
          -84 callsubr
          hintmask 00110000
          -141 440 -62 callsubr
        </CharString>
        <CharString name="Tcedilla">
          823 -200 52 60 52 36 143 callsubr
          hstemhm
          306 132 -99 145 -124 104 -26 132 hintmask 00110100
          779 431 rmoveto
          -22 243 rlineto
          -692 hlineto
          -22 -243 rlineto
          51 hlineto
          111 10 9 83 147 hhcurveto
          79 -576 -153 -49 hlineto
          hintmask 01000010
          2 33 80 1 61 hhcurveto
          -91 vlineto
          hintmask 10000001
          27 callsubr
          hlineto
          hintmask 10001000
          52 hlineto
          hintmask 00000001
          119 145 0 82 hvcurveto
          hintmask 01100010
          50 -51 32 -55 vhcurveto
          -1 39 rlineto
          61 80 -1 -2 33 hvcurveto
          49 vlineto
          hintmask 00110100
          -153 576 79 hlineto
          147 8 -85 -109 10 hvcurveto
          endchar
        </CharString>
        <CharString name="Tdotbelow">
          69 callsubr
          hstemhm
          333 156 -150 145 hintmask 11010000
          -84 callsubr
          hintmask 00100000
          -239 -553 -101 callsubr
        </CharString>
        <CharString name="Theta">
          920 -12 42 252 124 252 40 hstem
          66 145 67 51 261 51 67 145 vstem
          853 339 rmoveto
          203 -140 156 -253 -260 -134 -162 -197 -198 140 -153 253 258 136 156 195 vhcurveto
          -145 1 rmoveto
          -41 0 -118 -65 -74 vhcurveto
          -67 -60 -79 -10 -44 hhcurveto
          -91 -63 40 39 -32 hvcurveto
          -45 57 -18 68 106 vvcurveto
          61 5 87 44 68 vhcurveto
          81 53 85 21 61 hhcurveto
          62 86 -20 -87 55 hvcurveto
          43 -69 3 -94 -48 vvcurveto
          -67 -92 rmoveto
          192 -51 -34 -261 34 -51 -192 51 34 261 -34 vlineto
          endchar
        </CharString>
        <CharString name="Thorn">
          744 0 50 128 50 287 50 71 50 hstem
          150 133 240 152 vstem
          675 372 rmoveto
          102 -81 91 -162 vhcurveto
          -149 71 108 50 hlineto
          -174 -3 -175 3 rlineto
          -50 108 -586 -108 -50 vlineto
          174 3 175 -3 rlineto
          50 -108 128 138 vlineto
          208 46 120 74 hvcurveto
          -152 1 rmoveto
          -145 -116 0 -24 vhcurveto
          -100 287 121 hlineto
          19 42 0 -42 30 hvcurveto
          28 -37 0 -53 -10 vvcurveto
          endchar
        </CharString>
        <CharString name="Tlinebelow">
          823 -148 55 93 143 callsubr
          hstemhm
          339 145 hintmask 01110000
          -84 callsubr
          hintmask 10000000
          -103 -579 -35 callgsubr
        </CharString>
        <CharString name="U">
          909 -12 49 597 111 callgsubr
          hintmask 00100000
          -2 callgsubr
          hintmask 01001000
          -3 -62 -29 0 -46 hhcurveto
          hintmask 00100000
          -40 -31 0 3 -67 hvcurveto
          -49 26 vlineto
          hintmask 01001000
          27 2 0 -3 24 hvcurveto
          hintmask 10110100
          -78 callgsubr
          hintmask 10110100
          -41 -105 0 3 -35 hvcurveto
          -49 108 -406 vlineto
          -132 110 -111 213 196 89 116 126 vhcurveto
          378 vlineto
          hintmask 01000000
          22 1 1 28 3 vhcurveto
          hintmask 00100000
          3 24 2 0 27 hhcurveto
          endchar
        </CharString>
        <CharString name="U_uni032F">
          909 -194 142 callsubr
          15 49 597 111 callgsubr
          hintmask 00001000
          -2 callgsubr
          hintmask 00010010
          -3 -62 -29 0 -46 hhcurveto
          hintmask 00001000
          -40 -31 0 3 -67 hvcurveto
          -49 26 vlineto
          hintmask 00010010
          27 2 0 -3 24 hvcurveto
          hintmask 00101101
          -85 callsubr
          hintmask 00010000
          -3 -35 -104 0 -41 hhcurveto
          hintmask 00101101
          -41 -105 0 3 -35 hvcurveto
          -49 108 -406 vlineto
          -132 110 -111 213 196 89 116 126 vhcurveto
          378 vlineto
          hintmask 00010000
          22 1 1 28 3 vhcurveto
          hintmask 00001000
          3 24 2 0 27 hhcurveto
          hintmask 11000000
          -174 -852 -54 callsubr
        </CharString>
        <CharString name="Uacute">
          -23 callgsubr
          75 -21 171 -20 -100 callgsubr
          hintmask 00011000
          -199 200 -102 callgsubr
        </CharString>
        <CharString name="Ubreve">
          -23 callgsubr
          54 66 122 -20 -100 callgsubr
          hintmask 00011000
          -174 291 -101 callgsubr
          endchar
        </CharString>
        <CharString name="Ucaron">
          -23 callgsubr
          65 -21 165 -20 -100 callgsubr
          hintmask 00011000
          -183 234 -62 callsubr
        </CharString>
        <CharString name="Ucircumflex">
          -23 callgsubr
          65 -21 165 -20 -100 callgsubr
          hintmask 00011000
          -183 117 -57 callsubr
        </CharString>
        <CharString name="Udblgrave">
          -23 callgsubr
          75 -21 197 -20 -100 callgsubr
          hintmask 00011000
          -205 132 -93 callgsubr
        </CharString>
        <CharString name="Udieresis">
          -23 callgsubr
          44 141 -37 callgsubr
          -36 38 callgsubr
          -36 43 callgsubr
          hintmask 0100000100000000
          -3 -62 -29 0 -46 hhcurveto
          hintmask 0010000000000000
          -40 -31 0 3 -67 hvcurveto
          -49 26 vlineto
          hintmask 0100000100000000
          27 2 0 -3 24 hvcurveto
          hintmask 1010100010000000
          -85 callsubr
          hintmask 0100000000000000
          -3 -35 -104 0 -41 hhcurveto
          hintmask 1010100010000000
          -41 -105 0 3 -35 hvcurveto
          -49 108 -406 vlineto
          -132 110 -111 213 196 89 116 126 vhcurveto
          378 vlineto
          hintmask 0100000000000000
          22 1 1 28 3 vhcurveto
          hintmask 0010000000000000
          3 24 2 0 27 hhcurveto
          hintmask 0001011000000000
          -440 30 callsubr
        </CharString>
        <CharString name="Udieresisacute">
          -23 callgsubr
          44 141 75 -21 171 -80 callgsubr
          -65 222 -102 callgsubr
        </CharString>
        <CharString name="Udieresiscaron">
          -23 callgsubr
          44 141 65 -21 165 -80 callgsubr
          -49 256 -62 callsubr
        </CharString>
        <CharString name="Udieresisgrave">
          -23 callgsubr
          44 141 75 -21 171 -80 callgsubr
          -144 170 -74 callsubr
        </CharString>
        <CharString name="Udotbelow">
          -23 callgsubr
          -37 callgsubr
          109 156 110 59 -30 59 hintmask 00100000
          -2 callgsubr
          hintmask 01000100
          -3 -62 -29 0 -46 hhcurveto
          hintmask 00100000
          -40 -31 0 3 -67 hvcurveto
          -49 26 vlineto
          hintmask 01000100
          27 2 0 -3 24 hvcurveto
          hintmask 10110010
          -78 callgsubr
          hintmask 10110010
          -41 -105 0 3 -35 hvcurveto
          -49 108 -406 vlineto
          -132 110 -111 213 196 89 116 126 vhcurveto
          378 vlineto
          hintmask 01000000
          22 1 1 28 3 vhcurveto
          hintmask 00100000
          3 24 2 0 27 hhcurveto
          hintmask 00001000
          -280 -759 -101 callsubr
        </CharString>
        <CharString name="Ugrave">
          -23 callgsubr
          75 -21 171 -20 -100 callgsubr
          hintmask 00011000
          -278 148 -74 callsubr
        </CharString>
        <CharString name="Uhookabove">
          -23 callgsubr
          77 -21 193 -20 -100 callgsubr
          hintmask 00011000
          -243 234 -107 callgsubr
        </CharString>
        <CharString name="Uhorn">
          45 callgsubr
          84 -20 hstem
          -26 callgsubr
          402 59 7 134 vstem
          -91 callgsubr
          endchar
        </CharString>
        <CharString name="Uhornacute">
          45 callgsubr
          26 -21 79 -20 112 -20 -37 callgsubr
          402 59 7 134 hintmask 1110101110000000
          -91 callgsubr
          hintmask 0001010000000000
          -290 102 -102 callgsubr
        </CharString>
        <CharString name="Uhorndotbelow">
          45 callgsubr
          84 -20 -37 callgsubr
          81 156 165 59 7 134 hintmask 11111011
          -91 callgsubr
          hintmask 00000100
          -365 -857 -101 callsubr
        </CharString>
        <CharString name="Uhorngrave">
          45 callgsubr
          26 -21 79 -20 112 -20 -37 callgsubr
          402 59 7 134 hintmask 1110101110000000
          -91 callgsubr
          hintmask 0001010000000000
          -336 50 -74 callsubr
        </CharString>
        <CharString name="Uhornhookabove">
          45 callgsubr
          28 -21 77 -20 136 -20 -37 callgsubr
          402 59 7 134 hintmask 1110101110000000
          -91 callgsubr
          hintmask 0001010000000000
          -301 136 -107 callgsubr
        </CharString>
        <CharString name="Uhorntilde">
          45 callgsubr
          -5 87 callsubr
          402 59 7 134 hintmask 11100111
          -91 callgsubr
          hintmask 00001000
          -220 83 -90 callgsubr
        </CharString>
        <CharString name="Uhungarumlaut">
          -23 callgsubr
          75 -21 197 -20 -100 callgsubr
          hintmask 00011000
          -346 238 -75 callsubr
        </CharString>
        <CharString name="Umacron">
          -23 callgsubr
          64 122 callgsubr
          375 59 -30 59 hintmask 00100000
          -2 callgsubr
          hintmask 01000100
          -3 -62 -29 0 -46 hhcurveto
          hintmask 00100000
          -40 -31 0 3 -67 hvcurveto
          -49 26 vlineto
          hintmask 01000100
          27 2 0 -3 24 hvcurveto
          hintmask 10101010
          -78 callgsubr
          hintmask 10101010
          -41 -105 0 3 -35 hvcurveto
          -49 108 -406 vlineto
          -132 110 -111 213 196 89 116 126 vhcurveto
          378 vlineto
          hintmask 01000000
          22 1 1 28 3 vhcurveto
          hintmask 00100000
          3 24 2 0 27 hhcurveto
          hintmask 00010000
          -145 113 -35 callgsubr
        </CharString>
        <CharString name="Uogonek">
          909 -206 78 0 78 38 49 571 78 -52 111 callgsubr
          hintmask 0000010000000000
          -2 callgsubr
          hintmask 0000100100000000
          -3 -62 -29 0 -46 hhcurveto
          hintmask 0000010000000000
          -40 -31 0 3 -67 hvcurveto
          -49 26 vlineto
          hintmask 0000100100000000
          27 2 0 -3 24 hvcurveto
          hintmask 0011001010000000
          28 -3 1 -1 -22 vvcurveto
          -376 vlineto
          -137 -100 -58 -122 -180 -2 133 54 vhcurveto
          hintmask 0000011000000000
          413 108 49 vlineto
          hintmask 0000100000000000
          -3 -35 -104 0 -41 hhcurveto
          hintmask 1000011000000000
          -41 -105 0 3 -35 hvcurveto
          -49 108 -406 vlineto
          -123 96 -105 186 -14 vhcurveto
          -24 -27 -19 -34 -28 -65 callgsubr
          hintmask 0101000010000000
          -35 -29 37 41 11 hvcurveto
          5 15 8 14 12 10 rrcurveto
          170 14 78 109 118 vvcurveto
          378 vlineto
          hintmask 0000100000000000
          22 1 1 28 3 vhcurveto
          hintmask 0000010000000000
          3 24 2 0 27 hhcurveto
          endchar
        </CharString>
        <CharString name="Upsilon">
          920 0 49 531 118 hstem
          66 60 261 145 261 60 cntrmask 00111000
          853 553 rmoveto
          68 -62 77 -98 -142 -72 -138 -91 -19 vhcurveto
          -1 hlineto
          99 -23 -72 130 -138 hhcurveto
          -98 -62 -77 -68 -24 15 0 15 25 1 7 16 3 hvcurveto
          24 5 34 4 48 hhcurveto
          33 61 0 -84 46 hvcurveto
          24 -45 11 -58 -48 vvcurveto
          -296 -135 -49 vlineto
          3 41 118 0 48 hhcurveto
          48 119 0 -3 41 hvcurveto
          49 -135 296 vlineto
          38 7 70 36 56 vhcurveto
          71 45 54 0 33 hhcurveto
          82 3 -16 -17 2 hvcurveto
          -18 3 14 0 12 hhcurveto
          15 15 0 24 hvcurveto
          endchar
        </CharString>
        <CharString name="Uring">
          -23 callgsubr
          14 45 78 45 -37 callgsubr
          63 58 132 58 64 43 callgsubr
          hintmask 0100000010000000
          -3 -62 -29 0 -46 hhcurveto
          hintmask 0010000000000000
          -40 -31 0 3 -67 hvcurveto
          -49 26 vlineto
          hintmask 0100000010000000
          27 2 0 -3 24 hvcurveto
          hintmask 1010010001000000
          -85 callsubr
          hintmask 0100000000000000
          -3 -35 -104 0 -41 hhcurveto
          hintmask 1010010001000000
          -41 -105 0 3 -35 hvcurveto
          -49 108 -406 vlineto
          -132 110 -111 213 196 89 116 126 vhcurveto
          378 vlineto
          hintmask 0100000000000000
          22 1 1 28 3 vhcurveto
          hintmask 0010000000000000
          3 24 2 0 27 hhcurveto
          hintmask 0001101100000000
          -292 147 -58 callgsubr
        </CharString>
        <CharString name="Utilde">
          -23 callgsubr
          44 79 -42 79 -100 callgsubr
          hintmask 00001000
          -162 181 -90 callgsubr
        </CharString>
        <CharString name="V">
          893 12 -21 646 49 hstem
          864 38 callsubr
          -54 -23 0 -40 hhcurveto
          -132 74 callgsubr
          26 35 0 -11 26 hvcurveto
          -212 -467 -217 478 rlineto
          92 49 hlineto
          -3 -35 -100 0 -41 hhcurveto
          -42 -80 0 3 -39 hvcurveto
          -49 92 vlineto
          281 -619 rlineto
          -27 12 14 0 19 hhcurveto
          19 14 0 27 12 hvcurveto
          271 597 rlineto
          13 6 4 9 74 hhcurveto
          endchar
        </CharString>
        <CharString name="W">
          86 callgsubr
          hstem
          -88 callgsubr
          endchar
        </CharString>
        <CharString name="Wacute">
          86 callgsubr
          67 callgsubr
          hintmask 11000000
          -88 callgsubr
          hintmask 00110000
          -425 200 -102 callgsubr
        </CharString>
        <CharString name="Wcircumflex">
          86 callgsubr
          78 callgsubr
          hintmask 11000000
          -88 callgsubr
          hintmask 00110000
          -409 117 -57 callsubr
        </CharString>
        <CharString name="Wdieresis">
          86 callgsubr
          44 141 hstemhm
          388 38 callgsubr
          hintmask 11001000
          -88 callgsubr
          hintmask 00111000
          -666 30 callsubr
        </CharString>
        <CharString name="Wgrave">
          86 callgsubr
          67 callgsubr
          hintmask 11000000
          -88 callgsubr
          hintmask 00110000
          -504 148 -74 callsubr
        </CharString>
        <CharString name="X">
          -53 callsubr
        </CharString>
        <CharString name="Xi">
          789 0 115 97 -20 101 115 86 -21 86 115 hstemhm
          49 51 -44 51 57 51 358 51 57 51 -44 51 hintmask 0001101001000000
          732 473 rmoveto
          -9 201 rlineto
          -658 hlineto
          -9 -201 rlineto
          51 hlineto
          2 44 3 20 8 12 rrcurveto
          10 6 61 0 16 hhcurveto
          382 hlineto
          12 62 0 -7 7 hvcurveto
          13 -13 1 -45 1 -21 rrcurveto
          58 -261 rmoveto
          hintmask 1110010110100000
          -51 hlineto
          -2 -36 -2 -40 -11 -12 rrcurveto
          -9 -9 -73 0 -4 hhcurveto
          -386 hlineto
          -16 -64 0 11 -7 hvcurveto
          -10 15 -2 33 -2 38 rrcurveto
          -51 hlineto
          9 -212 rlineto
          672 hlineto
          -106 250 rmoveto
          201 -51 -43 -358 43 -51 -201 51 43 358 -43 vlineto
          endchar
        </CharString>
        <CharString name="Y">
          24 callsubr
          hstemhm
          376 12 callsubr
          hintmask 10110000
          -41 -90 0 3 -37 hvcurveto
          -49 97 vlineto
          257 -363 rlineto
          -225 -108 -49 vlineto
          3 36 100 54 callsubr
          101 0 -3 36 hvcurveto
          49 -108 225 vlineto
          243 343 rlineto
          hintmask 01000000
          10 14 7 0 22 3 rrcurveto
          hintmask 00100000
          2 17 18 1 17 hhcurveto
          endchar
        </CharString>
        <CharString name="Yacute">
          24 callsubr
          67 callgsubr
          376 139 -89 callgsubr
          hintmask 00011000
          -243 200 -102 callgsubr
        </CharString>
        <CharString name="Ycircumflex">
          24 callsubr
          78 callgsubr
          376 139 -89 callgsubr
          hintmask 00011000
          -227 117 -57 callsubr
        </CharString>
        <CharString name="Ydieresis">
          24 callsubr
          44 141 hstemhm
          224 141 11 139 15 141 -89 callgsubr
          hintmask 00011010
          -484 30 callsubr
        </CharString>
        <CharString name="Ydotbelow">
          24 callsubr
          hstemhm
          368 156 -148 12 callsubr
          hintmask 10101000
          -41 -90 0 3 -37 hvcurveto
          -49 97 vlineto
          257 -363 rlineto
          -225 -108 -49 vlineto
          3 36 100 54 callsubr
          101 0 -3 36 hvcurveto
          49 -108 225 vlineto
          243 343 rlineto
          hintmask 01000000
          10 14 7 0 22 3 rrcurveto
          hintmask 00100000
          2 17 18 1 17 hhcurveto
          hintmask 00010000
          -325 -759 -101 callsubr
        </CharString>
        <CharString name="Ygrave">
          24 callsubr
          67 callgsubr
          376 139 -89 callgsubr
          hintmask 00011000
          -322 148 -74 callsubr
        </CharString>
        <CharString name="Yhookabove">
          24 callsubr
          122 callsubr
          376 139 -89 callgsubr
          hintmask 00011000
          -287 234 -107 callgsubr
        </CharString>
        <CharString name="Ytilde">
          24 callsubr
          44 115 callgsubr
          376 139 -89 callgsubr
          hintmask 00001000
          -206 181 rmoveto
          -29 28 rlineto
          hintmask 00010000
          -83 callgsubr
          hintmask 00001000
          -87 callgsubr
          hintmask 00010000
          29 -28 rlineto
          hintmask 00001000
          -83 callsubr
          hintmask 00010100
          -85 callgsubr
        </CharString>
        <CharString name="Z">
          45 callsubr
          hstemhm
          -79 callsubr
          endchar
        </CharString>
        <CharString name="Zacute">
          45 callsubr
          67 callgsubr
          -79 callsubr
          hintmask 00011000
          -123 837 -102 callgsubr
        </CharString>
        <CharString name="Zcaron">
          45 callsubr
          78 callgsubr
          -79 callsubr
          hintmask 00011000
          -107 871 -62 callsubr
        </CharString>
        <CharString name="Zdotaccent">
          45 callsubr
          56 157 hstemhm
          283 156 -79 callsubr
          hintmask 00011000
          -205 820 -101 callsubr
        </CharString>
        <CharString name="Zdotbelow">
          45 callsubr
          hstemhm
          283 156 -79 callsubr
          hintmask 00010000
          -205 -122 -101 callsubr
        </CharString>
        <CharString name="Zeta">
          45 callsubr
          hstemhm
          -79 callsubr
          endchar
        </CharString>
        <CharString name="a">
          -45 callgsubr
          63 callsubr
          164 117 hintmask 10111000
          -106 callsubr
          hintmask 01001000
          -26 0 -48 107 vhcurveto
          49 hlineto
          19 14 0 25 hvcurveto
          -207 114 rmoveto
          -105 -116 0 -4 -51 -42 33 45 33 18 78 195 9 vhcurveto
          endchar
        </CharString>
        <CharString name="aacute">
          -45 callgsubr
          75 -21 197 -98 callsubr
          77 408 -91 callsubr
        </CharString>
        <CharString name="abreve">
          -45 callgsubr
          59 66 122 -98 callsubr
          4 callgsubr
          endchar
        </CharString>
        <CharString name="abreveacute">
          -45 callgsubr
          59 66 328 -98 callsubr
          4 callgsubr
          -66 132 -102 callgsubr
        </CharString>
        <CharString name="abrevedotbelow">
          -45 callgsubr
          59 66 122 -20 63 callsubr
          11 156 -3 117 hintmask 10100101
          -106 callsubr
          hintmask 01011001
          -26 0 -48 107 vhcurveto
          49 hlineto
          19 14 0 25 hvcurveto
          -207 114 rmoveto
          -105 -116 0 -4 -51 -42 33 45 33 18 78 195 9 vhcurveto
          4 callgsubr
          hintmask 00000010
          -107 -822 -101 callsubr
        </CharString>
        <CharString name="abrevegrave">
          -45 callgsubr
          59 66 122 -98 callsubr
          4 callgsubr
          -64 80 rmoveto
          -24 -45 -168 51 -15 5 -26 8 -6 33 rlinecurve
          38 -8 29 36 39 hhcurveto
          17 12 -10 -21 28 hvcurveto
          endchar
        </CharString>
        <CharString name="abrevehookabove">
          -45 callgsubr
          59 66 330 -103 callsubr
          hintmask 00011010
          4 callgsubr
          -69 144 -107 callgsubr
        </CharString>
        <CharString name="abrevetilde">
          -45 callgsubr
          59 66 177 126 callgsubr
          hintmask 10100011
          -106 callsubr
          hintmask 01000001
          -26 0 -48 107 vhcurveto
          49 hlineto
          19 14 0 25 hvcurveto
          -207 114 rmoveto
          -105 -116 0 -4 -51 -42 33 45 33 18 78 195 9 vhcurveto
          hintmask 00010100
          4 callgsubr
          12 143 rmoveto
          -29 28 rlineto
          hintmask 00001000
          -83 callgsubr
          hintmask 00000100
          -87 callgsubr
          hintmask 00001000
          29 -28 rlineto
          hintmask 00000100
          -83 callsubr
          hintmask 00001000
          -85 callgsubr
        </CharString>
        <CharString name="acaron">
          -45 callgsubr
          70 -21 207 -98 callsubr
          103 455 -58 callsubr
        </CharString>
        <CharString name="acircumflex">
          -45 callgsubr
          70 -21 207 -98 callsubr
          103 292 -62 callgsubr
          endchar
        </CharString>
        <CharString name="acircumflexacute">
          -45 callgsubr
          70 -21 371 -98 callsubr
          101 294 -68 callgsubr
        </CharString>
        <CharString name="acircumflexdotbelow">
          -45 callgsubr
          70 -21 207 -20 63 callsubr
          11 156 -3 117 hintmask 10100101
          -106 callsubr
          hintmask 01011001
          -26 0 -48 107 vhcurveto
          49 hlineto
          19 14 0 25 hvcurveto
          -207 114 rmoveto
          -105 -116 0 -4 -51 -42 33 45 33 18 78 195 9 vhcurveto
          103 292 -62 callgsubr
          hintmask 00000010
          -80 -624 -101 callsubr
        </CharString>
        <CharString name="acircumflexgrave">
          -45 callgsubr
          70 -21 165 -98 callsubr
          101 294 -73 callsubr
        </CharString>
        <CharString name="acircumflexhookabove">
          -45 callgsubr
          70 -21 373 -98 callsubr
          101 294 -94 callsubr
          71 309 -107 callgsubr
        </CharString>
        <CharString name="acircumflextilde">
          -45 callgsubr
          70 -21 220 126 callgsubr
          hintmask 10100011
          -106 callsubr
          hintmask 01000001
          -26 0 -48 107 vhcurveto
          49 hlineto
          19 14 0 25 hvcurveto
          -207 114 rmoveto
          -105 -116 0 -4 -51 -42 33 45 33 18 78 195 9 vhcurveto
          hintmask 00010100
          101 294 -94 callsubr
          38 308 rmoveto
          -29 28 rlineto
          hintmask 00001000
          -83 callgsubr
          hintmask 00000100
          -87 callgsubr
          hintmask 00001000
          29 -28 rlineto
          hintmask 00000100
          -83 callsubr
          hintmask 00001000
          -85 callgsubr
        </CharString>
        <CharString name="acute">
          592 528 39 callsubr
          hstem
          447 640 -91 callsubr
        </CharString>
        <CharString name="acute.cap">
          592 519 -21 171 -20 hstem
          455 595 -102 callgsubr
        </CharString>
        <CharString name="acute.dup">
          592 528 39 callsubr
          hstem
          447 640 -91 callsubr
        </CharString>
        <CharString name="acute.ts1">
          109 callsubr
          472 640 rmoveto
          32 -29 33 -33 vhcurveto
          hintmask 11000000
          -3 -2 -1 -3 hhcurveto
          -22 -3 -14 -17 -15 -16 -70 -79 rcurveline
          -22 -24 rlineto
          -4 -4 -8 -7 -6 vvcurveto
          -10 27 -28 4 11 22 15 8 14 vhcurveto
          92 46 rlineto
          25 12 30 16 33 vvcurveto
          endchar
        </CharString>
        <CharString name="adblgrave">
          -45 callgsubr
          75 -21 197 -98 callsubr
          79 304 -93 callgsubr
        </CharString>
        <CharString name="adieresis">
          -45 callgsubr
          82 141 63 callsubr
          -109 20 callgsubr
          -126 117 hintmask 10101001
          -106 callsubr
          hintmask 01000001
          -26 0 -48 107 vhcurveto
          49 hlineto
          19 14 0 25 hvcurveto
          -207 114 rmoveto
          -105 -116 0 -4 -51 -42 33 45 33 18 78 195 9 vhcurveto
          hintmask 00010110
          -132 373 -63 callsubr
        </CharString>
        <CharString name="adotbelow">
          -45 callgsubr
          63 callsubr
          11 156 -3 117 hintmask 10110100
          -106 callsubr
          hintmask 01000100
          -26 0 -48 107 vhcurveto
          49 hlineto
          19 14 0 25 hvcurveto
          -207 114 rmoveto
          -105 -116 0 -4 -51 -42 33 45 33 18 78 195 9 vhcurveto
          hintmask 00001000
          3 -354 -101 callsubr
        </CharString>
        <CharString name="ae">
          62 callsubr
          hstemhm
          258 130 0 98 0 130 cntrmask 00000111
          hintmask 01011111
          821 -47 callgsubr
          -79 -58 -27 -29 -34 hvcurveto
          56 -63 -89 0 -35 hhcurveto
          -49 -136 0 -94 -45 34 -21 31 96 callgsubr
          -10 callgsubr
          25 1 3 137 126 hhcurveto
          101 4 -120 -42 2 hvcurveto
          -335 -126 rmoveto
          hintmask 10100111
          -53 -67 -38 -72 -52 -38 31 41 129 callsubr
          68 callgsubr
          endchar
        </CharString>
        <CharString name="ae.dup">
          62 callsubr
          64 callsubr
          hintmask 0101110010011000
          821 -47 callgsubr
          -79 -58 -27 -29 -34 hvcurveto
          56 -63 -89 0 -35 hhcurveto
          -49 -136 0 -94 hvcurveto
          hintmask 0000001000000000
          -45 34 -21 31 vhcurveto
          hintmask 0000110100000000
          96 callgsubr
          hintmask 1001000001001000
          -10 callgsubr
          hintmask 1001100000011000
          15 callsubr
          -335 -126 rmoveto
          -53 -67 -38 -72 -52 -38 31 41 vhcurveto
          hintmask 0010000001000000
          129 callsubr
          hintmask 0000000100100000
          68 callgsubr
          endchar
        </CharString>
        <CharString name="aeacute">
          62 callsubr
          75 -21 197 -20 64 callsubr
          hintmask 0101100100100110
          821 -47 callgsubr
          -79 -58 -27 -29 -34 hvcurveto
          56 -63 -89 0 -35 hhcurveto
          -49 -136 0 -94 hvcurveto
          hintmask 0000000010000000
          -45 34 -21 31 vhcurveto
          hintmask 0000100101000000
          96 callgsubr
          hintmask 1001000000010010
          -10 callgsubr
          hintmask 1001100000000110
          15 callsubr
          -335 -126 rmoveto
          -53 -67 -38 -72 -52 -38 31 41 vhcurveto
          hintmask 0010000000010000
          129 callsubr
          hintmask 0000000001001000
          68 callgsubr
          hintmask 0000011000000000
          190 515 -91 callsubr
        </CharString>
        <CharString name="agrave">
          -45 callgsubr
          75 -21 197 -103 callsubr
          hintmask 00011100
          1 316 -63 callgsubr
        </CharString>
        <CharString name="ahookabove">
          -45 callgsubr
          77 -21 193 -103 callsubr
          hintmask 00011010
          41 406 -107 callgsubr
        </CharString>
        <CharString name="amacron">
          -45 callgsubr
          125 55 63 callsubr
          164 117 hintmask 10101100
          -106 callsubr
          hintmask 01000100
          -26 0 -48 107 vhcurveto
          49 hlineto
          19 14 0 25 hvcurveto
          -207 114 rmoveto
          -105 -116 0 -4 -51 -42 33 45 33 18 78 195 9 vhcurveto
          hintmask 00010000
          139 346 -35 callgsubr
        </CharString>
        <CharString name="ampersand">
          920 -12 49 214 49 36 40 -40 49 10 49 222 40 hstemhm
          49 133 -5 107 79 107 -43 51 324 51 hintmask 0001100010000000
          860 395 rmoveto
          78 callsubr
          -32 0 -34 hhcurveto
          -120 74 callgsubr
          26 18 0 -10 24 hvcurveto
          -100 -152 -55 -52 -42 -40 -9 10 -23 23 -8 10 rrcurveto
          hintmask 0110010101000000
          -68 75 -41 52 -31 65 rrcurveto
          102 87 46 57 52 vvcurveto
          55 -35 79 -81 -80 -105 -59 -121 -54 11 -58 31 -78 vhcurveto
          -44 -36 -2 0 -59 -49 rrcurveto
          hintmask 1001101000100000
          -27 -23 -38 -31 -58 vvcurveto
          -93 97 -58 118 64 66 17 45 73 vhcurveto
          -25 43 82 -37 94 hhcurveto
          83 81 44 85 3 hvcurveto
          -51 hlineto
          -74 -5 -89 -6 -17 hhcurveto
          -36 -45 13 58 -65 hvcurveto
          73 70 16 17 100 141 30 42 rcurveline
          17 12 40 0 44 hhcurveto
          -433 177 rmoveto
          -65 -106 -85 -8 -7 vhcurveto
          hintmask 0000010110000000
          -3 9 -26 66 74 vvcurveto
          78 51 24 28 vhcurveto
          hintmask 1100001001000000
          51 13 -65 -29 hvcurveto
          -3 -493 rmoveto
          -13 -24 -55 -29 -71 hhcurveto
          -77 -15 95 41 46 13 51 43 30 hvcurveto
          24 -48 65 -103 97 -70 rrcurveto
          endchar
        </CharString>
        <CharString name="anglearc">
          920 -123 -21 788 -20 hstem
          647 64 vstem
          853 32 rmoveto
          14 -10 13 -13 4 vhcurveto
          -137 41 rlineto
          12 47 6 49 50 vvcurveto
          50 -6 49 -12 47 vhcurveto
          137 41 rlineto
          13 4 10 13 14 vvcurveto
          21 -21 16 -20 -6 vhcurveto
          -137 -42 -23 63 -32 59 -43 53 rlinecurve
          7 -5 -9 5 -11 hhcurveto
          -17 -15 -14 -18 -8 3 -6 4 -6 hvcurveto
          37 -46 29 -52 20 -55 -524 -158 rcurveline
          -13 -4 -10 -13 -14 vvcurveto
          -14 10 -13 13 -4 vhcurveto
          524 -158 -20 -55 -29 -52 -37 -46 rlinecurve
          -4 -6 -3 -6 -8 vvcurveto
          -18 15 -14 17 11 9 5 7 5 vhcurveto
          43 53 32 59 23 63 137 -42 rcurveline
          20 -6 21 16 21 vvcurveto
          -206 218 rmoveto
          -43 -5 -43 -10 -42 vhcurveto
          -423 128 423 128 rlineto
          10 -42 5 -43 -43 vvcurveto
          endchar
        </CharString>
        <CharString name="angleleft">
          460 -228 -21 999 -20 21 -20 hstemhm
          hintmask 00100000
          393 -218 rmoveto
          10 -4 9 -4 9 vhcurveto
          -154 361 -23 55 rlineto
          -3 7 -7 10 8 vvcurveto
          9 9 13 3 9 vhcurveto
          31 73 105 246 31 73 5 13 9 13 2 14 rlinecurve
          5 vlineto
          18 -14 14 -18 vhcurveto
          hintmask 11000000
          -6 -1 -22 -4 -6 -24 -7 -18 rlinecurve
          -154 -361 rlineto
          -12 -30 -24 -39 -24 vvcurveto
          -11 6 -10 5 -10 vhcurveto
          22 -53 156 -366 8 -19 7 -28 25 -2 rlinecurve
          17 17 13 18 hvcurveto
          endchar
        </CharString>
        <CharString name="angleright">
          460 -228 -21 1000 -20 hstem
          329 251 rmoveto
          11 -6 11 -5 10 vhcurveto
          -23 55 -156 366 -7 18 -7 26 -23 3 rlinecurve
          -3 -4 0 -1 -3 hvcurveto
          -16 -2 -9 -15 -15 vvcurveto
          -16 11 -20 8 -16 vhcurveto
          140 -330 8 -20 9 -19 8 -20 rlinecurve
          3 -8 7 -10 -8 vvcurveto
          -7 -7 -13 -5 -10 vhcurveto
          -165 -388 rlineto
          -7 -15 -11 -18 -17 vvcurveto
          -17 14 -15 19 vhcurveto
          24 1 7 24 8 19 180 423 rcurveline
          4 10 7 11 12 vvcurveto
          endchar
        </CharString>
        <CharString name="aogonek">
          112 callgsubr
          hstemhm
          28 121 213 117 hintmask 00111100
          -39 callgsubr
          hintmask 01001100
          -105 -116 0 -4 -51 -42 33 45 33 18 78 195 9 vhcurveto
          endchar
        </CharString>
        <CharString name="aogonekacute">
          112 callgsubr
          39 callgsubr
          28 121 213 117 hintmask 00110011
          -39 callgsubr
          hintmask 01000011
          -105 -116 0 -4 -51 -42 33 45 33 18 78 195 9 vhcurveto
          hintmask 00001100
          77 408 -91 callsubr
        </CharString>
        <CharString name="aring">
          -45 callgsubr
          70 45 78 45 63 callsubr
          -35 58 132 58 -49 117 hintmask 1010010010000000
          -106 callsubr
          hintmask 0100000010000000
          -26 0 -48 107 vhcurveto
          49 hlineto
          19 14 0 25 hvcurveto
          -207 114 rmoveto
          -105 -116 0 -4 -51 -42 33 45 33 18 78 195 9 vhcurveto
          hintmask 0001101100000000
          -9 375 -58 callgsubr
        </CharString>
        <CharString name="aringacute">
          -45 callgsubr
          70 45 78 45 35 45 126 -20 63 callsubr
          -35 58 132 58 -49 117 hintmask 1010000100100000
          -106 callsubr
          hintmask 0100000000100000
          -26 0 -48 107 vhcurveto
          49 hlineto
          19 14 0 25 hvcurveto
          -207 114 rmoveto
          -105 -116 0 -4 -51 -42 33 45 33 18 78 195 9 vhcurveto
          hintmask 0001111011000000
          -9 375 -81 callgsubr
          -5 217 -102 callgsubr
        </CharString>
        <CharString name="asciicircum">
          556 583 -21 123 59 hstem
          -5 566 vstem
          561 584 rmoveto
          -283 160 -283 -160 11 -22 271 123 272 -123 rlineto
          endchar
        </CharString>
        <CharString name="asciitilde">
          556 193 43 -25 43 -8 43 -25 43 hstemhm
          hintmask 10010000
          555 290 51 callgsubr
          hintmask 01000000
          32 callsubr
          hintmask 00100000
          20 10 20 11 17 14 rrcurveto
          endchar
        </CharString>
        <CharString name="asciitilde.low">
          556 0 43 -25 43 -8 43 -25 43 hstemhm
          0 555 hintmask 10010000
          555 97 51 callgsubr
          hintmask 01001000
          32 callsubr
          hintmask 00101000
          20 10 20 11 17 14 rrcurveto
          endchar
        </CharString>
        <CharString name="asterisk">
          592 327 -21 444 -20 hstem
          248 95 vstem
          515 440 rmoveto
          29 -21 8 -11 4 vhcurveto
          -140 47 139 47 rlineto
          11 4 22 7 30 vvcurveto
          22 -18 27 -28 -6 -7 0 -11 -15 vhcurveto
          -124 -91 22 132 rlineto
          2 9 0 6 0 vvcurveto
          24 -22 16 -24 -21 -24 -14 -26 vhcurveto
          2 -14 22 -133 -124 90 rlineto
          10 -14 -2 2 -12 hhcurveto
          -27 -19 -27 -22 -29 21 -8 11 -4 hvcurveto
          140 -47 -139 -47 rlineto
          -11 -4 -22 -7 -30 vvcurveto
          -22 18 -27 28 6 7 0 11 15 vhcurveto
          124 91 -22 -132 rlineto
          -2 -9 0 -6 0 vvcurveto
          -24 22 -16 24 21 24 14 26 vhcurveto
          -2 14 -22 133 124 -90 rlineto
          -10 14 2 -2 12 hhcurveto
          27 19 27 22 hvcurveto
          endchar
        </CharString>
        <CharString name="asterisk.math">
          592 50 -21 444 -20 hstem
          202 93 -46 93 -46 93 cntrmask 00111000
          515 165 rmoveto
          35 -34 4 -26 10 vhcurveto
          -66 22 -15 5 -15 4 -14 6 rlinecurve
          14 6 15 4 15 5 66 22 rcurveline
          26 10 34 4 35 vvcurveto
          25 -21 27 -26 -19 -20 -20 -11 -15 vhcurveto
          -32 -24 -33 -23 -32 -25 20 112 rcurveline
          1 11 4 13 11 vvcurveto
          27 -25 13 -22 -21 -25 -13 -26 -14 4 -17 3 -14 vhcurveto
          6 -34 5 -35 7 -34 -40 31 -42 29 -40 30 rrcurveto
          7 -9 -8 6 -12 hhcurveto
          -26 -21 -27 -25 -35 34 -4 26 -10 hvcurveto
          66 -22 15 -5 15 -4 14 -6 rlinecurve
          -35 -15 -39 -11 -36 -11 rrcurveto
          -26 -10 -34 -4 -35 vvcurveto
          -25 21 -27 26 19 20 20 11 15 vhcurveto
          32 24 33 23 32 25 -20 -112 rcurveline
          -1 -11 -4 -13 -11 vvcurveto
          -27 25 -13 22 21 25 13 26 14 -4 17 -3 14 vhcurveto
          -6 34 -5 35 -7 34 40 -31 42 -29 40 -30 rrcurveto
          -7 9 8 -6 12 hhcurveto
          26 21 27 25 hvcurveto
          endchar
        </CharString>
        <CharString name="at">
          920 -6 40 53 40 0 40 360 40 93 40 hstemhm
          66 51 107 117 0 117 3 117 0 117 107 51 hintmask 1100110000100000
          853 80 rmoveto
          16 -14 0 -15 vhcurveto
          -27 hlineto
          -15 -2 0 -9 -22 hvcurveto
          -43 -117 -106 -10 -72 hhcurveto
          -241 -105 150 163 180 124 133 218 197 146 -110 -209 hvcurveto
          hintmask 0011000101000000
          -95 -17 -79 -58 -32 0 45 12 vhcurveto
          229 vlineto
          26 -1 4 -31 vhcurveto
          -38 hlineto
          69 -47 -68 15 -52 hhcurveto
          hintmask 0000001000000000
          -141 -93 -89 -131 hvcurveto
          hintmask 1011110110100000
          -131 93 -89 141 67 46 28 17 21 vhcurveto
          -45 34 73 0 18 hhcurveto
          132 4 180 38 207 -147 148 -246 -258 -136 -159 -194 -178 118 -175 280 122 121 24 35 100 hvcurveto
          14 5 21 7 5 3 rrcurveto
          2 2 4 4 6 vvcurveto
          -275 146 rmoveto
          -53 -38 -56 -6 -23 hhcurveto
          -62 -58 54 126 127 58 53 62 22 56 -6 -53 39 hvcurveto
          endchar
        </CharString>
        <CharString name="atilde">
          -45 callgsubr
          95 79 -42 79 -104 callsubr
          hintmask 00001000
          122 404 -90 callgsubr
        </CharString>
        <CharString name="b">
          657 -6 40 -34 57 353 40 187 57 hstemhm
          109 111 6 133 125 133 hintmask 01111000
          617 222 rmoveto
          135 -97 93 -148 -80 -53 -34 -14 -19 vhcurveto
          292 vlineto
          -179 -90 callsubr
          -598 51 vlineto
          47 57 rlineto
          hintmask 10100110
          14 callgsubr
        </CharString>
        <CharString name="backslash">
          575 750 -20 hstem
          510 -219 rmoveto
          6 -1 1 -5 13 vhcurveto
          -377 919 rlineto
          17 -7 -5 13 -21 hhcurveto
          -14 -16 -11 -20 -6 1 -1 5 -13 hvcurveto
          377 -919 rlineto
          -15 6 6 -15 21 hhcurveto
          14 16 11 20 hvcurveto
          endchar
        </CharString>
        <CharString name="baht">
          841 0 49 248 40 0 40 260 49 hstemhm
          150 133 104 50 80 50 29 145 hintmask 10111111
          774 186 rmoveto
          87 -74 71 -133 15 vhcurveto
          110 19 64 62 74 vvcurveto
          92 -90 80 -165 vhcurveto
          -49 50 hlineto
          132 callgsubr
          -13 -12 -11 -14 vhcurveto
          -50 -345 -49 108 -588 -108 -49 345 -50 vlineto
          -14 12 -11 13 14 11 11 14 vhcurveto
          50 80 vlineto
          171 86 89 97 hvcurveto
          -178 328 rmoveto
          -73 -49 -64 -100 vhcurveto
          -10 260 36 hlineto
          119 4 -103 -20 hvcurveto
          -209 -137 rmoveto
          -104 260 104 hlineto
          236 -449 rmoveto
          -69 -40 -70 -108 vhcurveto
          -38 288 48 hlineto
          hintmask 11001100
          16 53 0 -40 34 hvcurveto
          29 -36 6 -41 -32 vvcurveto
          -236 -139 rmoveto
          -104 288 104 hlineto
          endchar
        </CharString>
        <CharString name="bar">
          319 750 -20 hstem
          129 61 vstem
          190 -206 rmoveto
          23 callsubr
          endchar
        </CharString>
        <CharString name="bigcircle">
          48 callsubr
          558 -69 callgsubr
          endchar
        </CharString>
        <CharString name="blanksymbol">
          657 -6 40 -34 57 353 40 -18 40 69 57 31 40 -40 57 -49 57 hstemhm
          109 111 6 133 125 133 hintmask 0010101010000000
          617 222 rmoveto
          135 -97 93 -148 -80 -53 -34 -14 -19 vhcurveto
          139 vlineto
          112 88 rlineto
          6 5 3 7 8 vvcurveto
          132 callgsubr
          vhcurveto
          hintmask 0000010010000000
          -6 -5 -2 -3 -4 hvcurveto
          -81 -64 rlineto
          hintmask 0000000110000000
          89 vlineto
          hintmask 0000001000000000
          -179 -8 rlineto
          hintmask 0101100110000000
          -49 vlineto
          60 8 0 -39 hvcurveto
          -80 vlineto
          -58 -46 rlineto
          -6 -5 -4 -7 -8 vvcurveto
          144 callgsubr
          6 5 2 3 4 vhcurveto
          28 22 rlineto
          -454 51 vlineto
          47 57 rlineto
          hintmask 1010000001100000
          14 callgsubr
        </CharString>
        <CharString name="braceleft">
          79 callgsubr
          -232 rmoveto
          13 -5 4 -12 1 vhcurveto
          -84 5 -37 35 -12 36 rrcurveto
          -3 10 0 8 17 vvcurveto
          237 vlineto
          -1 42 -32 51 -86 23 rrcurveto
          119 32 0 69 45 vvcurveto
          210 vlineto
          22 0 29 39 29 vhcurveto
          11 7 29 18 52 3 rrcurveto
          14 1 8 0 17 vvcurveto
          18 -9 0 -22 -142 -90 -50 -77 -1 vhcurveto
          -206 vlineto
          -62 0 -21 -33 -29 vhcurveto
          -23 -21 -35 -14 -41 -2 rrcurveto
          -14 -1 -8 0 -17 vvcurveto
          -13 5 -4 12 -1 vhcurveto
          90 -5 36 -45 9 -36 rrcurveto
          2 -8 0 -2 -37 vvcurveto
          -210 vlineto
          -128 166 -11 67 22 9 0 18 vhcurveto
          endchar
        </CharString>
        <CharString name="braceright">
          79 callgsubr
          250 rmoveto
          13 -5 4 -12 1 vhcurveto
          -64 3 -52 26 -17 55 rrcurveto
          -3 8 0 2 39 vvcurveto
          210 vlineto
          123 -152 16 -82 -21 -10 0 -18 -13 5 -4 12 -1 vhcurveto
          81 -4 41 -33 12 -39 rrcurveto
          3 -10 0 -8 -17 vvcurveto
          -237 vlineto
          1 -42 31 -50 87 -24 rrcurveto
          -119 -32 0 -68 -46 vvcurveto
          -210 vlineto
          -23 0 -26 -37 -29 vhcurveto
          -10 -7 -31 -20 -54 -3 rrcurveto
          -14 -1 -8 0 -17 vvcurveto
          -18 10 0 21 150 83 54 73 1 vhcurveto
          206 vlineto
          65 0 17 34 31 vhcurveto
          11 11 33 22 53 3 rrcurveto
          14 1 8 0 17 vvcurveto
          endchar
        </CharString>
        <CharString name="bracketleft">
          329 -250 64 872 64 hstem
          131 64 vstem
          302 -250 rmoveto
          64 -107 872 107 64 -171 -1000 vlineto
          endchar
        </CharString>
        <CharString name="bracketright">
          329 -250 64 872 64 hstem
          133 64 vstem
          197 -250 rmoveto
          1000 -171 -64 107 -872 -107 -64 vlineto
          endchar
        </CharString>
        <CharString name="breve">
          130 callsubr
          122 -20 hstem
          480 700 -101 callgsubr
          endchar
        </CharString>
        <CharString name="breve.cap">
          592 498 66 122 -20 hstem
          480 686 -101 callgsubr
          endchar
        </CharString>
        <CharString name="breve.ts1">
          723 507 66 122 -20 hstem
          111 40 420 40 vstem
          611 695 rmoveto
          -40 hlineto
          -99 -127 -23 -79 -84 -130 21 101 vhcurveto
          -40 hlineto
          -114 118 -74 134 108 140 57 131 vhcurveto
          endchar
        </CharString>
        <CharString name="brokenbar">
          319 750 -20 hstem
          129 61 vstem
          190 341 rmoveto
          365 vlineto
          14 0 30 -30 -31 0 -29 -15 vhcurveto
          -365 vlineto
          -15 15 -10 16 15 15 10 15 vhcurveto
          -547 vmoveto
          365 vlineto
          15 -15 10 -15 -16 -15 -10 -15 vhcurveto
          -365 35 callgsubr
          endchar
        </CharString>
        <CharString name="bullet">
          920 73 306 hstem
          307 306 vstem
          613 225 rmoveto
          90 -72 64 -80 -90 -64 -72 -80 -90 72 -64 80 90 64 72 80 vhcurveto
          endchar
        </CharString>
        <CharString name="c">
          82 callsubr
          177 130 -117 130 hintmask 11101000
          -49 callgsubr
          -3 -5 rlineto
          hintmask 11110000
          -9 -11 -4 -16 -14 vvcurveto
          -41 31 -24 34 31 34 21 45 94 -140 0 -39 -192 -69 -122 63 callgsubr
          90 -102 166 37 49 6 26 42 vhcurveto
          hintmask 00001000
          57 35 12 52 3 vvcurveto
          endchar
        </CharString>
        <CharString name="cacute">
          49 callsubr
          75 -21 197 -57 callgsubr
          -52 524 -91 callsubr
        </CharString>
        <CharString name="caron">
          592 84 callgsubr
          473 687 -58 callsubr
        </CharString>
        <CharString name="caron.cap">
          106 callgsubr
          165 -20 hstem
          471 629 -62 callsubr
        </CharString>
        <CharString name="caron.ts1">
          723 571 -21 168 -20 hstem
          585 672 rmoveto
          -22 46 -202 -82 -59 23 -143 59 -22 -46 204 -113 20 -9 64 33 rlineto
          endchar
        </CharString>
        <CharString name="ccaron">
          49 callsubr
          70 -21 207 -57 callgsubr
          -26 571 -58 callsubr
        </CharString>
        <CharString name="ccedilla">
          82 callsubr
          142 133 -98 130 -117 130 hintmask 11110000
          -49 callgsubr
          hintmask 00000100
          -3 -5 rlineto
          hintmask 01101000
          -9 -11 -4 -16 -14 vvcurveto
          -41 31 -24 34 31 34 21 45 94 -140 0 -39 -192 -69 -122 -109 -111 69 -92 129 -21 vhcurveto
          -86 vlineto
          36 42 0 -30 -30 -89 0 -69 hvcurveto
          -26 -52 52 hlineto
          hintmask 00010000
          120 99 callsubr
          33 vlineto
          27 4 29 9 26 16 rrcurveto
          hintmask 00000100
          57 35 12 52 3 vvcurveto
          endchar
        </CharString>
        <CharString name="ccircumflex">
          49 callsubr
          70 -21 207 -57 callgsubr
          -26 408 -62 callgsubr
          endchar
        </CharString>
        <CharString name="cdotaccent">
          49 callsubr
          74 157 hstemhm
          39 133 39 156 -18 130 -117 130 hintmask 11010010
          -49 callgsubr
          -3 -5 rlineto
          hintmask 11010100
          -9 -11 -4 -16 -14 vvcurveto
          -41 31 -24 34 31 34 21 45 94 -140 0 -39 -192 -69 -122 63 callgsubr
          90 -102 166 37 49 6 26 42 vhcurveto
          hintmask 00000010
          57 35 12 52 3 vvcurveto
          hintmask 00101000
          -125 489 -101 callsubr
        </CharString>
        <CharString name="cedilla">
          8 callsubr
        </CharString>
        <CharString name="cedilla.dup">
          8 callsubr
        </CharString>
        <CharString name="cent">
          82 callsubr
          92 50 35 130 -117 130 hintmask 11010100
          492 116 rmoveto
          16 -15 0 -11 -20 0 -1 -18 -8 vhcurveto
          -48 -20 -45 -28 -59 hhcurveto
          373 vlineto
          18 -1 33 -1 -4 vvcurveto
          -3 -5 rlineto
          hintmask 01111000
          -9 -11 -4 -16 -14 vvcurveto
          -41 31 -24 34 31 34 21 45 85 -114 8 -51 1 vhcurveto
          41 vlineto
          132 callgsubr
          -14 -11 -11 -14 vhcurveto
          -42 vlineto
          -165 -15 -60 -113 -102 vvcurveto
          -118 79 -97 146 -12 vhcurveto
          -45 vlineto
          144 callgsubr
          14 11 11 14 vhcurveto
          45 vlineto
          34 2 40 7 35 22 rrcurveto
          hintmask 00110100
          57 35 12 52 3 vvcurveto
          -228 -72 rmoveto
          -92 30 0 113 39 vvcurveto
          53 1 104 91 22 vhcurveto
          endchar
        </CharString>
        <CharString name="cent.oldstyle">
          82 callsubr
          38 130 -105 130 -66 50 0 130 -117 130 hintmask 10010000
          492 116 rmoveto
          16 -15 0 -11 -20 0 -1 -18 -8 vhcurveto
          -48 -20 -45 -28 -59 hhcurveto
          -22 -18 3 6 -16 hvcurveto
          82 363 rlineto
          hintmask 00001000
          13 -1 12 -2 -2 vvcurveto
          hintmask 00000101
          -3 -5 rlineto
          -9 -11 -4 -16 -14 vvcurveto
          -41 31 -24 34 vhcurveto
          hintmask 00000010
          31 34 21 45 68 -74 19 -56 5 hvcurveto
          9 38 rlineto
          16 3 -11 14 -16 hhcurveto
          -12 -10 -8 -11 -3 hvcurveto
          hintmask 01100100
          -10 -47 rlineto
          -191 -1 -69 -121 -109 vvcurveto
          -99 55 -84 104 -31 vhcurveto
          -12 -52 rlineto
          hintmask 00010000
          -16 -4 12 -15 16 hhcurveto
          hintmask 10001000
          12 10 8 11 3 hvcurveto
          12 53 rlineto
          -2 15 16 -1 17 hhcurveto
          37 49 6 26 42 hvcurveto
          hintmask 00100001
          57 35 12 52 3 vvcurveto
          -203 293 rmoveto
          -76 -332 rlineto
          -41 46 0 73 30 vvcurveto
          58 1 116 116 9 vhcurveto
          endchar
        </CharString>
        <CharString name="centigrade">
          1117 -11 50 135 50 200 64 -4 64 76 64 -39 50 1 -20 hstemhm
          329 158 hintmask 00010010
          1051 454 rmoveto
          10 -1 10 10 vvcurveto
          193 vlineto
          11 -3 12 -15 vhcurveto
          -28 -53 -66 -8 hhcurveto
          -1 hlineto
          -4 -8 8 3 -6 hvcurveto
          hintmask 11000101
          34 -51 -61 20 -62 hhcurveto
          -32 hlineto
          -128 -12 -129 -33 -76 -117 rrcurveto
          -37 -57 -19 -69 -68 vvcurveto
          -86 29 -85 60 -63 vhcurveto
          -86 81 125 -34 115 hhcurveto
          124 141 59 126 37 hvcurveto
          5 17 4 18 18 vvcurveto
          15 -3 9 -18 vhcurveto
          -9 hlineto
          -12 -9 -4 -16 hvcurveto
          -7 vlineto
          -9 -59 -22 -41 -44 -33 rrcurveto
          -37 -47 -57 -15 -58 hhcurveto
          -73 -80 22 54 -53 hvcurveto
          -59 60 -10 90 79 vvcurveto
          73 9 87 51 60 vhcurveto
          61 52 87 24 77 hhcurveto
          114 84 -82 -108 27 hvcurveto
          -18 2 0 -16 22 hhcurveto
          13 hlineto
          20 6 5 24 hvcurveto
          -788 103 rmoveto
          hintmask 00101000
          77 -57 54 -74 vhcurveto
          -5 -4 -1 -5 hhcurveto
          -76 -11 -41 -53 -68 vvcurveto
          -77 57 -54 74 82 49 62 71 vhcurveto
          -64 -1 rmoveto
          -37 -25 -31 -42 vhcurveto
          hintmask 00011000
          -38 -25 25 35 -4 hvcurveto
          8 vlineto
          37 25 31 42 38 25 -26 -34 4 vhcurveto
          endchar
        </CharString>
        <CharString name="circumflex">
          592 84 callgsubr
          473 524 -62 callgsubr
          endchar
        </CharString>
        <CharString name="circumflex.cap">
          106 callgsubr
          165 -20 hstem
          471 512 -57 callsubr
        </CharString>
        <CharString name="circumflex.dup">
          592 84 callgsubr
          473 524 -62 callgsubr
          endchar
        </CharString>
        <CharString name="colon">
          329 0 42 callgsubr
          -287 vmoveto
          18 callsubr
        </CharString>
        <CharString name="colonmonetary">
          58 callgsubr
          141 callsubr
          65 157 0 50 243 50 hintmask 11101100
          788 228 rmoveto
          22 -10 0 -16 -11 -13 0 -16 -1 vhcurveto
          -145 -8 -133 -52 -95 hhcurveto
          -6 612 4 hlineto
          88 116 -53 -159 26 hvcurveto
          -13 2 12 0 15 hhcurveto
          27 3 2 27 hvcurveto
          216 vlineto
          18 0 11 -20 -10 -2 -2 -8 -9 vhcurveto
          -66 -58 -53 42 -66 22 -67 4 rlinecurve
          38 vlineto
          132 callgsubr
          -14 -11 -11 -14 vhcurveto
          -39 vlineto
          -238 -12 -141 -148 -194 vvcurveto
          -189 135 -152 244 -13 vhcurveto
          -39 vlineto
          144 callgsubr
          14 11 11 14 vhcurveto
          38 vlineto
          179 7 114 116 117 vvcurveto
          -343 -187 rmoveto
          -52 8 -62 20 -48 53 rrcurveto
          -53 60 -7 93 68 vvcurveto
          hintmask 00010000
          120 24 60 41 46 vhcurveto
          37 41 57 26 63 9 rrcurveto
          endchar
        </CharString>
        <CharString name="comma">
          329 -173 103 callsubr
          170 hintmask 00110000
          256 31 rmoveto
          69 -35 57 -57 -50 -28 -39 -39 -40 27 -39 52 21 18 8 9 11 vhcurveto
          hintmask 11010000
          -5 -80 -39 -56 -48 -38 rrcurveto
          -5 -4 -5 -3 -8 vvcurveto
          -10 12 -12 10 15 106 86 139 vhcurveto
          endchar
        </CharString>
        <CharString name="copyleft">
          48 callsubr
          558 -69 callgsubr
          -106 hmoveto
          86 -66 64 -108 -31 -31 -9 -20 -24 vhcurveto
          -28 25 rlineto
          3 -4 -1 1 -4 hhcurveto
          -8 0 -5 -7 hvcurveto
          -91 vlineto
          -12 1 -1 11 7 5 0 6 1 vhcurveto
          67 11 48 22 38 hhcurveto
          35 34 -11 -23 20 hvcurveto
          17 -19 10 -25 -51 vvcurveto
          -29 -3 -39 -22 -25 vhcurveto
          -32 -28 -41 -4 -23 hhcurveto
          -40 -56 22 61 -4 hvcurveto
          7 -6 0 -4 -7 -4 0 -10 -50 51 -51 79 112 63 66 84 vhcurveto
          endchar
        </CharString>
        <CharString name="copyright">
          48 callsubr
          558 -69 callgsubr
          -146 -49 rmoveto
          10 -5 0 -6 -5 -6 0 -7 vhcurveto
          -61 -3 -57 -22 -40 hhcurveto
          -22 -41 4 32 -29 hvcurveto
          -22 25 -3 39 29 vvcurveto
          51 10 25 17 20 vhcurveto
          22 20 34 11 35 hhcurveto
          38 49 -22 -67 11 hvcurveto
          -6 6 0 6 11 2 1 12 vhcurveto
          91 vlineto
          7 0 5 -9 -4 -1 -1 -3 -4 vhcurveto
          -28 -25 rlineto
          20 -24 -31 9 -30 hhcurveto
          -109 -65 -64 -86 -84 62 -66 112 79 52 51 50 hvcurveto
          endchar
        </CharString>
        <CharString name="copyright.alt">
          817 -186 64 491 64 134 64 hstem
          0 64 689 64 vstem
          817 222 rmoveto
          251 -158 158 -250 -251 -158 -158 -251 -251 158 -157 251 250 158 157 251 vhcurveto
          -64 hmoveto
          -211 -133 -133 -211 -212 -133 133 211 212 133 133 212 211 133 -133 -212 vhcurveto
          -127 -74 rmoveto
          14 -6 0 -11 -7 -8 0 -10 -1 vhcurveto
          -94 -5 -86 -34 -62 hhcurveto
          -35 -63 7 48 -43 hvcurveto
          -34 39 -5 60 44 vvcurveto
          78 16 39 26 30 vhcurveto
          34 31 52 17 54 hhcurveto
          57 75 -34 -103 17 hvcurveto
          -8 1 8 0 10 hhcurveto
          17 2 1 17 hvcurveto
          140 vlineto
          12 0 7 -13 -6 -2 -1 -5 -5 vhcurveto
          -43 -38 rlineto
          30 -37 -47 14 -48 hhcurveto
          -167 -100 -98 -132 -128 96 -102 172 122 78 78 78 hvcurveto
          endchar
        </CharString>
        <CharString name="currency">
          920 2 64 368 64 hstem
          212 64 368 64 vstem
          738 -28 rmoveto
          23 22 -22 22 -9 9 -73 74 rcurveline
          32 42 19 52 57 vvcurveto
          57 -19 53 -33 42 vhcurveto
          73 73 9 9 22 22 -22 22 rlinecurve
          -23 23 -22 -22 -9 -9 -73 -73 rcurveline
          32 -42 -52 19 -57 hhcurveto
          -57 -52 -19 -32 -42 hvcurveto
          -74 73 -9 10 -22 22 -23 -23 rlinecurve
          -22 -23 22 -22 9 -9 74 -74 rcurveline
          -33 -42 -19 -52 -57 vvcurveto
          -57 19 -52 32 -42 vhcurveto
          -73 -74 -9 -9 -22 -22 22 -22 rlinecurve
          23 -23 22 22 9 9 73 74 rcurveline
          -33 42 53 -19 57 hhcurveto
          57 53 19 32 42 hvcurveto
          73 -73 9 -9 22 -22 22 23 rlinecurve
          -94 278 rmoveto
          -102 -82 -82 -102 -101 -83 82 102 102 83 82 101 102 82 -82 -102 vhcurveto
          endchar
        </CharString>
        <CharString name="cwm">
          0 endchar
        </CharString>
        <CharString name="cwmascender">
          0 endchar
        </CharString>
        <CharString name="cwmcapital">
          0 endchar
        </CharString>
        <CharString name="d">
          657 -6 40 -34 49 361 40 187 36 callsubr
          hintmask 01001001
          44 callgsubr
          hintmask 10110110
          -28 callgsubr
          hintmask 01000000
          115 vmoveto
          hintmask 10100110
          -27 callgsubr
          endchar
        </CharString>
        <CharString name="dagger">
          511 388 111 203 -20 hstemhm
          200 111 -32 111 hintmask 10010000
          447 443 rmoveto
          136 callgsubr
          -33 -16 -9 -2 -13 -3 3 28 7 23 9 27 rrcurveto
          hintmask 11100000
          11 36 11 37 33 vvcurveto
          49 -37 10 -18 -22 -34 -13 -46 -33 11 -36 10 -32 vhcurveto
          10 -33 7 -23 3 -27 -10 2 -11 3 -19 9 rrcurveto
          12 -24 -29 14 -27 99 callgsubr
          33 16 9 2 13 3 -3 -27 -10 -28 -7 -20 rrcurveto
          -21 -64 0 -15 -43 vvcurveto
          -129 10 -130 16 -128 vhcurveto
          2 -16 4 -28 3 -4 rrcurveto
          -7 3 8 0 9 hhcurveto
          hintmask 00010000
          11 10 0 11 3 hvcurveto
          hintmask 00100000
          2 12 30 208 211 vvcurveto
          46 0 12 -23 70 vhcurveto
          -7 21 -8 25 -3 23 10 -2 11 -3 19 -9 rrcurveto
          hintmask 10010000
          -12 24 29 -14 27 hhcurveto
          41 16 30 25 hvcurveto
          endchar
        </CharString>
        <CharString name="daggerdbl">
          511 -32 111 323 111 -92 110 171 -20 hstemhm
          200 111 hintmask 00100000
          447 476 rmoveto
          28 -19 27 -37 vhcurveto
          hintmask 01011000
          -18 -23 -6 -12 -24 hvcurveto
          -32 -15 -6 -2 -17 -4 3 18 1 8 13 33 rrcurveto
          13 34 10 31 28 vvcurveto
          44 -34 14 -21 -26 -30 -16 -42 -31 14 -36 10 -27 vhcurveto
          12 -33 1 -6 3 -19 -15 4 -6 1 -19 9 rrcurveto
          hintmask 00101000
          12 -24 -28 13 -28 hhcurveto
          -37 -19 -27 -28 -13 6 -42 51 13 16 0 24 49 hvcurveto
          20 10 5 1 16 4 -3 -18 -1 -8 -13 -33 rrcurveto
          -13 -34 -10 -31 -28 vvcurveto
          -44 34 -14 21 26 30 16 42 vhcurveto
          hintmask 01001000
          31 -14 36 -10 27 vhcurveto
          -12 33 -1 6 -3 19 15 -4 6 -1 19 -9 rrcurveto
          hintmask 10101000
          -21 42 17 -4 20 hhcurveto
          51 6 42 13 hvcurveto
          -453 vmoveto
          136 callgsubr
          -28 -13 -12 -4 -14 -4 3 20 1 6 16 44 rrcurveto
          14 36 6 25 21 vvcurveto
          44 -34 14 -21 -26 -30 -16 -42 -28 11 -31 11 -30 vhcurveto
          14 -37 1 -7 3 -19 -13 3 -11 4 -15 8 rrcurveto
          12 -26 -28 13 -26 99 callgsubr
          22 10 16 7 16 4 -3 -20 -1 -6 -16 -44 rrcurveto
          -14 -36 -6 -25 -21 vvcurveto
          -44 34 -14 21 26 30 16 42 28 -11 31 -11 30 vhcurveto
          -14 37 -1 7 -3 19 18 -5 15 -7 23 -10 rrcurveto
          -9 18 24 -9 21 hhcurveto
          41 16 30 25 hvcurveto
          endchar
        </CharString>
        <CharString name="dblbracketleft">
          477 -249 64 872 64 hstem
          131 64 84 64 vstem
          450 -249 rmoveto
          64 -107 872 107 64 -319 -1000 vlineto
          148 64 rmoveto
          -84 872 84 hlineto
          endchar
        </CharString>
        <CharString name="dblbracketright">
          477 -249 64 872 64 hstem
          133 64 84 64 vstem
          345 -249 rmoveto
          1000 -318 -64 106 -872 -106 -64 vlineto
          254 64 rmoveto
          -84 872 84 hlineto
          endchar
        </CharString>
        <CharString name="dblgrave.ts1">
          592 537 -21 195 -20 hstem
          251 542 17 callsubr
          226 19 17 callsubr
          endchar
        </CharString>
        <CharString name="dblverticalbar">
          511 750 -20 hstem
          129 61 131 61 vstem
          190 -206 rmoveto
          23 callsubr
          192 hmoveto
          23 callsubr
          endchar
        </CharString>
        <CharString name="dcaron">
          657 -6 40 -34 49 361 40 2 -21 145 118 -57 36 callsubr
          hintmask 0100001001000000
          44 callgsubr
          hintmask 1010010110000000
          -28 callgsubr
          hintmask 0100000000000000
          115 vmoveto
          hintmask 1010001110000000
          -27 callgsubr
          289 251 135 callsubr
          hintmask 0001100000000000
          -30 20 -30 39 16 14 6 7 8 vhcurveto
          -4 -60 -29 -42 -36 -28 rrcurveto
          -4 -3 -4 -3 -6 vvcurveto
          -7 9 -9 8 11 80 64 105 vhcurveto
          endchar
        </CharString>
        <CharString name="dcroat">
          657 -6 40 -40 50 -44 49 361 40 69 50 68 36 callsubr
          hintmask 0010101001000000
          615 68 callsubr
          431 68 50 -68 125 vlineto
          hintmask 1001110110000000
          -179 -90 callsubr
          -29 -173 -50 173 -114 vlineto
          32 -44 -47 13 -48 hhcurveto
          -163 -95 -99 -129 -133 94 -95 152 hvcurveto
          hintmask 0100000010000000
          63 50 24 26 32 hvcurveto
          -50 vlineto
          hintmask 0010000000000000
          115 vmoveto
          hintmask 1001000110000000
          -27 callgsubr
          endchar
        </CharString>
        <CharString name="ddotbelow">
          657 -6 40 -34 49 361 40 187 49 -49 57 hstemhm
          39 133 78 156 -109 133 0 117 hintmask 0100100010000000
          44 callgsubr
          hintmask 1011010100000000
          -28 callgsubr
          hintmask 0100000000000000
          115 vmoveto
          hintmask 1010010100000000
          -27 callgsubr
          hintmask 0000001000000000
          -24 -471 -101 callsubr
        </CharString>
        <CharString name="degree">
          444 357 64 201 64 hstem
          58 64 200 64 vstem
          386 522 rmoveto
          91 -73 73 -91 -91 -73 -73 -91 -91 73 -74 91 91 73 74 91 vhcurveto
          -64 hmoveto
          -56 -45 -45 -55 -56 -44 45 56 55 44 45 56 55 45 -45 -55 vhcurveto
          endchar
        </CharString>
        <CharString name="diameter">
          920 -132 64 636 64 hstem
          78 64 636 64 vstem
          853 612 rmoveto
          18 -14 14 -18 -9 -8 -4 -5 -6 vhcurveto
          -92 -93 rlineto
          56 -66 -86 34 -94 hhcurveto
          -211 -171 -171 -211 -94 34 -86 56 -66 hvcurveto
          -93 -93 rlineto
          -5 -6 -4 -8 -9 vvcurveto
          -18 14 -14 18 9 8 4 5 6 vhcurveto
          92 93 rlineto
          -56 67 86 -34 94 hhcurveto
          211 171 171 211 94 -34 86 -57 67 hvcurveto
          93 92 rlineto
          5 6 4 8 9 vvcurveto
          -75 -362 rmoveto
          -176 -142 -142 -176 -76 -70 27 45 -55 vhcurveto
          447 448 rlineto
          45 -55 27 -71 -76 vvcurveto
          -117 247 rmoveto
          -447 -448 rlineto
          -45 55 -27 70 76 vvcurveto
          176 142 142 176 76 70 -27 -44 55 vhcurveto
          endchar
        </CharString>
        <CharString name="died">
          592 -3 -21 361 76 -69 61 -39 61 181 -20 hstemhm
          237 114 -113 114 -96 79 -78 79 hintmask 0010000100000000
          545 357 rmoveto
          29 vlineto
          14 -4 14 -17 vhcurveto
          -14 -13 -3 -14 hhcurveto
          -3 -50 -49 -3 -50 hhcurveto
          1 3 0 4 4 vvcurveto
          hintmask 0001000100000000
          11 vlineto
          hintmask 0000001000000000
          49 9 49 8 48 vhcurveto
          1 5 1 5 5 vvcurveto
          hintmask 0000100010000000
          10 -7 9 -11 1 vhcurveto
          -69 hlineto
          hintmask 0000010000000000
          -13 -17 -1 -19 -13 4 -14 3 -13 hvcurveto
          hintmask 0001000100000000
          6 -40 6 -41 -40 vvcurveto
          -11 vlineto
          hintmask 0010000010000000
          -4 0 -4 1 -3 vhcurveto
          hintmask 0100000000000000
          -60 -61 3 5 -60 hvcurveto
          -3 -3 1 -3 hhcurveto
          -15 -6 -12 -13 hvcurveto
          -5 vlineto
          hintmask 0001000000000000
          -5 -1 -7 -6 vvcurveto
          -14 4 -17 19 vhcurveto
          4 4 1 4 hhcurveto
          39 3 rlineto
          hintmask 0010000100000000
          2 46 45 3 46 hhcurveto
          -89 -5 -89 -7 -89 vhcurveto
          hintmask 0000001000000000
          -6 -66 rlineto
          hintmask 1000010000000000
          -4 -1 -5 -4 vvcurveto
          -18 15 -4 11 vhcurveto
          63 hlineto
          14 15 4 20 10 -3 11 -1 10 hvcurveto
          hintmask 0010000100000000
          -9 104 -7 105 104 vvcurveto
          59 59 -3 -5 59 hvcurveto
          4 4 -1 4 hhcurveto
          12 9 10 12 hvcurveto
          endchar
        </CharString>
        <CharString name="dieresis">
          592 535 141 hstem
          97 20 callgsubr
          vstem
          -45 callsubr
          endchar
        </CharString>
        <CharString name="dieresis.cap">
          592 488 141 hstem
          73 38 callgsubr
          vstem
          -10 callsubr
          endchar
        </CharString>
        <CharString name="dieresis.dup">
          592 535 141 hstem
          97 20 callgsubr
          vstem
          -45 callsubr
          endchar
        </CharString>
        <CharString name="dieresis.ts1">
          592 550 146 hstem
          108 145 85 145 vstem
          253 623 rmoveto
          36 -27 37 -47 vhcurveto
          -7 hlineto
          -39 -8 -25 -28 -36 vvcurveto
          -38 29 -36 45 vhcurveto
          7 hlineto
          42 8 22 30 35 vvcurveto
          230 -1 rmoveto
          38 -29 36 -45 vhcurveto
          -7 hlineto
          -39 -8 -25 -28 -37 vvcurveto
          -39 30 -34 44 vhcurveto
          7 hlineto
          39 8 25 28 36 vvcurveto
          endchar
        </CharString>
        <CharString name="discount">
          592 21 182 -181 -21 548 182 19 -20 21 -20 hstemhm
          119 180 -88 180 -99 180 hintmask 00001000
          525 719 rmoveto
          17 -14 15 -18 vhcurveto
          hintmask 01010010
          -6 -1 -19 -3 -7 -19 -9 -15 rlinecurve
          -61 -107 -257 -446 -44 -77 -14 -24 rlineto
          -5 -8 -5 -8 -10 vvcurveto
          -17 13 -15 19 vhcurveto
          2 hlineto
          22 1 8 22 9 16 70 121 rcurveline
          296 514 rlineto
          8 13 12 16 15 vvcurveto
          -226 -79 rmoveto
          hintmask 00100010
          -47 -33 -37 -47 -7 vhcurveto
          -8 hlineto
          hintmask 10100100
          93 callgsubr
          173 -528 rmoveto
          -47 -33 -37 -47 -7 vhcurveto
          -8 hlineto
          hintmask 10000001
          93 callgsubr
          endchar
        </CharString>
        <CharString name="divide">
          920 -85 157 146 64 145 157 hstem
          381 157 vstem
          853 250 18 callgsubr
          -315 255 rmoveto
          -24 callgsubr
          -512 vmoveto
          18 callsubr
        </CharString>
        <CharString name="divorced">
          592 -92 -21 142 79 141 79 66 79 -79 80 141 -20 hstemhm
          148 60 49 77 49 60 cntrmask 0000001110000000
          hintmask 0000101110000000
          829 251 rmoveto
          125 -88 98 -141 vhcurveto
          hintmask 0101001110000000
          -5 -6 -1 -5 hhcurveto
          -103 -11 -98 -64 -148 vvcurveto
          -116 77 -105 142 123 104 83 139 vhcurveto
          -621 hmoveto
          hintmask 0000101110000000
          115 -76 108 -143 vhcurveto
          hintmask 1111011110000000
          -6 -5 -1 -6 hhcurveto
          -42 -5 -41 -9 -36 -24 rrcurveto
          -61 -41 -29 -72 -72 vvcurveto
          -136 102 -85 125 111 107 73 149 vhcurveto
          147 -340 rmoveto
          8 -2 9 -1 7 vhcurveto
          -14 130 -4 132 131 vvcurveto
          77 5 78 11 77 vhcurveto
          3 24 rlineto
          3 1 3 4 vvcurveto
          18 -14 3 -12 vhcurveto
          -63 hlineto
          -5 -4 0 -1 -4 hvcurveto
          -12 -3 -3 -9 -10 vvcurveto
          -9 2 -9 1 -7 vhcurveto
          11 -78 6 -82 -79 vvcurveto
          -129 -6 -129 -11 -129 vhcurveto
          -3 -31 rlineto
          -19 13 -4 14 vhcurveto
          62 hlineto
          23 6 9 15 hvcurveto
          -207 346 rmoveto
          -4 0 -3 -1 -4 vhcurveto
          -81 -5 -37 -57 -117 hhcurveto
          -39 -43 8 28 -28 hvcurveto
          -28 28 -8 39 38 vvcurveto
          41 8 41 30 29 vhcurveto
          28 30 45 6 39 hhcurveto
          72 82 -32 -105 hvcurveto
          601 -8 rmoveto
          -38 -8 -39 -28 -28 vhcurveto
          -28 -28 -43 -8 -39 hhcurveto
          -65 -71 20 79 -19 hvcurveto
          -3 13 0 13 -2 14 rrcurveto
          7 vlineto
          104 78 36 76 86 66 -37 -108 vhcurveto
          endchar
        </CharString>
        <CharString name="dlinebelow">
          657 -148 55 87 40 -34 49 361 40 187 36 callsubr
          hintmask 0010010010000000
          44 callgsubr
          hintmask 0101101100000000
          -28 callgsubr
          hintmask 0010000000000000
          115 vmoveto
          hintmask 0101001100000000
          -27 callgsubr
          hintmask 1000000000000000
          112 -497 -35 callgsubr
        </CharString>
        <CharString name="dollar">
          592 -35 -21 51 49 81 130 -93 49 -49 130 161 130 -86 49 104 49 51 -20 hstemhm
          66 83 122 49 122 83 cntrmask 0000000001110000
          hintmask 0000010111110000
          525 211 rmoveto
          86 -51 52 -6 6 vhcurveto
          -51 53 -46 12 -51 10 rrcurveto
          220 vlineto
          21 -2 82 -5 34 -60 rrcurveto
          -46 -4 -16 -33 -28 vvcurveto
          -43 34 -22 31 13 52 7 62 88 -62 81 -143 8 vhcurveto
          51 -49 -51 vlineto
          hintmask 0100101001110000
          -141 -10 -64 -94 -98 vvcurveto
          -79 49 -49 13 -13 vhcurveto
          51 -46 49 -9 43 -9 rrcurveto
          -248 vlineto
          hintmask 1110000001110000
          -41 4 -69 13 -30 64 rrcurveto
          50 2 15 36 27 vvcurveto
          40 -31 25 -34 -19 -46 -11 -58 -82 51 -99 154 -10 vhcurveto
          -51 49 51 vlineto
          hintmask 0101001101110000
          159 14 46 116 86 vvcurveto
          -254 229 rmoveto
          -96 18 -26 50 38 vvcurveto
          39 27 56 95 9 vhcurveto
          171 -488 rmoveto
          -56 -38 -53 -84 -9 vhcurveto
          238 vlineto
          70 -12 52 -46 -62 vvcurveto
          endchar
        </CharString>
        <CharString name="dollar.oldstyle">
          723 642 53 -46 46 -46 53 hstemhm
          66 83 -83 130 -63 130 0 50 97 50 1 131 -116 50 0 131 -84 83 cntrmask 1110000000000000
          hintmask 1110101100000000
          657 525 rmoveto
          115 -111 48 -86 7 vhcurveto
          56 -50 -51 vlineto
          -20 -20 2 -20 hhcurveto
          -12 -13 -1 -2 -12 hvcurveto
          52 -50 -56 vlineto
          -107 -20 -90 -75 -101 vvcurveto
          -106 111 -72 86 -12 vhcurveto
          -256 vlineto
          hintmask 1110010000000000
          -42 4 -64 24 -24 45 rrcurveto
          hintmask 1110101101010000
          34 2 29 23 39 vvcurveto
          36 -26 30 -41 -44 -19 -36 -34 -117 102 -57 95 -10 vhcurveto
          -57 50 51 97 -51 50 60 vlineto
          102 14 94 83 108 vvcurveto
          101 -84 69 -96 30 vhcurveto
          hintmask 1110000110000000
          -8 3 -7 3 0 vvcurveto
          -1 229 48 -8 49 -12 30 -41 rlinecurve
          hintmask 1110000000100000
          -38 -3 -23 -28 -34 vvcurveto
          hintmask 1110000010000000
          -37 28 -28 38 vhcurveto
          hintmask 1111001100100000
          43 22 36 35 hvcurveto
          -247 -99 rmoveto
          -97 20 rlineto
          203 97 vlineto
          -147 -192 rmoveto
          -45 11 -69 23 58 vvcurveto
          57 74 27 40 9 vhcurveto
          310 -478 rmoveto
          -61 -62 -36 -51 -11 vhcurveto
          210 vlineto
          hintmask 1110001100010000
          45 -15 68 -25 -62 vvcurveto
          -163 -117 rmoveto
          -97 251 hlineto
          97 -20 rlineto
          endchar
        </CharString>
        <CharString name="dong">
          657 -50 50 hstem
          584 35 rmoveto
          46 vlineto
          -57 -7 0 37 hvcurveto
          410 64 47 -64 119 vlineto
          -170 -8 rlineto
          -46 vlineto
          57 7 0 -37 hvcurveto
          -28 -164 -47 164 -109 vlineto
          31 -42 -44 12 -46 hhcurveto
          -155 -90 -94 -122 -127 89 -90 145 60 47 23 25 30 hvcurveto
          -48 vlineto
          176 -54 rmoveto
          132 callgsubr
          vhcurveto
          -497 hlineto
          -14 -11 -11 -14 144 callgsubr
          hvcurveto
          497 hlineto
          14 11 11 14 hvcurveto
          -176 163 rmoveto
          -33 -20 -46 -38 -61 hhcurveto
          -118 0 114 63 55 1 41 25 35 hvcurveto
          38 25 45 11 34 hhcurveto
          47 39 -21 -37 29 hvcurveto
          endchar
        </CharString>
        <CharString name="dotaccent">
          329 527 101 callgsubr
          605 -101 callsubr
        </CharString>
        <CharString name="dotaccent.alt">
          329 487 101 callgsubr
          565 -101 callsubr
        </CharString>
        <CharString name="dotaccent.cap">
          329 488 101 callgsubr
          566 -101 callsubr
        </CharString>
        <CharString name="dotlessi">
          329 -23 callsubr
          hstemhm
          120 111 hintmask 10110000
          -8 callgsubr
          hintmask 11010000
          -81 callsubr
          endchar
        </CharString>
</ttFont>
